<?xml version="1.0" encoding="utf-8"?>
<svg width="194pt" height="194pt" viewBox="0 0 194 194" version="1.1" xmlns="http://www.w3.org/2000/svg">
  <g id="surface1" style="" transform="matrix(2.799663, 0, 0, 2.459673, -173.698044, -130.946487)">
    <path style=" stroke:none;fill-rule:evenodd;fill:rgb(100%,100%,100%);fill-opacity:1;" d="M 0.257813 0.675781 L 193.015625 0.675781 L 193.015625 193.433594 L 0.257813 193.433594 L 0.257813 0.675781 "/>
    <path style=" stroke:none;fill-rule:evenodd;fill:rgb(92.89856%,10.998535%,14.099121%);fill-opacity:1;" d="M 18.914063 113.28125 L 19.671875 113.28125 L 19 113.539063 Z M 18.914063 113.28125 "/>
    <path style=" stroke:none;fill-rule:evenodd;fill:rgb(92.89856%,10.998535%,14.099121%);fill-opacity:1;" d="M 19.671875 113.28125 L 18.914063 113.28125 L 18.828125 113.027344 L 20.34375 113.027344 L 19.671875 113.28125 "/>
    <path style=" stroke:none;fill-rule:evenodd;fill:rgb(92.89856%,12.89978%,14.498901%);fill-opacity:1;" d="M 20.34375 113.027344 L 18.828125 113.027344 L 18.738281 112.773438 L 21.011719 112.773438 L 20.34375 113.027344 "/>
    <path style=" stroke:none;fill-rule:evenodd;fill:rgb(93.299866%,14.498901%,14.898682%);fill-opacity:1;" d="M 21.011719 112.773438 L 18.738281 112.773438 L 18.644531 112.496094 L 21.738281 112.496094 L 21.011719 112.773438 "/>
    <path style=" stroke:none;fill-rule:evenodd;fill:rgb(93.299866%,14.498901%,14.898682%);fill-opacity:1;" d="M 21.738281 112.496094 L 18.644531 112.496094 L 18.558594 112.242188 L 22.410156 112.242188 L 21.738281 112.496094 "/>
    <path style=" stroke:none;fill-rule:evenodd;fill:rgb(93.299866%,16.099548%,15.299988%);fill-opacity:1;" d="M 22.410156 112.242188 L 18.558594 112.242188 L 18.46875 111.988281 L 23.082031 111.988281 L 22.410156 112.242188 "/>
    <path style=" stroke:none;fill-rule:evenodd;fill:rgb(93.299866%,16.099548%,15.299988%);fill-opacity:1;" d="M 23.082031 111.988281 L 18.46875 111.988281 L 18.382813 111.730469 L 23.75 111.730469 L 23.082031 111.988281 "/>
    <path style=" stroke:none;fill-rule:evenodd;fill:rgb(93.299866%,17.599487%,15.699768%);fill-opacity:1;" d="M 23.75 111.730469 L 18.382813 111.730469 L 18.292969 111.476563 L 24.421875 111.476563 L 23.75 111.730469 "/>
    <path style=" stroke:none;fill-rule:evenodd;fill:rgb(93.299866%,17.599487%,15.699768%);fill-opacity:1;" d="M 24.421875 111.476563 L 18.292969 111.476563 L 18.207031 111.222656 L 25.089844 111.222656 L 24.421875 111.476563 "/>
    <path style=" stroke:none;fill-rule:evenodd;fill:rgb(93.299866%,19.198608%,16.099548%);fill-opacity:1;" d="M 25.089844 111.222656 L 18.207031 111.222656 L 18.121094 110.96875 L 25.761719 110.96875 L 25.089844 111.222656 "/>
    <path style=" stroke:none;fill-rule:evenodd;fill:rgb(93.299866%,19.198608%,16.099548%);fill-opacity:1;" d="M 25.761719 110.96875 L 18.121094 110.96875 L 18.027344 110.691406 L 26.488281 110.691406 L 25.761719 110.96875 "/>
    <path style=" stroke:none;fill-rule:evenodd;fill:rgb(93.299866%,20.399475%,16.499329%);fill-opacity:1;" d="M 26.488281 110.691406 L 18.027344 110.691406 L 17.9375 110.4375 L 27.15625 110.4375 L 26.488281 110.691406 "/>
    <path style=" stroke:none;fill-rule:evenodd;fill:rgb(93.299866%,20.399475%,16.499329%);fill-opacity:1;" d="M 27.15625 110.4375 L 17.9375 110.4375 L 17.851563 110.179688 L 27.828125 110.179688 L 27.15625 110.4375 "/>
    <path style=" stroke:none;fill-rule:evenodd;fill:rgb(93.699646%,21.998596%,17.298889%);fill-opacity:1;" d="M 27.828125 110.179688 L 17.851563 110.179688 L 17.761719 109.925781 L 28.5 109.925781 L 27.828125 110.179688 "/>
    <path style=" stroke:none;fill-rule:evenodd;fill:rgb(93.699646%,21.998596%,17.298889%);fill-opacity:1;" d="M 28.5 109.925781 L 17.761719 109.925781 L 17.675781 109.671875 L 29.167969 109.671875 L 28.5 109.925781 "/>
    <path style=" stroke:none;fill-rule:evenodd;fill:rgb(93.699646%,23.098755%,17.599487%);fill-opacity:1;" d="M 29.167969 109.671875 L 17.675781 109.671875 L 17.589844 109.417969 L 21.046875 109.417969 L 21.125 109.652344 L 21.757813 109.417969 L 29.839844 109.417969 L 29.167969 109.671875 "/>
    <path style=" stroke:none;fill-rule:evenodd;fill:rgb(93.699646%,23.098755%,17.599487%);fill-opacity:1;" d="M 29.839844 109.417969 L 21.757813 109.417969 L 22.449219 109.160156 L 30.511719 109.160156 Z M 21.046875 109.417969 L 17.589844 109.417969 L 17.5 109.160156 L 20.957031 109.160156 L 21.046875 109.417969 "/>
    <path style=" stroke:none;fill-rule:evenodd;fill:rgb(93.699646%,24.299622%,17.999268%);fill-opacity:1;" d="M 30.511719 109.160156 L 22.449219 109.160156 L 23.136719 108.90625 L 31.179688 108.90625 Z M 20.957031 109.160156 L 17.5 109.160156 L 17.414063 108.90625 L 20.871094 108.90625 L 20.957031 109.160156 "/>
    <path style=" stroke:none;fill-rule:evenodd;fill:rgb(93.699646%,24.299622%,17.999268%);fill-opacity:1;" d="M 31.179688 108.90625 L 23.136719 108.90625 L 23.882813 108.632813 L 31.90625 108.632813 Z M 20.871094 108.90625 L 17.414063 108.90625 L 17.320313 108.632813 L 20.773438 108.632813 L 20.871094 108.90625 "/>
    <path style=" stroke:none;fill-rule:evenodd;fill:rgb(93.699646%,25.498962%,18.798828%);fill-opacity:1;" d="M 31.90625 108.632813 L 23.882813 108.632813 L 24.574219 108.375 L 32.578125 108.375 Z M 20.773438 108.632813 L 17.320313 108.632813 L 17.230469 108.375 L 20.6875 108.375 L 20.773438 108.632813 "/>
    <path style=" stroke:none;fill-rule:evenodd;fill:rgb(93.699646%,26.699829%,19.198608%);fill-opacity:1;" d="M 32.578125 108.375 L 24.574219 108.375 L 25.265625 108.121094 L 33.246094 108.121094 Z M 20.6875 108.375 L 17.230469 108.375 L 17.144531 108.121094 L 20.601563 108.121094 L 20.6875 108.375 "/>
    <path style=" stroke:none;fill-rule:evenodd;fill:rgb(93.699646%,26.699829%,19.198608%);fill-opacity:1;" d="M 33.246094 108.121094 L 25.265625 108.121094 L 25.953125 107.867188 L 33.917969 107.867188 Z M 20.601563 108.121094 L 17.144531 108.121094 L 17.054688 107.867188 L 20.511719 107.867188 L 20.601563 108.121094 "/>
    <path style=" stroke:none;fill-rule:evenodd;fill:rgb(93.699646%,26.699829%,19.198608%);fill-opacity:1;" d="M 33.917969 107.867188 L 25.953125 107.867188 L 26.644531 107.613281 L 34.589844 107.613281 Z M 20.511719 107.867188 L 17.054688 107.867188 L 16.96875 107.613281 L 20.425781 107.613281 L 20.511719 107.867188 "/>
    <path style=" stroke:none;fill-rule:evenodd;fill:rgb(93.699646%,27.49939%,19.999695%);fill-opacity:1;" d="M 34.589844 107.613281 L 26.644531 107.613281 L 27.332031 107.355469 L 35.257813 107.355469 Z M 20.425781 107.613281 L 16.96875 107.613281 L 16.882813 107.355469 L 20.335938 107.355469 L 20.425781 107.613281 "/>
    <path style=" stroke:none;fill-rule:evenodd;fill:rgb(94.099426%,28.599548%,20.399475%);fill-opacity:1;" d="M 35.257813 107.355469 L 27.332031 107.355469 L 28.023438 107.101563 L 35.929688 107.101563 Z M 20.335938 107.355469 L 16.882813 107.355469 L 16.792969 107.101563 L 20.25 107.101563 L 20.335938 107.355469 "/>
    <path style=" stroke:none;fill-rule:evenodd;fill:rgb(94.099426%,28.599548%,20.399475%);fill-opacity:1;" d="M 35.929688 107.101563 L 28.023438 107.101563 L 28.710938 106.847656 L 36.601563 106.847656 Z M 20.25 107.101563 L 16.792969 107.101563 L 16.707031 106.847656 L 20.160156 106.847656 L 20.25 107.101563 "/>
    <path style=" stroke:none;fill-rule:evenodd;fill:rgb(94.099426%,29.798889%,20.799255%);fill-opacity:1;" d="M 36.601563 106.847656 L 28.710938 106.847656 L 29.460938 106.570313 L 37.328125 106.570313 Z M 20.160156 106.847656 L 16.707031 106.847656 L 16.613281 106.570313 L 20.066406 106.570313 L 20.160156 106.847656 "/>
    <path style=" stroke:none;fill-rule:evenodd;fill:rgb(94.099426%,29.798889%,20.799255%);fill-opacity:1;" d="M 37.328125 106.570313 L 29.460938 106.570313 L 30.148438 106.316406 L 37.996094 106.316406 Z M 20.066406 106.570313 L 16.613281 106.570313 L 16.523438 106.316406 L 19.976563 106.316406 L 20.066406 106.570313 "/>
    <path style=" stroke:none;fill-rule:evenodd;fill:rgb(94.099426%,30.599976%,21.598816%);fill-opacity:1;" d="M 37.996094 106.316406 L 30.148438 106.316406 L 30.839844 106.0625 L 38.667969 106.0625 Z M 19.976563 106.316406 L 16.523438 106.316406 L 16.4375 106.0625 L 19.890625 106.0625 L 19.976563 106.316406 "/>
    <path style=" stroke:none;fill-rule:evenodd;fill:rgb(94.099426%,30.599976%,21.598816%);fill-opacity:1;" d="M 38.667969 106.0625 L 30.839844 106.0625 L 31.527344 105.804688 L 39.335938 105.804688 Z M 19.890625 106.0625 L 16.4375 106.0625 L 16.347656 105.804688 L 19.804688 105.804688 L 19.890625 106.0625 "/>
    <path style=" stroke:none;fill-rule:evenodd;fill:rgb(94.099426%,31.799316%,22.399902%);fill-opacity:1;" d="M 39.335938 105.804688 L 31.527344 105.804688 L 32.21875 105.550781 L 40.007813 105.550781 Z M 19.804688 105.804688 L 16.347656 105.804688 L 16.261719 105.550781 L 19.714844 105.550781 L 19.804688 105.804688 "/>
    <path style=" stroke:none;fill-rule:evenodd;fill:rgb(94.099426%,31.799316%,22.399902%);fill-opacity:1;" d="M 40.007813 105.550781 L 32.21875 105.550781 L 32.90625 105.296875 L 40.679688 105.296875 Z M 19.714844 105.550781 L 16.261719 105.550781 L 16.175781 105.296875 L 19.628906 105.296875 L 19.714844 105.550781 "/>
    <path style=" stroke:none;fill-rule:evenodd;fill:rgb(94.099426%,32.499695%,23.098755%);fill-opacity:1;" d="M 40.679688 105.296875 L 32.90625 105.296875 L 33.597656 105.042969 L 41.347656 105.042969 Z M 19.628906 105.296875 L 16.175781 105.296875 L 16.085938 105.042969 L 19.539063 105.042969 L 19.628906 105.296875 "/>
    <path style=" stroke:none;fill-rule:evenodd;fill:rgb(94.099426%,32.499695%,23.098755%);fill-opacity:1;" d="M 41.347656 105.042969 L 33.597656 105.042969 L 34.285156 104.785156 L 42.019531 104.785156 Z M 19.539063 105.042969 L 16.085938 105.042969 L 16 104.785156 L 19.453125 104.785156 L 19.539063 105.042969 "/>
    <path style=" stroke:none;fill-rule:evenodd;fill:rgb(94.499207%,33.699036%,23.498535%);fill-opacity:1;" d="M 42.019531 104.785156 L 34.285156 104.785156 L 35.03125 104.511719 L 42.746094 104.511719 Z M 19.453125 104.785156 L 16 104.785156 L 15.90625 104.511719 L 19.355469 104.511719 L 19.453125 104.785156 "/>
    <path style=" stroke:none;fill-rule:evenodd;fill:rgb(94.499207%,33.699036%,23.498535%);fill-opacity:1;" d="M 42.746094 104.511719 L 35.03125 104.511719 L 35.722656 104.253906 L 43.414063 104.253906 Z M 19.355469 104.511719 L 15.90625 104.511719 L 15.816406 104.253906 L 19.269531 104.253906 L 19.355469 104.511719 "/>
    <path style=" stroke:none;fill-rule:evenodd;fill:rgb(94.499207%,34.498596%,24.299622%);fill-opacity:1;" d="M 43.414063 104.253906 L 35.722656 104.253906 L 36.414063 104 L 44.085938 104 Z M 19.269531 104.253906 L 15.816406 104.253906 L 15.730469 104 L 19.183594 104 L 19.269531 104.253906 "/>
    <path style=" stroke:none;fill-rule:evenodd;fill:rgb(94.499207%,34.498596%,24.299622%);fill-opacity:1;" d="M 44.085938 104 L 36.414063 104 L 37.101563 103.746094 L 44.757813 103.746094 Z M 19.183594 104 L 15.730469 104 L 15.644531 103.746094 L 19.09375 103.746094 L 19.183594 104 "/>
    <path style=" stroke:none;fill-rule:evenodd;fill:rgb(94.499207%,35.299683%,25.099182%);fill-opacity:1;" d="M 44.757813 103.746094 L 37.101563 103.746094 L 37.792969 103.492188 L 45.425781 103.492188 Z M 19.09375 103.746094 L 15.644531 103.746094 L 15.554688 103.492188 L 19.007813 103.492188 L 19.09375 103.746094 "/>
    <path style=" stroke:none;fill-rule:evenodd;fill:rgb(94.499207%,35.299683%,25.099182%);fill-opacity:1;" d="M 45.425781 103.492188 L 37.792969 103.492188 L 38.480469 103.234375 L 46.097656 103.234375 Z M 19.007813 103.492188 L 15.554688 103.492188 L 15.46875 103.234375 L 18.917969 103.234375 L 19.007813 103.492188 "/>
    <path style=" stroke:none;fill-rule:evenodd;fill:rgb(94.499207%,36.499023%,25.898743%);fill-opacity:1;" d="M 46.097656 103.234375 L 38.480469 103.234375 L 39.171875 102.980469 L 46.769531 102.980469 Z M 18.917969 103.234375 L 15.46875 103.234375 L 15.378906 102.980469 L 18.832031 102.980469 L 18.917969 103.234375 "/>
    <path style=" stroke:none;fill-rule:evenodd;fill:rgb(94.499207%,37.298584%,26.699829%);fill-opacity:1;" d="M 46.769531 102.980469 L 39.171875 102.980469 L 39.859375 102.726563 L 47.4375 102.726563 Z M 18.832031 102.980469 L 15.378906 102.980469 L 15.292969 102.726563 L 18.742188 102.726563 L 18.832031 102.980469 "/>
    <path style=" stroke:none;fill-rule:evenodd;fill:rgb(94.499207%,37.298584%,26.699829%);fill-opacity:1;" d="M 47.4375 102.726563 L 39.859375 102.726563 L 40.609375 102.449219 L 48.164063 102.449219 Z M 18.742188 102.726563 L 15.292969 102.726563 L 15.199219 102.449219 L 18.648438 102.449219 L 18.742188 102.726563 "/>
    <path style=" stroke:none;fill-rule:evenodd;fill:rgb(94.499207%,37.298584%,26.699829%);fill-opacity:1;" d="M 48.164063 102.449219 L 40.609375 102.449219 L 41.296875 102.195313 L 48.835938 102.195313 Z M 18.648438 102.449219 L 15.199219 102.449219 L 15.109375 102.195313 L 18.5625 102.195313 L 18.648438 102.449219 "/>
    <path style=" stroke:none;fill-rule:evenodd;fill:rgb(94.499207%,37.998962%,27.099609%);fill-opacity:1;" d="M 48.835938 102.195313 L 41.296875 102.195313 L 41.988281 101.941406 L 49.503906 101.941406 Z M 18.5625 102.195313 L 15.109375 102.195313 L 15.023438 101.941406 L 18.472656 101.941406 L 18.5625 102.195313 "/>
    <path style=" stroke:none;fill-rule:evenodd;fill:rgb(94.898987%,39.199829%,27.799988%);fill-opacity:1;" d="M 49.503906 101.941406 L 41.988281 101.941406 L 42.675781 101.683594 L 50.175781 101.683594 Z M 18.472656 101.941406 L 15.023438 101.941406 L 14.933594 101.683594 L 18.386719 101.683594 L 18.472656 101.941406 "/>
    <path style=" stroke:none;fill-rule:evenodd;fill:rgb(94.898987%,39.199829%,27.799988%);fill-opacity:1;" d="M 50.175781 101.683594 L 42.675781 101.683594 L 43.367188 101.429688 L 50.847656 101.429688 Z M 18.386719 101.683594 L 14.933594 101.683594 L 14.847656 101.429688 L 18.296875 101.429688 L 18.386719 101.683594 "/>
    <path style=" stroke:none;fill-rule:evenodd;fill:rgb(94.898987%,39.99939%,28.599548%);fill-opacity:1;" d="M 50.847656 101.429688 L 43.367188 101.429688 L 44.054688 101.175781 L 51.515625 101.175781 Z M 18.296875 101.429688 L 14.847656 101.429688 L 14.761719 101.175781 L 18.210938 101.175781 L 18.296875 101.429688 "/>
    <path style=" stroke:none;fill-rule:evenodd;fill:rgb(94.898987%,39.99939%,28.599548%);fill-opacity:1;" d="M 51.515625 101.175781 L 44.054688 101.175781 L 44.746094 100.921875 L 52.1875 100.921875 Z M 18.210938 101.175781 L 14.761719 101.175781 L 14.671875 100.921875 L 18.121094 100.921875 L 18.210938 101.175781 "/>
    <path style=" stroke:none;fill-rule:evenodd;fill:rgb(94.898987%,39.99939%,28.599548%);fill-opacity:1;" d="M 52.1875 100.921875 L 44.746094 100.921875 L 45.433594 100.664063 L 52.855469 100.664063 Z M 18.121094 100.921875 L 14.671875 100.921875 L 14.585938 100.664063 L 18.035156 100.664063 L 18.121094 100.921875 "/>
    <path style=" stroke:none;fill-rule:evenodd;fill:rgb(94.898987%,40.79895%,29.399109%);fill-opacity:1;" d="M 52.855469 100.664063 L 45.433594 100.664063 L 46.183594 100.390625 L 53.585938 100.390625 Z M 18.035156 100.664063 L 14.585938 100.664063 L 14.492188 100.390625 L 17.941406 100.390625 L 18.035156 100.664063 "/>
    <path style=" stroke:none;fill-rule:evenodd;fill:rgb(94.898987%,41.598511%,30.198669%);fill-opacity:1;" d="M 53.585938 100.390625 L 46.183594 100.390625 L 46.871094 100.136719 L 54.253906 100.136719 Z M 17.941406 100.390625 L 14.492188 100.390625 L 14.402344 100.136719 L 17.851563 100.136719 L 17.941406 100.390625 "/>
    <path style=" stroke:none;fill-rule:evenodd;fill:rgb(94.898987%,41.598511%,30.198669%);fill-opacity:1;" d="M 54.253906 100.136719 L 46.871094 100.136719 L 47.5625 99.878906 L 54.925781 99.878906 Z M 17.851563 100.136719 L 14.402344 100.136719 L 14.316406 99.878906 L 17.765625 99.878906 L 17.851563 100.136719 "/>
    <path style=" stroke:none;fill-rule:evenodd;fill:rgb(94.898987%,42.399597%,30.999756%);fill-opacity:1;" d="M 54.925781 99.878906 L 47.5625 99.878906 L 48.25 99.625 L 55.59375 99.625 Z M 17.765625 99.878906 L 14.316406 99.878906 L 14.226563 99.625 L 17.675781 99.625 L 17.765625 99.878906 "/>
    <path style=" stroke:none;fill-rule:evenodd;fill:rgb(94.898987%,42.399597%,30.999756%);fill-opacity:1;" d="M 55.59375 99.625 L 48.25 99.625 L 48.941406 99.371094 L 56.265625 99.371094 Z M 17.675781 99.625 L 14.226563 99.625 L 14.140625 99.371094 L 17.589844 99.371094 L 17.675781 99.625 "/>
    <path style=" stroke:none;fill-rule:evenodd;fill:rgb(95.298767%,43.099976%,31.799316%);fill-opacity:1;" d="M 56.265625 99.371094 L 48.941406 99.371094 L 49.628906 99.113281 L 56.9375 99.113281 Z M 17.589844 99.371094 L 14.140625 99.371094 L 14.054688 99.113281 L 17.5 99.113281 L 17.589844 99.371094 "/>
    <path style=" stroke:none;fill-rule:evenodd;fill:rgb(95.298767%,43.099976%,31.799316%);fill-opacity:1;" d="M 56.9375 99.113281 L 49.628906 99.113281 L 50.320313 98.859375 L 57.605469 98.859375 Z M 17.5 99.113281 L 14.054688 99.113281 L 14.011719 98.988281 L 13.96875 98.859375 L 17.414063 98.859375 L 17.5 99.113281 "/>
    <path style=" stroke:none;fill-rule:evenodd;fill:rgb(95.298767%,43.899536%,32.499695%);fill-opacity:1;" d="M 57.605469 98.859375 L 50.320313 98.859375 L 51.011719 98.605469 L 58.277344 98.605469 Z M 17.414063 98.859375 L 13.96875 98.859375 L 13.886719 98.605469 L 17.328125 98.605469 L 17.414063 98.859375 "/>
    <path style=" stroke:none;fill-rule:evenodd;fill:rgb(95.298767%,43.899536%,32.499695%);fill-opacity:1;" d="M 58.277344 98.605469 L 51.011719 98.605469 L 51.757813 98.328125 L 59.003906 98.328125 Z M 17.328125 98.605469 L 13.886719 98.605469 L 13.800781 98.328125 L 17.230469 98.328125 L 17.328125 98.605469 "/>
    <path style=" stroke:none;fill-rule:evenodd;fill:rgb(95.298767%,44.699097%,33.299255%);fill-opacity:1;" d="M 59.003906 98.328125 L 51.757813 98.328125 L 52.445313 98.074219 L 59.671875 98.074219 Z M 17.230469 98.328125 L 13.800781 98.328125 L 13.71875 98.074219 L 17.144531 98.074219 L 17.230469 98.328125 "/>
    <path style=" stroke:none;fill-rule:evenodd;fill:rgb(95.298767%,44.699097%,33.299255%);fill-opacity:1;" d="M 59.671875 98.074219 L 52.445313 98.074219 L 53.136719 97.820313 L 60.34375 97.820313 Z M 17.144531 98.074219 L 13.71875 98.074219 L 13.636719 97.820313 L 17.054688 97.820313 L 17.144531 98.074219 "/>
    <path style=" stroke:none;fill-rule:evenodd;fill:rgb(95.298767%,45.498657%,34.098816%);fill-opacity:1;" d="M 60.34375 97.820313 L 53.136719 97.820313 L 53.824219 97.566406 L 61.015625 97.566406 Z M 17.054688 97.820313 L 13.636719 97.820313 L 13.554688 97.566406 L 16.96875 97.566406 L 17.054688 97.820313 "/>
    <path style=" stroke:none;fill-rule:evenodd;fill:rgb(95.298767%,45.498657%,34.098816%);fill-opacity:1;" d="M 61.015625 97.566406 L 53.824219 97.566406 L 54.515625 97.308594 L 61.683594 97.308594 Z M 16.96875 97.566406 L 13.554688 97.566406 L 13.472656 97.308594 L 16.878906 97.308594 L 16.96875 97.566406 "/>
    <path style=" stroke:none;fill-rule:evenodd;fill:rgb(95.298767%,46.299744%,34.899902%);fill-opacity:1;" d="M 61.683594 97.308594 L 54.515625 97.308594 L 55.207031 97.054688 L 62.355469 97.054688 Z M 16.878906 97.308594 L 13.472656 97.308594 L 13.394531 97.054688 L 16.792969 97.054688 L 16.878906 97.308594 "/>
    <path style=" stroke:none;fill-rule:evenodd;fill:rgb(95.298767%,46.299744%,34.899902%);fill-opacity:1;" d="M 62.355469 97.054688 L 55.207031 97.054688 L 55.894531 96.800781 L 63.023438 96.800781 Z M 16.792969 97.054688 L 13.394531 97.054688 L 13.3125 96.800781 L 16.707031 96.800781 L 16.792969 97.054688 "/>
    <path style=" stroke:none;fill-rule:evenodd;fill:rgb(95.698547%,47.099304%,35.299683%);fill-opacity:1;" d="M 63.023438 96.800781 L 55.894531 96.800781 L 56.585938 96.546875 L 63.695313 96.546875 Z M 16.707031 96.800781 L 13.3125 96.800781 L 13.230469 96.546875 L 16.617188 96.546875 L 16.707031 96.800781 "/>
    <path style=" stroke:none;fill-rule:evenodd;fill:rgb(95.698547%,47.799683%,36.099243%);fill-opacity:1;" d="M 63.695313 96.546875 L 56.585938 96.546875 L 57.332031 96.269531 L 64.421875 96.269531 Z M 16.617188 96.546875 L 13.230469 96.546875 L 13.140625 96.269531 L 16.523438 96.269531 L 16.617188 96.546875 "/>
    <path style=" stroke:none;fill-rule:evenodd;fill:rgb(95.698547%,47.799683%,36.099243%);fill-opacity:1;" d="M 64.421875 96.269531 L 57.332031 96.269531 L 58.019531 96.015625 L 65.09375 96.015625 Z M 16.523438 96.269531 L 13.140625 96.269531 L 13.058594 96.015625 L 16.433594 96.015625 L 16.523438 96.269531 "/>
    <path style=" stroke:none;fill-rule:evenodd;fill:rgb(95.698547%,47.799683%,36.099243%);fill-opacity:1;" d="M 65.09375 96.015625 L 58.019531 96.015625 L 58.710938 95.757813 L 65.761719 95.757813 Z M 16.433594 96.015625 L 13.058594 96.015625 L 12.976563 95.757813 L 16.347656 95.757813 L 16.433594 96.015625 "/>
    <path style=" stroke:none;fill-rule:evenodd;fill:rgb(95.698547%,48.599243%,36.898804%);fill-opacity:1;" d="M 65.761719 95.757813 L 58.710938 95.757813 L 59.398438 95.503906 L 66.433594 95.503906 Z M 16.347656 95.757813 L 12.976563 95.757813 L 12.898438 95.503906 L 16.257813 95.503906 L 16.347656 95.757813 "/>
    <path style=" stroke:none;fill-rule:evenodd;fill:rgb(95.698547%,48.599243%,36.898804%);fill-opacity:1;" d="M 66.433594 95.503906 L 59.398438 95.503906 L 60.089844 95.25 L 67.101563 95.25 Z M 16.257813 95.503906 L 12.898438 95.503906 L 12.816406 95.25 L 16.171875 95.25 L 16.257813 95.503906 "/>
    <path style=" stroke:none;fill-rule:evenodd;fill:rgb(95.698547%,49.398804%,37.599182%);fill-opacity:1;" d="M 67.101563 95.25 L 60.089844 95.25 L 60.78125 94.996094 L 67.773438 94.996094 Z M 16.171875 95.25 L 12.816406 95.25 L 12.734375 94.996094 L 16.085938 94.996094 L 16.171875 95.25 "/>
    <path style=" stroke:none;fill-rule:evenodd;fill:rgb(95.698547%,50.19989%,38.398743%);fill-opacity:1;" d="M 67.773438 94.996094 L 60.78125 94.996094 L 61.46875 94.738281 L 68.445313 94.738281 Z M 16.085938 94.996094 L 12.734375 94.996094 L 12.652344 94.738281 L 15.996094 94.738281 L 16.085938 94.996094 "/>
    <path style=" stroke:none;fill-rule:evenodd;fill:rgb(95.698547%,50.19989%,38.398743%);fill-opacity:1;" d="M 68.445313 94.738281 L 61.46875 94.738281 L 62.214844 94.464844 L 69.171875 94.464844 Z M 15.996094 94.738281 L 12.652344 94.738281 L 12.566406 94.464844 L 15.902344 94.464844 L 15.996094 94.738281 "/>
    <path style=" stroke:none;fill-rule:evenodd;fill:rgb(95.698547%,50.19989%,38.398743%);fill-opacity:1;" d="M 69.171875 94.464844 L 62.214844 94.464844 L 62.90625 94.210938 L 69.839844 94.210938 Z M 15.902344 94.464844 L 12.566406 94.464844 L 12.484375 94.210938 L 15.8125 94.210938 L 15.902344 94.464844 "/>
    <path style=" stroke:none;fill-rule:evenodd;fill:rgb(95.698547%,50.999451%,39.199829%);fill-opacity:1;" d="M 69.839844 94.210938 L 62.90625 94.210938 L 63.59375 93.953125 L 70.511719 93.953125 Z M 15.8125 94.210938 L 12.484375 94.210938 L 12.402344 93.953125 L 15.726563 93.953125 L 15.8125 94.210938 "/>
    <path style=" stroke:none;fill-rule:evenodd;fill:rgb(96.099854%,51.799011%,39.99939%);fill-opacity:1;" d="M 70.511719 93.953125 L 63.59375 93.953125 L 64.285156 93.699219 L 71.183594 93.699219 Z M 15.726563 93.953125 L 12.402344 93.953125 L 12.320313 93.699219 L 15.636719 93.699219 L 15.726563 93.953125 "/>
    <path style=" stroke:none;fill-rule:evenodd;fill:rgb(96.099854%,51.799011%,39.99939%);fill-opacity:1;" d="M 71.183594 93.699219 L 64.285156 93.699219 L 64.976563 93.445313 L 71.851563 93.445313 Z M 15.636719 93.699219 L 12.320313 93.699219 L 12.238281 93.445313 L 15.550781 93.445313 L 15.636719 93.699219 "/>
    <path style=" stroke:none;fill-rule:evenodd;fill:rgb(96.099854%,52.49939%,40.79895%);fill-opacity:1;" d="M 71.851563 93.445313 L 64.976563 93.445313 L 65.664063 93.1875 L 72.523438 93.1875 Z M 15.550781 93.445313 L 12.238281 93.445313 L 12.15625 93.1875 L 15.464844 93.1875 L 15.550781 93.445313 "/>
    <path style=" stroke:none;fill-rule:evenodd;fill:rgb(96.099854%,52.49939%,40.79895%);fill-opacity:1;" d="M 72.523438 93.1875 L 65.664063 93.1875 L 66.355469 92.933594 L 73.195313 92.933594 Z M 15.464844 93.1875 L 12.15625 93.1875 L 12.074219 92.933594 L 15.375 92.933594 L 15.464844 93.1875 "/>
    <path style=" stroke:none;fill-rule:evenodd;fill:rgb(96.099854%,53.29895%,41.598511%);fill-opacity:1;" d="M 73.195313 92.933594 L 66.355469 92.933594 L 67.042969 92.679688 L 73.863281 92.679688 Z M 15.375 92.933594 L 12.074219 92.933594 L 12.035156 92.808594 L 11.996094 92.679688 L 15.289063 92.679688 L 15.375 92.933594 "/>
    <path style=" stroke:none;fill-rule:evenodd;fill:rgb(96.099854%,53.29895%,41.598511%);fill-opacity:1;" d="M 73.863281 92.679688 L 67.042969 92.679688 L 67.789063 92.402344 L 74.589844 92.402344 Z M 15.289063 92.679688 L 11.996094 92.679688 L 11.914063 92.402344 L 15.191406 92.402344 L 15.199219 92.425781 L 15.289063 92.679688 "/>
    <path style=" stroke:none;fill-rule:evenodd;fill:rgb(96.099854%,53.69873%,42.399597%);fill-opacity:1;" d="M 74.589844 92.402344 L 67.789063 92.402344 L 68.480469 92.148438 L 75.261719 92.148438 Z M 15.191406 92.402344 L 11.914063 92.402344 L 11.835938 92.148438 L 15.109375 92.148438 L 15.191406 92.402344 "/>
    <path style=" stroke:none;fill-rule:evenodd;fill:rgb(96.099854%,53.69873%,42.399597%);fill-opacity:1;" d="M 75.261719 92.148438 L 68.480469 92.148438 L 69.167969 91.894531 L 75.929688 91.894531 Z M 15.109375 92.148438 L 11.835938 92.148438 L 11.757813 91.894531 L 15.023438 91.894531 L 15.109375 92.148438 "/>
    <path style=" stroke:none;fill-rule:evenodd;fill:rgb(96.099854%,54.499817%,43.099976%);fill-opacity:1;" d="M 75.929688 91.894531 L 69.167969 91.894531 L 69.859375 91.640625 L 76.601563 91.640625 Z M 15.023438 91.894531 L 11.757813 91.894531 L 11.683594 91.640625 L 14.9375 91.640625 L 15.023438 91.894531 "/>
    <path style=" stroke:none;fill-rule:evenodd;fill:rgb(96.099854%,54.499817%,43.099976%);fill-opacity:1;" d="M 76.601563 91.640625 L 69.859375 91.640625 L 70.550781 91.382813 L 77.273438 91.382813 Z M 14.9375 91.640625 L 11.683594 91.640625 L 11.605469 91.382813 L 14.855469 91.382813 L 14.9375 91.640625 "/>
    <path style=" stroke:none;fill-rule:evenodd;fill:rgb(96.499634%,55.299377%,43.499756%);fill-opacity:1;" d="M 77.273438 91.382813 L 70.550781 91.382813 L 71.238281 91.128906 L 77.941406 91.128906 Z M 14.855469 91.382813 L 11.605469 91.382813 L 11.53125 91.128906 L 14.769531 91.128906 L 14.855469 91.382813 "/>
    <path style=" stroke:none;fill-rule:evenodd;fill:rgb(96.499634%,55.299377%,43.499756%);fill-opacity:1;" d="M 77.941406 91.128906 L 71.238281 91.128906 L 71.929688 90.875 L 78.613281 90.875 Z M 14.769531 91.128906 L 11.53125 91.128906 L 11.453125 90.875 L 14.683594 90.875 L 14.769531 91.128906 "/>
    <path style=" stroke:none;fill-rule:evenodd;fill:rgb(96.499634%,56.098938%,44.299316%);fill-opacity:1;" d="M 78.613281 90.875 L 71.929688 90.875 L 72.617188 90.617188 L 79.28125 90.617188 Z M 14.683594 90.875 L 11.453125 90.875 L 11.375 90.617188 L 14.597656 90.617188 L 14.683594 90.875 "/>
    <path style=" stroke:none;fill-rule:evenodd;fill:rgb(96.499634%,56.098938%,44.299316%);fill-opacity:1;" d="M 79.28125 90.617188 L 72.617188 90.617188 L 73.363281 90.34375 L 80.007813 90.34375 Z M 14.597656 90.617188 L 11.375 90.617188 L 11.292969 90.34375 L 14.507813 90.34375 L 14.597656 90.617188 "/>
    <path style=" stroke:none;fill-rule:evenodd;fill:rgb(96.499634%,56.898499%,45.098877%);fill-opacity:1;" d="M 80.007813 90.34375 L 73.363281 90.34375 L 74.054688 90.089844 L 80.679688 90.089844 Z M 14.507813 90.34375 L 11.292969 90.34375 L 11.214844 90.089844 L 14.421875 90.089844 L 14.507813 90.34375 "/>
    <path style=" stroke:none;fill-rule:evenodd;fill:rgb(96.499634%,56.898499%,45.098877%);fill-opacity:1;" d="M 80.679688 90.089844 L 74.054688 90.089844 L 74.746094 89.832031 L 81.347656 89.832031 Z M 14.421875 90.089844 L 11.214844 90.089844 L 11.140625 89.832031 L 14.339844 89.832031 L 14.421875 90.089844 "/>
    <path style=" stroke:none;fill-rule:evenodd;fill:rgb(96.499634%,57.598877%,45.899963%);fill-opacity:1;" d="M 81.347656 89.832031 L 74.746094 89.832031 L 75.433594 89.578125 L 82.019531 89.578125 Z M 14.339844 89.832031 L 11.140625 89.832031 L 11.0625 89.578125 L 14.253906 89.578125 L 14.339844 89.832031 "/>
    <path style=" stroke:none;fill-rule:evenodd;fill:rgb(96.499634%,57.598877%,45.899963%);fill-opacity:1;" d="M 82.019531 89.578125 L 75.433594 89.578125 L 76.125 89.324219 L 82.691406 89.324219 Z M 14.253906 89.578125 L 11.0625 89.578125 L 10.984375 89.324219 L 14.167969 89.324219 L 14.253906 89.578125 "/>
    <path style=" stroke:none;fill-rule:evenodd;fill:rgb(96.499634%,58.399963%,46.699524%);fill-opacity:1;" d="M 82.691406 89.324219 L 76.125 89.324219 L 76.8125 89.066406 L 83.359375 89.066406 Z M 14.167969 89.324219 L 10.984375 89.324219 L 10.90625 89.066406 L 14.085938 89.066406 L 14.167969 89.324219 "/>
    <path style=" stroke:none;fill-rule:evenodd;fill:rgb(96.899414%,59.599304%,48.199463%);fill-opacity:1;" d="M 83.359375 89.066406 L 76.8125 89.066406 L 77.503906 88.8125 L 84.03125 88.8125 Z M 14.085938 89.066406 L 10.90625 89.066406 L 10.832031 88.8125 L 14 88.8125 L 14.085938 89.066406 "/>
    <path style=" stroke:none;fill-rule:evenodd;fill:rgb(96.899414%,60.398865%,49.398804%);fill-opacity:1;" d="M 84.03125 88.8125 L 77.503906 88.8125 L 78.191406 88.558594 L 84.703125 88.558594 Z M 14 88.8125 L 10.832031 88.8125 L 10.753906 88.558594 L 13.914063 88.558594 L 14 88.8125 "/>
    <path style=" stroke:none;fill-rule:evenodd;fill:rgb(96.899414%,61.199951%,50.19989%);fill-opacity:1;" d="M 84.703125 88.558594 L 78.191406 88.558594 L 78.941406 88.28125 L 85.429688 88.28125 Z M 13.914063 88.558594 L 10.753906 88.558594 L 10.671875 88.28125 L 13.824219 88.28125 L 13.914063 88.558594 "/>
    <path style=" stroke:none;fill-rule:evenodd;fill:rgb(97.299194%,62.69989%,51.799011%);fill-opacity:1;" d="M 85.429688 88.28125 L 78.941406 88.28125 L 79.628906 88.027344 L 86.097656 88.027344 Z M 13.824219 88.28125 L 10.671875 88.28125 L 10.59375 88.027344 L 13.738281 88.027344 L 13.824219 88.28125 "/>
    <path style=" stroke:none;fill-rule:evenodd;fill:rgb(97.299194%,63.499451%,52.49939%);fill-opacity:1;" d="M 86.097656 88.027344 L 79.628906 88.027344 L 80.320313 87.773438 L 86.769531 87.773438 Z M 13.738281 88.027344 L 10.59375 88.027344 L 10.519531 87.773438 L 13.65625 87.773438 L 13.738281 88.027344 "/>
    <path style=" stroke:none;fill-rule:evenodd;fill:rgb(97.299194%,65.098572%,54.499817%);fill-opacity:1;" d="M 86.769531 87.773438 L 80.320313 87.773438 L 81.007813 87.519531 L 87.441406 87.519531 Z M 13.65625 87.773438 L 10.519531 87.773438 L 10.441406 87.519531 L 13.570313 87.519531 L 13.65625 87.773438 "/>
    <path style=" stroke:none;fill-rule:evenodd;fill:rgb(97.299194%,65.899658%,55.299377%);fill-opacity:1;" d="M 87.441406 87.519531 L 81.007813 87.519531 L 81.699219 87.261719 L 88.109375 87.261719 Z M 13.570313 87.519531 L 10.441406 87.519531 L 10.363281 87.261719 L 13.484375 87.261719 L 13.570313 87.519531 "/>
    <path style=" stroke:none;fill-rule:evenodd;fill:rgb(97.599792%,66.699219%,56.098938%);fill-opacity:1;" d="M 88.109375 87.261719 L 81.699219 87.261719 L 82.386719 87.007813 L 88.78125 87.007813 Z M 13.484375 87.261719 L 10.363281 87.261719 L 10.285156 87.007813 L 13.398438 87.007813 L 13.484375 87.261719 "/>
    <path style=" stroke:none;fill-rule:evenodd;fill:rgb(97.599792%,68.199158%,57.998657%);fill-opacity:1;" d="M 88.78125 87.007813 L 82.386719 87.007813 L 83.078125 86.753906 L 89.449219 86.753906 Z M 13.398438 87.007813 L 10.285156 87.007813 L 10.210938 86.753906 L 13.316406 86.753906 L 13.398438 87.007813 "/>
    <path style=" stroke:none;fill-rule:evenodd;fill:rgb(97.599792%,68.998718%,58.799744%);fill-opacity:1;" d="M 89.449219 86.753906 L 83.078125 86.753906 L 83.765625 86.496094 L 90.121094 86.496094 Z M 13.316406 86.753906 L 10.210938 86.753906 L 10.132813 86.496094 L 13.230469 86.496094 L 13.316406 86.753906 "/>
    <path style=" stroke:none;fill-rule:evenodd;fill:rgb(97.599792%,69.799805%,59.999084%);fill-opacity:1;" d="M 90.121094 86.496094 L 83.765625 86.496094 L 84.515625 86.222656 L 90.847656 86.222656 Z M 13.230469 86.496094 L 10.132813 86.496094 L 10.050781 86.222656 L 13.140625 86.222656 L 13.230469 86.496094 "/>
    <path style=" stroke:none;fill-rule:evenodd;fill:rgb(97.999573%,71.398926%,61.999512%);fill-opacity:1;" d="M 90.847656 86.222656 L 84.515625 86.222656 L 85.203125 85.96875 L 91.519531 85.96875 Z M 13.140625 86.222656 L 10.050781 86.222656 L 9.972656 85.96875 L 13.054688 85.96875 L 13.140625 86.222656 "/>
    <path style=" stroke:none;fill-rule:evenodd;fill:rgb(97.999573%,72.198486%,62.69989%);fill-opacity:1;" d="M 91.519531 85.96875 L 85.203125 85.96875 L 85.894531 85.710938 L 92.1875 85.710938 Z M 13.054688 85.96875 L 9.972656 85.96875 L 9.898438 85.710938 L 12.972656 85.710938 L 13.054688 85.96875 "/>
    <path style=" stroke:none;fill-rule:evenodd;fill:rgb(97.999573%,73.699951%,64.698792%);fill-opacity:1;" d="M 92.1875 85.710938 L 85.894531 85.710938 L 86.582031 85.457031 L 92.859375 85.457031 Z M 12.972656 85.710938 L 9.898438 85.710938 L 9.820313 85.457031 L 12.890625 85.457031 L 12.972656 85.710938 "/>
    <path style=" stroke:none;fill-rule:evenodd;fill:rgb(98.399353%,74.499512%,65.899658%);fill-opacity:1;" d="M 92.859375 85.457031 L 86.582031 85.457031 L 87.273438 85.203125 L 93.527344 85.203125 Z M 12.890625 85.457031 L 9.820313 85.457031 L 9.742188 85.203125 L 12.808594 85.203125 L 12.890625 85.457031 "/>
    <path style=" stroke:none;fill-rule:evenodd;fill:rgb(98.399353%,75.299072%,66.699219%);fill-opacity:1;" d="M 93.527344 85.203125 L 87.273438 85.203125 L 87.960938 84.949219 L 94.199219 84.949219 Z M 12.808594 85.203125 L 9.742188 85.203125 L 9.667969 84.949219 L 12.730469 84.949219 L 12.808594 85.203125 "/>
    <path style=" stroke:none;fill-rule:evenodd;fill:rgb(98.399353%,76.899719%,68.598938%);fill-opacity:1;" d="M 94.199219 84.949219 L 87.960938 84.949219 L 88.652344 84.691406 L 94.871094 84.691406 Z M 12.730469 84.949219 L 9.667969 84.949219 L 9.589844 84.691406 L 12.648438 84.691406 L 12.730469 84.949219 "/>
    <path style=" stroke:none;fill-rule:evenodd;fill:rgb(98.399353%,77.598572%,69.799805%);fill-opacity:1;" d="M 94.871094 84.691406 L 88.652344 84.691406 L 89.34375 84.4375 L 95.539063 84.4375 Z M 12.648438 84.691406 L 9.589844 84.691406 L 9.511719 84.4375 L 12.566406 84.4375 L 12.648438 84.691406 "/>
    <path style=" stroke:none;fill-rule:evenodd;fill:rgb(98.399353%,78.399658%,70.599365%);fill-opacity:1;" d="M 95.539063 84.4375 L 89.34375 84.4375 L 90.089844 84.160156 L 96.265625 84.160156 Z M 12.566406 84.4375 L 9.511719 84.4375 L 9.429688 84.160156 L 12.476563 84.160156 L 12.566406 84.4375 "/>
    <path style=" stroke:none;fill-rule:evenodd;fill:rgb(98.799133%,79.998779%,72.499084%);fill-opacity:1;" d="M 96.265625 84.160156 L 90.089844 84.160156 L 90.777344 83.90625 L 96.9375 83.90625 Z M 12.476563 84.160156 L 9.429688 84.160156 L 9.351563 83.90625 L 12.398438 83.90625 L 12.476563 84.160156 "/>
    <path style=" stroke:none;fill-rule:evenodd;fill:rgb(98.799133%,80.799866%,73.699951%);fill-opacity:1;" d="M 96.9375 83.90625 L 90.777344 83.90625 L 91.46875 83.652344 L 97.605469 83.652344 Z M 12.398438 83.90625 L 9.351563 83.90625 L 9.277344 83.652344 L 12.316406 83.652344 L 12.398438 83.90625 "/>
    <path style=" stroke:none;fill-rule:evenodd;fill:rgb(98.799133%,82.699585%,75.698853%);fill-opacity:1;" d="M 97.605469 83.652344 L 91.46875 83.652344 L 92.15625 83.398438 L 98.277344 83.398438 Z M 12.316406 83.652344 L 9.277344 83.652344 L 9.199219 83.398438 L 12.234375 83.398438 L 12.316406 83.652344 "/>
    <path style=" stroke:none;fill-rule:evenodd;fill:rgb(99.198914%,83.499146%,76.899719%);fill-opacity:1;" d="M 98.277344 83.398438 L 92.15625 83.398438 L 92.847656 83.140625 L 98.949219 83.140625 Z M 12.234375 83.398438 L 9.199219 83.398438 L 9.121094 83.140625 L 12.152344 83.140625 L 12.234375 83.398438 "/>
    <path style=" stroke:none;fill-rule:evenodd;fill:rgb(99.198914%,84.298706%,77.999878%);fill-opacity:1;" d="M 98.949219 83.140625 L 92.847656 83.140625 L 93.535156 82.886719 L 99.617188 82.886719 Z M 12.152344 83.140625 L 9.121094 83.140625 L 9.046875 82.886719 L 12.070313 82.886719 L 12.152344 83.140625 "/>
    <path style=" stroke:none;fill-rule:evenodd;fill:rgb(99.198914%,85.899353%,79.998779%);fill-opacity:1;" d="M 99.617188 82.886719 L 93.535156 82.886719 L 94.226563 82.632813 L 100.289063 82.632813 Z M 12.070313 82.886719 L 9.046875 82.886719 L 8.96875 82.632813 L 11.992188 82.632813 L 12.070313 82.886719 "/>
    <path style=" stroke:none;fill-rule:evenodd;fill:rgb(99.198914%,86.698914%,81.199646%);fill-opacity:1;" d="M 100.289063 82.632813 L 94.226563 82.632813 L 94.917969 82.378906 L 100.695313 82.378906 L 100.734375 82.460938 Z M 11.992188 82.632813 L 8.96875 82.632813 L 8.890625 82.378906 L 11.910156 82.378906 L 11.992188 82.632813 "/>
    <path style=" stroke:none;fill-rule:evenodd;fill:rgb(99.198914%,87.5%,81.999207%);fill-opacity:1;" d="M 100.695313 82.378906 L 94.917969 82.378906 L 95.664063 82.101563 L 100.558594 82.101563 Z M 11.910156 82.378906 L 8.890625 82.378906 L 8.808594 82.101563 L 11.820313 82.101563 L 11.910156 82.378906 "/>
    <path style=" stroke:none;fill-rule:evenodd;fill:rgb(99.198914%,88.198853%,83.099365%);fill-opacity:1;" d="M 100.558594 82.101563 L 95.664063 82.101563 L 96.351563 81.847656 L 100.429688 81.847656 Z M 11.820313 82.101563 L 8.808594 82.101563 L 8.761719 81.953125 L 9.445313 81.847656 L 11.738281 81.847656 L 11.820313 82.101563 "/>
    <path style=" stroke:none;fill-rule:evenodd;fill:rgb(99.598694%,89.7995%,85.499573%);fill-opacity:1;" d="M 100.429688 81.847656 L 96.351563 81.847656 L 97.042969 81.59375 L 100.304688 81.59375 Z M 11.738281 81.847656 L 9.445313 81.847656 L 11.085938 81.59375 L 11.65625 81.59375 L 11.738281 81.847656 "/>
    <path style=" stroke:none;fill-rule:evenodd;fill:rgb(99.598694%,89.7995%,85.499573%);fill-opacity:1;" d="M 100.304688 81.59375 L 97.042969 81.59375 L 97.730469 81.335938 L 100.179688 81.335938 Z M 11.65625 81.59375 L 11.085938 81.59375 L 11.632813 81.507813 Z M 11.65625 81.59375 "/>
    <path style=" stroke:none;fill-rule:evenodd;fill:rgb(99.598694%,92.89856%,90.19928%);fill-opacity:1;" d="M 100.179688 81.335938 L 97.730469 81.335938 L 98.421875 81.082031 L 100.054688 81.082031 L 100.179688 81.335938 "/>
    <path style=" stroke:none;fill-rule:evenodd;fill:rgb(100%,95.698547%,93.699646%);fill-opacity:1;" d="M 100.054688 81.082031 L 98.421875 81.082031 L 99.113281 80.828125 L 99.925781 80.828125 L 100.054688 81.082031 "/>
    <path style=" stroke:none;fill-rule:evenodd;fill:rgb(100%,100%,100%);fill-opacity:1;" d="M 99.925781 80.828125 L 99.113281 80.828125 L 99.800781 80.570313 Z M 99.925781 80.828125 "/>
    <path style=" stroke:none;fill-rule:evenodd;fill:rgb(13.699341%,12.199402%,12.5%);fill-opacity:1;" d="M 89.246094 92.679688 L 94.574219 92.679688 L 95.722656 100.304688 L 99.121094 92.679688 L 104.28125 92.679688 L 97.953125 106.71875 L 91.644531 106.71875 L 89.246094 92.679688 "/>
    <path style=" stroke:none;fill-rule:evenodd;fill:rgb(13.699341%,12.199402%,12.5%);fill-opacity:1;" d="M 118.9375 101.027344 L 108.699219 101.027344 C 108.722656 101.898438 108.890625 102.535156 109.210938 102.960938 C 109.65625 103.574219 110.292969 103.875 111.078125 103.875 C 111.589844 103.875 112.078125 103.746094 112.546875 103.46875 C 112.84375 103.300781 113.140625 103.023438 113.503906 102.597656 L 118.703125 102.554688 C 117.835938 103.980469 116.625 105.507813 115.496094 106.101563 C 114.351563 106.71875 112.777344 107.015625 110.738281 107.015625 C 108.976563 107.015625 107.617188 106.761719 106.640625 106.230469 C 105.664063 105.722656 104.878906 104.894531 104.304688 103.746094 C 103.710938 102.597656 103.476563 101.261719 103.582031 99.730469 C 103.753906 97.523438 104.539063 95.757813 105.980469 94.398438 C 107.40625 93.039063 109.296875 92.359375 111.652344 92.359375 C 113.566406 92.359375 115.050781 92.679688 116.113281 93.273438 C 117.15625 93.890625 117.941406 94.761719 118.429688 95.90625 C 118.9375 97.078125 119.109375 98.5625 118.980469 100.410156 Z M 113.925781 98.457031 C 113.90625 97.414063 113.691406 96.671875 113.289063 96.226563 C 112.886719 95.78125 112.332031 95.546875 111.632813 95.546875 C 110.824219 95.546875 110.144531 95.886719 109.613281 96.566406 C 109.273438 96.992188 109.039063 97.605469 108.890625 98.457031 L 113.925781 98.457031 "/>
    <path style=" stroke:none;fill-rule:evenodd;fill:rgb(13.699341%,12.199402%,12.5%);fill-opacity:1;" d="M 122.125 92.679688 L 127.117188 92.679688 L 126.796875 94.972656 C 127.414063 93.996094 128.007813 93.296875 128.582031 92.933594 C 129.132813 92.550781 129.792969 92.359375 130.558594 92.359375 C 131.34375 92.359375 130.875 91.894531 131.726563 92.382813 L 130.941406 97.671875 C 130.34375 97.394531 129.855469 97.269531 129.496094 97.269531 C 128.796875 97.269531 128.222656 97.566406 127.753906 98.136719 C 127.09375 98.945313 126.523438 99.773438 126.203125 102.003906 L 125.566406 106.71875 L 120.214844 106.71875 L 122.125 92.679688 "/>
    <path style=" stroke:none;fill-rule:evenodd;fill:rgb(13.699341%,12.199402%,12.5%);fill-opacity:1;" d="M 133.339844 92.679688 L 138.925781 92.679688 L 136.609375 106.71875 L 131.046875 106.71875 L 133.339844 92.679688 "/>
    <path style=" stroke:none;fill-rule:evenodd;fill:rgb(13.699341%,12.199402%,12.5%);fill-opacity:1;" d="M 134.210938 86.964844 L 139.796875 86.964844 L 139.203125 90.640625 L 133.617188 90.640625 L 134.210938 86.964844 "/>
    <path style=" stroke:none;fill-rule:evenodd;fill:rgb(13.699341%,12.199402%,12.5%);fill-opacity:1;" d="M 152.4375 99.730469 C 152.710938 97.605469 153.667969 95.824219 155.324219 94.441406 C 156.980469 93.0625 159.0625 92.359375 161.570313 92.359375 C 164.4375 92.359375 166.496094 93.1875 167.75 94.804688 C 168.769531 96.121094 169.152344 97.734375 168.898438 99.667969 C 168.621094 101.8125 167.664063 103.574219 166.007813 104.957031 C 164.371094 106.335938 162.269531 107.015625 159.679688 107.015625 C 157.382813 107.015625 155.601563 106.445313 154.324219 105.316406 C 152.753906 103.894531 152.136719 102.027344 152.4375 99.730469 Z M 158.105469 99.730469 C 158 100.984375 158.191406 101.898438 158.617188 102.492188 C 159.0625 103.085938 159.636719 103.40625 160.378906 103.40625 C 161.101563 103.40625 161.738281 103.109375 162.246094 102.515625 C 162.757813 101.917969 163.078125 100.984375 163.160156 99.667969 C 163.246094 98.457031 163.078125 97.542969 162.652344 96.949219 C 162.207031 96.355469 161.632813 96.054688 160.933594 96.054688 C 160.1875 96.054688 159.550781 96.375 159.019531 96.96875 C 158.511719 97.566406 158.191406 98.5 158.105469 99.730469 "/>
    <path style=" stroke:none;fill-rule:evenodd;fill:rgb(13.699341%,12.199402%,12.5%);fill-opacity:1;" d="M 170.957031 92.765625 L 175.714844 92.765625 L 175.4375 95.058594 C 176.269531 94.125 177.074219 93.464844 177.839844 93.0625 C 178.625 92.65625 179.539063 92.445313 180.578125 92.445313 C 181.980469 92.445313 183.042969 92.890625 183.742188 93.785156 C 184.425781 94.65625 184.65625 96.035156 184.425781 97.882813 L 183.320313 106.804688 L 178.199219 106.804688 L 179.136719 99.074219 C 179.261719 98.203125 179.175781 97.585938 178.902344 97.226563 C 178.644531 96.84375 178.242188 96.671875 177.667969 96.671875 C 177.054688 96.671875 176.523438 96.90625 176.074219 97.394531 C 175.628906 97.90625 175.332031 98.777344 175.164063 100.050781 L 174.335938 106.804688 L 169.238281 106.804688 L 170.957031 92.765625 "/>
    <path style=" stroke:none;fill-rule:evenodd;fill:rgb(93.299866%,14.498901%,14.898682%);fill-opacity:1;" d="M 140.578125 92.679688 L 140.265625 92.796875 L 140.285156 92.679688 Z M 140.578125 92.679688 "/>
    <path style=" stroke:none;fill-rule:evenodd;fill:rgb(93.299866%,14.498901%,14.898682%);fill-opacity:1;" d="M 140.265625 92.796875 L 140.578125 92.679688 L 141.308594 92.679688 L 140.21875 93.085938 L 140.265625 92.796875 "/>
    <path style=" stroke:none;fill-rule:evenodd;fill:rgb(93.299866%,14.498901%,14.898682%);fill-opacity:1;" d="M 140.21875 93.085938 L 141.308594 92.679688 L 142.058594 92.679688 L 140.167969 93.386719 L 140.21875 93.085938 "/>
    <path style=" stroke:none;fill-rule:evenodd;fill:rgb(93.299866%,14.498901%,14.898682%);fill-opacity:1;" d="M 140.167969 93.386719 L 142.058594 92.679688 L 142.765625 92.679688 L 140.121094 93.671875 L 140.167969 93.386719 "/>
    <path style=" stroke:none;fill-rule:evenodd;fill:rgb(93.299866%,16.099548%,15.299988%);fill-opacity:1;" d="M 140.121094 93.671875 L 142.765625 92.679688 L 143.503906 92.679688 L 140.074219 93.964844 L 140.121094 93.671875 "/>
    <path style=" stroke:none;fill-rule:evenodd;fill:rgb(93.299866%,16.099548%,15.299988%);fill-opacity:1;" d="M 140.074219 93.964844 L 143.503906 92.679688 L 144.257813 92.679688 L 140.023438 94.269531 L 140.074219 93.964844 "/>
    <path style=" stroke:none;fill-rule:evenodd;fill:rgb(93.299866%,17.599487%,15.699768%);fill-opacity:1;" d="M 140.023438 94.269531 L 144.257813 92.679688 L 144.964844 92.679688 L 139.976563 94.550781 L 140.023438 94.269531 "/>
    <path style=" stroke:none;fill-rule:evenodd;fill:rgb(93.299866%,17.599487%,15.699768%);fill-opacity:1;" d="M 139.976563 94.550781 L 144.964844 92.679688 L 145.691406 92.679688 L 139.929688 94.839844 L 139.976563 94.550781 "/>
    <path style=" stroke:none;fill-rule:evenodd;fill:rgb(93.299866%,17.599487%,15.699768%);fill-opacity:1;" d="M 139.929688 94.839844 L 145.691406 92.679688 L 146.4375 92.679688 L 139.878906 95.140625 L 139.929688 94.839844 "/>
    <path style=" stroke:none;fill-rule:evenodd;fill:rgb(93.299866%,19.198608%,16.099548%);fill-opacity:1;" d="M 139.878906 95.140625 L 146.4375 92.679688 L 147.160156 92.679688 L 139.832031 95.429688 L 139.878906 95.140625 "/>
    <path style=" stroke:none;fill-rule:evenodd;fill:rgb(93.299866%,19.198608%,16.099548%);fill-opacity:1;" d="M 139.832031 95.429688 L 147.160156 92.679688 L 147.898438 92.679688 L 139.785156 95.71875 L 139.832031 95.429688 "/>
    <path style=" stroke:none;fill-rule:evenodd;fill:rgb(93.299866%,19.198608%,16.099548%);fill-opacity:1;" d="M 139.785156 95.71875 L 147.898438 92.679688 L 148.640625 92.679688 L 139.734375 96.019531 L 139.785156 95.71875 "/>
    <path style=" stroke:none;fill-rule:evenodd;fill:rgb(93.299866%,20.399475%,16.499329%);fill-opacity:1;" d="M 139.734375 96.019531 L 148.640625 92.679688 L 149.347656 92.679688 L 139.6875 96.300781 L 139.734375 96.019531 "/>
    <path style=" stroke:none;fill-rule:evenodd;fill:rgb(93.299866%,20.399475%,16.499329%);fill-opacity:1;" d="M 139.6875 96.300781 L 149.347656 92.679688 L 150.089844 92.679688 L 139.777344 96.546875 L 139.648438 96.546875 L 139.6875 96.300781 "/>
    <path style=" stroke:none;fill-rule:evenodd;fill:rgb(93.699646%,21.998596%,17.298889%);fill-opacity:1;" d="M 139.777344 96.546875 L 150.089844 92.679688 L 150.839844 92.679688 L 140.535156 96.546875 L 139.777344 96.546875 "/>
    <path style=" stroke:none;fill-rule:evenodd;fill:rgb(93.699646%,21.998596%,17.298889%);fill-opacity:1;" d="M 140.535156 96.546875 L 150.839844 92.679688 L 151.546875 92.679688 L 141.242188 96.546875 L 140.535156 96.546875 "/>
    <path style=" stroke:none;fill-rule:evenodd;fill:rgb(93.699646%,21.998596%,17.298889%);fill-opacity:1;" d="M 141.242188 96.546875 L 151.546875 92.679688 L 152.28125 92.679688 L 141.964844 96.546875 L 141.242188 96.546875 "/>
    <path style=" stroke:none;fill-rule:evenodd;fill:rgb(93.699646%,21.998596%,17.298889%);fill-opacity:1;" d="M 141.964844 96.546875 L 152.28125 92.679688 L 153.03125 92.679688 L 142.730469 96.546875 L 141.964844 96.546875 "/>
    <path style=" stroke:none;fill-rule:evenodd;fill:rgb(93.699646%,23.098755%,17.599487%);fill-opacity:1;" d="M 142.730469 96.546875 L 153.03125 92.679688 L 153.328125 92.679688 L 153.316406 92.84375 L 143.445313 96.546875 L 142.730469 96.546875 "/>
    <path style=" stroke:none;fill-rule:evenodd;fill:rgb(93.699646%,23.098755%,17.599487%);fill-opacity:1;" d="M 143.445313 96.546875 L 153.316406 92.84375 L 153.296875 93.113281 L 144.152344 96.546875 L 143.445313 96.546875 "/>
    <path style=" stroke:none;fill-rule:evenodd;fill:rgb(93.699646%,24.299622%,17.999268%);fill-opacity:1;" d="M 144.152344 96.546875 L 153.296875 93.113281 L 153.277344 93.398438 L 144.878906 96.546875 L 144.152344 96.546875 "/>
    <path style=" stroke:none;fill-rule:evenodd;fill:rgb(93.699646%,24.299622%,17.999268%);fill-opacity:1;" d="M 144.878906 96.546875 L 153.277344 93.398438 L 153.257813 93.6875 L 145.640625 96.546875 L 144.878906 96.546875 "/>
    <path style=" stroke:none;fill-rule:evenodd;fill:rgb(93.699646%,24.299622%,17.999268%);fill-opacity:1;" d="M 145.640625 96.546875 L 153.257813 93.6875 L 153.238281 93.960938 L 146.164063 96.617188 L 146.210938 96.546875 L 145.640625 96.546875 "/>
    <path style=" stroke:none;fill-rule:evenodd;fill:rgb(93.699646%,25.498962%,18.798828%);fill-opacity:1;" d="M 146.164063 96.617188 L 153.238281 93.960938 L 153.21875 94.246094 L 145.917969 96.980469 L 146.164063 96.617188 "/>
    <path style=" stroke:none;fill-rule:evenodd;fill:rgb(93.699646%,25.498962%,18.798828%);fill-opacity:1;" d="M 145.917969 96.980469 L 153.21875 94.246094 L 153.195313 94.53125 L 145.664063 97.355469 L 145.917969 96.980469 "/>
    <path style=" stroke:none;fill-rule:evenodd;fill:rgb(93.699646%,26.699829%,19.198608%);fill-opacity:1;" d="M 145.664063 97.355469 L 153.195313 94.53125 L 153.179688 94.808594 L 145.421875 97.71875 L 145.664063 97.355469 "/>
    <path style=" stroke:none;fill-rule:evenodd;fill:rgb(93.699646%,26.699829%,19.198608%);fill-opacity:1;" d="M 145.421875 97.71875 L 153.179688 94.808594 L 153.15625 95.09375 L 145.175781 98.085938 L 145.421875 97.71875 "/>
    <path style=" stroke:none;fill-rule:evenodd;fill:rgb(93.699646%,26.699829%,19.198608%);fill-opacity:1;" d="M 145.175781 98.085938 L 153.15625 95.09375 L 153.136719 95.378906 L 144.921875 98.460938 L 145.175781 98.085938 "/>
    <path style=" stroke:none;fill-rule:evenodd;fill:rgb(93.699646%,27.49939%,19.999695%);fill-opacity:1;" d="M 144.921875 98.460938 L 153.136719 95.378906 L 153.117188 95.652344 L 144.679688 98.816406 L 144.921875 98.460938 "/>
    <path style=" stroke:none;fill-rule:evenodd;fill:rgb(93.699646%,27.49939%,19.999695%);fill-opacity:1;" d="M 144.679688 98.816406 L 153.117188 95.652344 L 153.097656 95.9375 L 144.429688 99.1875 L 144.679688 98.816406 "/>
    <path style=" stroke:none;fill-rule:evenodd;fill:rgb(93.699646%,27.49939%,19.999695%);fill-opacity:1;" d="M 144.429688 99.1875 L 153.097656 95.9375 L 153.09375 95.992188 L 152.882813 96.300781 L 144.175781 99.566406 L 144.429688 99.1875 "/>
    <path style=" stroke:none;fill-rule:evenodd;fill:rgb(94.099426%,28.599548%,20.399475%);fill-opacity:1;" d="M 144.175781 99.566406 L 152.882813 96.300781 L 152.636719 96.65625 L 143.9375 99.921875 L 144.175781 99.566406 "/>
    <path style=" stroke:none;fill-rule:evenodd;fill:rgb(94.099426%,28.599548%,20.399475%);fill-opacity:1;" d="M 143.9375 99.921875 L 152.636719 96.65625 L 152.382813 97.027344 L 143.691406 100.285156 L 143.9375 99.921875 "/>
    <path style=" stroke:none;fill-rule:evenodd;fill:rgb(94.099426%,28.599548%,20.399475%);fill-opacity:1;" d="M 143.691406 100.285156 L 152.382813 97.027344 L 152.121094 97.40625 L 143.433594 100.667969 L 143.691406 100.285156 "/>
    <path style=" stroke:none;fill-rule:evenodd;fill:rgb(94.099426%,29.798889%,20.799255%);fill-opacity:1;" d="M 143.433594 100.667969 L 152.121094 97.40625 L 151.875 97.769531 L 143.191406 101.027344 L 143.433594 100.667969 "/>
    <path style=" stroke:none;fill-rule:evenodd;fill:rgb(94.099426%,29.798889%,20.799255%);fill-opacity:1;" d="M 143.191406 101.027344 L 151.875 97.769531 L 151.621094 98.140625 L 142.945313 101.390625 L 143.191406 101.027344 "/>
    <path style=" stroke:none;fill-rule:evenodd;fill:rgb(94.099426%,30.599976%,21.598816%);fill-opacity:1;" d="M 142.945313 101.390625 L 151.621094 98.140625 L 151.363281 98.511719 L 142.691406 101.765625 L 142.945313 101.390625 "/>
    <path style=" stroke:none;fill-rule:evenodd;fill:rgb(94.099426%,30.599976%,21.598816%);fill-opacity:1;" d="M 142.691406 101.765625 L 151.363281 98.511719 L 151.113281 98.875 L 142.449219 102.128906 L 142.691406 101.765625 "/>
    <path style=" stroke:none;fill-rule:evenodd;fill:rgb(94.099426%,30.599976%,21.598816%);fill-opacity:1;" d="M 142.449219 102.128906 L 151.113281 98.875 L 150.867188 99.238281 L 142.207031 102.488281 L 142.449219 102.128906 "/>
    <path style=" stroke:none;fill-rule:evenodd;fill:rgb(94.099426%,31.799316%,22.399902%);fill-opacity:1;" d="M 142.207031 102.488281 L 150.867188 99.238281 L 150.601563 99.625 L 141.949219 102.871094 L 142.207031 102.488281 "/>
    <path style=" stroke:none;fill-rule:evenodd;fill:rgb(94.099426%,31.799316%,22.399902%);fill-opacity:1;" d="M 141.949219 102.871094 L 150.601563 99.625 L 150.355469 99.980469 L 141.707031 103.226563 L 141.949219 102.871094 "/>
    <path style=" stroke:none;fill-rule:evenodd;fill:rgb(94.099426%,31.799316%,22.399902%);fill-opacity:1;" d="M 141.707031 103.226563 L 150.355469 99.980469 L 150.105469 100.347656 L 141.464844 103.589844 L 141.707031 103.226563 "/>
    <path style=" stroke:none;fill-rule:evenodd;fill:rgb(94.099426%,32.499695%,23.098755%);fill-opacity:1;" d="M 141.464844 103.589844 L 150.105469 100.347656 L 149.851563 100.71875 L 141.21875 103.953125 L 141.464844 103.589844 "/>
    <path style=" stroke:none;fill-rule:evenodd;fill:rgb(94.099426%,32.499695%,23.098755%);fill-opacity:1;" d="M 141.21875 103.953125 L 149.851563 100.71875 L 149.589844 101.09375 L 140.964844 104.332031 L 141.21875 103.953125 "/>
    <path style=" stroke:none;fill-rule:evenodd;fill:rgb(94.099426%,32.499695%,23.098755%);fill-opacity:1;" d="M 140.964844 104.332031 L 149.589844 101.09375 L 149.347656 101.453125 L 140.722656 104.6875 L 140.964844 104.332031 "/>
    <path style=" stroke:none;fill-rule:evenodd;fill:rgb(94.499207%,33.699036%,23.498535%);fill-opacity:1;" d="M 140.722656 104.6875 L 149.347656 101.453125 L 149.089844 101.828125 L 140.476563 105.054688 L 140.722656 104.6875 "/>
    <path style=" stroke:none;fill-rule:evenodd;fill:rgb(94.499207%,33.699036%,23.498535%);fill-opacity:1;" d="M 140.476563 105.054688 L 149.089844 101.828125 L 148.828125 102.207031 L 140.21875 105.4375 L 140.476563 105.054688 "/>
    <path style=" stroke:none;fill-rule:evenodd;fill:rgb(94.499207%,33.699036%,23.498535%);fill-opacity:1;" d="M 140.21875 105.4375 L 148.828125 102.207031 L 148.582031 102.566406 L 139.980469 105.792969 L 140.21875 105.4375 "/>
    <path style=" stroke:none;fill-rule:evenodd;fill:rgb(94.499207%,34.498596%,24.299622%);fill-opacity:1;" d="M 139.980469 105.792969 L 148.582031 102.566406 L 148.332031 102.929688 L 139.738281 106.152344 L 139.980469 105.792969 "/>
    <path style=" stroke:none;fill-rule:evenodd;fill:rgb(94.499207%,34.498596%,24.299622%);fill-opacity:1;" d="M 139.738281 106.152344 L 148.332031 102.929688 L 148.066406 103.316406 L 139.472656 106.542969 L 139.738281 106.152344 "/>
    <path style=" stroke:none;fill-rule:evenodd;fill:rgb(94.499207%,35.299683%,25.099182%);fill-opacity:1;" d="M 139.472656 106.542969 L 148.066406 103.316406 L 147.820313 103.675781 L 139.234375 106.898438 L 139.472656 106.542969 "/>
    <path style=" stroke:none;fill-rule:evenodd;fill:rgb(94.499207%,35.299683%,25.099182%);fill-opacity:1;" d="M 139.234375 106.898438 L 147.820313 103.675781 L 147.566406 104.042969 L 138.992188 107.257813 L 139.234375 106.898438 "/>
    <path style=" stroke:none;fill-rule:evenodd;fill:rgb(94.499207%,35.299683%,25.099182%);fill-opacity:1;" d="M 138.992188 107.257813 L 147.566406 104.042969 L 147.308594 104.421875 L 138.734375 107.636719 L 138.992188 107.257813 "/>
    <path style=" stroke:none;fill-rule:evenodd;fill:rgb(94.499207%,36.499023%,25.898743%);fill-opacity:1;" d="M 138.734375 107.636719 L 147.308594 104.421875 L 147.058594 104.785156 L 138.488281 108.003906 L 138.734375 107.636719 "/>
    <path style=" stroke:none;fill-rule:evenodd;fill:rgb(94.499207%,36.499023%,25.898743%);fill-opacity:1;" d="M 138.488281 108.003906 L 147.058594 104.785156 L 146.804688 105.15625 L 138.246094 108.359375 L 138.488281 108.003906 "/>
    <path style=" stroke:none;fill-rule:evenodd;fill:rgb(94.499207%,37.298584%,26.699829%);fill-opacity:1;" d="M 138.246094 108.359375 L 146.804688 105.15625 L 146.546875 105.53125 L 137.992188 108.742188 L 138.246094 108.359375 "/>
    <path style=" stroke:none;fill-rule:evenodd;fill:rgb(94.499207%,37.298584%,26.699829%);fill-opacity:1;" d="M 137.992188 108.742188 L 146.546875 105.53125 L 146.300781 105.890625 L 137.777344 109.089844 L 137.777344 109.054688 L 137.992188 108.742188 "/>
    <path style=" stroke:none;fill-rule:evenodd;fill:rgb(94.499207%,37.298584%,26.699829%);fill-opacity:1;" d="M 137.777344 109.089844 L 146.300781 105.890625 L 146.042969 106.265625 L 137.757813 109.371094 L 137.777344 109.089844 "/>
    <path style=" stroke:none;fill-rule:evenodd;fill:rgb(94.499207%,37.298584%,26.699829%);fill-opacity:1;" d="M 137.757813 109.371094 L 146.042969 106.265625 L 145.78125 106.644531 L 137.734375 109.664063 L 137.757813 109.371094 "/>
    <path style=" stroke:none;fill-rule:evenodd;fill:rgb(94.499207%,37.998962%,27.099609%);fill-opacity:1;" d="M 137.734375 109.664063 L 145.78125 106.644531 L 145.535156 107.003906 L 137.714844 109.9375 L 137.734375 109.664063 "/>
    <path style=" stroke:none;fill-rule:evenodd;fill:rgb(94.499207%,37.998962%,27.099609%);fill-opacity:1;" d="M 137.714844 109.9375 L 145.535156 107.003906 L 145.289063 107.359375 L 137.691406 110.210938 L 137.714844 109.9375 "/>
    <path style=" stroke:none;fill-rule:evenodd;fill:rgb(94.898987%,39.199829%,27.799988%);fill-opacity:1;" d="M 137.691406 110.210938 L 145.289063 107.359375 L 145.039063 107.722656 L 137.671875 110.484375 L 137.691406 110.210938 "/>
    <path style=" stroke:none;fill-rule:evenodd;fill:rgb(94.898987%,39.199829%,27.799988%);fill-opacity:1;" d="M 137.671875 110.484375 L 145.039063 107.722656 L 144.773438 108.113281 L 137.648438 110.785156 L 137.671875 110.484375 "/>
    <path style=" stroke:none;fill-rule:evenodd;fill:rgb(94.898987%,39.199829%,27.799988%);fill-opacity:1;" d="M 137.648438 110.785156 L 144.773438 108.113281 L 144.527344 108.472656 L 137.628906 111.0625 L 137.648438 110.785156 "/>
    <path style=" stroke:none;fill-rule:evenodd;fill:rgb(94.898987%,39.99939%,28.599548%);fill-opacity:1;" d="M 137.628906 111.0625 L 144.527344 108.472656 L 144.277344 108.835938 L 137.609375 111.335938 L 137.628906 111.0625 "/>
    <path style=" stroke:none;fill-rule:evenodd;fill:rgb(94.898987%,39.99939%,28.599548%);fill-opacity:1;" d="M 137.609375 111.335938 L 144.277344 108.835938 L 144.257813 108.863281 L 144.953125 108.863281 L 137.585938 111.628906 L 137.609375 111.335938 "/>
    <path style=" stroke:none;fill-rule:evenodd;fill:rgb(94.898987%,39.99939%,28.599548%);fill-opacity:1;" d="M 137.585938 111.628906 L 144.953125 108.863281 L 145.679688 108.863281 L 137.566406 111.910156 L 137.585938 111.628906 "/>
    <path style=" stroke:none;fill-rule:evenodd;fill:rgb(94.898987%,40.79895%,29.399109%);fill-opacity:1;" d="M 137.566406 111.910156 L 145.679688 108.863281 L 146.40625 108.863281 L 137.542969 112.183594 L 137.566406 111.910156 "/>
    <path style=" stroke:none;fill-rule:evenodd;fill:rgb(94.898987%,40.79895%,29.399109%);fill-opacity:1;" d="M 137.542969 112.183594 L 146.40625 108.863281 L 147.15625 108.863281 L 137.523438 112.480469 L 137.542969 112.183594 "/>
    <path style=" stroke:none;fill-rule:evenodd;fill:rgb(94.898987%,41.598511%,30.198669%);fill-opacity:1;" d="M 137.523438 112.480469 L 147.15625 108.863281 L 147.863281 108.863281 L 137.558594 112.730469 L 137.503906 112.730469 L 137.523438 112.480469 "/>
    <path style=" stroke:none;fill-rule:evenodd;fill:rgb(94.898987%,41.598511%,30.198669%);fill-opacity:1;" d="M 137.558594 112.730469 L 147.863281 108.863281 L 148.601563 108.863281 L 138.289063 112.730469 L 137.558594 112.730469 "/>
    <path style=" stroke:none;fill-rule:evenodd;fill:rgb(94.898987%,41.598511%,30.198669%);fill-opacity:1;" d="M 138.289063 112.730469 L 148.601563 108.863281 L 149.355469 108.863281 L 139.050781 112.730469 L 138.289063 112.730469 "/>
    <path style=" stroke:none;fill-rule:evenodd;fill:rgb(94.898987%,41.598511%,30.198669%);fill-opacity:1;" d="M 139.050781 112.730469 L 149.355469 108.863281 L 150.0625 108.863281 L 139.761719 112.730469 L 139.050781 112.730469 "/>
    <path style=" stroke:none;fill-rule:evenodd;fill:rgb(94.898987%,42.399597%,30.999756%);fill-opacity:1;" d="M 139.761719 112.730469 L 150.0625 108.863281 L 150.789063 108.863281 L 140.472656 112.730469 L 139.761719 112.730469 "/>
    <path style=" stroke:none;fill-rule:evenodd;fill:rgb(94.898987%,42.399597%,30.999756%);fill-opacity:1;" d="M 140.472656 112.730469 L 150.789063 108.863281 L 151.550781 108.863281 L 141.25 112.730469 L 140.472656 112.730469 "/>
    <path style=" stroke:none;fill-rule:evenodd;fill:rgb(95.298767%,43.099976%,31.799316%);fill-opacity:1;" d="M 141.25 112.730469 L 151.550781 108.863281 L 152.265625 108.863281 L 141.960938 112.730469 L 141.25 112.730469 "/>
    <path style=" stroke:none;fill-rule:evenodd;fill:rgb(95.298767%,43.099976%,31.799316%);fill-opacity:1;" d="M 141.960938 112.730469 L 152.265625 108.863281 L 152.992188 108.863281 L 142.675781 112.730469 L 141.960938 112.730469 "/>
    <path style=" stroke:none;fill-rule:evenodd;fill:rgb(95.298767%,43.099976%,31.799316%);fill-opacity:1;" d="M 142.675781 112.730469 L 152.992188 108.863281 L 153.738281 108.863281 L 143.433594 112.730469 L 142.675781 112.730469 "/>
    <path style=" stroke:none;fill-rule:evenodd;fill:rgb(95.298767%,43.899536%,32.499695%);fill-opacity:1;" d="M 143.433594 112.730469 L 153.738281 108.863281 L 154.457031 108.863281 L 144.160156 112.730469 L 143.433594 112.730469 "/>
    <path style=" stroke:none;fill-rule:evenodd;fill:rgb(95.298767%,43.899536%,32.499695%);fill-opacity:1;" d="M 144.160156 112.730469 L 154.457031 108.863281 L 155.195313 108.863281 L 144.878906 112.730469 L 144.160156 112.730469 "/>
    <path style=" stroke:none;fill-rule:evenodd;fill:rgb(95.298767%,44.699097%,33.299255%);fill-opacity:1;" d="M 144.878906 112.730469 L 155.195313 108.863281 L 155.9375 108.863281 L 145.632813 112.730469 L 144.878906 112.730469 "/>
    <path style=" stroke:none;fill-rule:evenodd;fill:rgb(95.298767%,44.699097%,33.299255%);fill-opacity:1;" d="M 145.632813 112.730469 L 155.9375 108.863281 L 156.644531 108.863281 L 146.34375 112.730469 L 145.632813 112.730469 "/>
    <path style=" stroke:none;fill-rule:evenodd;fill:rgb(95.298767%,44.699097%,33.299255%);fill-opacity:1;" d="M 146.34375 112.730469 L 156.644531 108.863281 L 157.363281 108.863281 L 147.066406 112.730469 L 146.34375 112.730469 "/>
    <path style=" stroke:none;fill-rule:evenodd;fill:rgb(95.298767%,44.699097%,33.299255%);fill-opacity:1;" d="M 147.066406 112.730469 L 157.363281 108.863281 L 158.109375 108.863281 L 147.792969 112.730469 L 147.066406 112.730469 "/>
    <path style=" stroke:none;fill-rule:evenodd;fill:rgb(95.298767%,45.498657%,34.098816%);fill-opacity:1;" d="M 147.792969 112.730469 L 158.109375 108.863281 L 158.847656 108.863281 L 148.542969 112.730469 L 147.792969 112.730469 "/>
    <path style=" stroke:none;fill-rule:evenodd;fill:rgb(95.298767%,45.498657%,34.098816%);fill-opacity:1;" d="M 148.542969 112.730469 L 158.847656 108.863281 L 159.554688 108.863281 L 149.25 112.730469 L 148.542969 112.730469 "/>
    <path style=" stroke:none;fill-rule:evenodd;fill:rgb(95.298767%,46.299744%,34.899902%);fill-opacity:1;" d="M 149.25 112.730469 L 159.554688 108.863281 L 160.300781 108.863281 L 149.988281 112.730469 L 149.25 112.730469 "/>
    <path style=" stroke:none;fill-rule:evenodd;fill:rgb(95.298767%,46.299744%,34.899902%);fill-opacity:1;" d="M 149.988281 112.730469 L 160.300781 108.863281 L 161.046875 108.863281 L 150.742188 112.730469 L 149.988281 112.730469 "/>
    <path style=" stroke:none;fill-rule:evenodd;fill:rgb(95.298767%,46.299744%,34.899902%);fill-opacity:1;" d="M 150.742188 112.730469 L 161.046875 108.863281 L 174.210938 108.863281 L 163.90625 112.730469 L 150.742188 112.730469 "/>
    <path style=" stroke:none;fill-rule:evenodd;fill:rgb(95.298767%,46.299744%,34.899902%);fill-opacity:1;" d="M 150.742188 112.730469 L 161.046875 108.863281 L 161.753906 108.863281 L 151.453125 112.730469 L 150.742188 112.730469 "/>
    <path style=" stroke:none;fill-rule:evenodd;fill:rgb(95.698547%,47.099304%,35.299683%);fill-opacity:1;" d="M 151.453125 112.730469 L 161.753906 108.863281 L 162.496094 108.863281 L 152.179688 112.730469 L 151.453125 112.730469 "/>
    <path style=" stroke:none;fill-rule:evenodd;fill:rgb(95.698547%,47.799683%,36.099243%);fill-opacity:1;" d="M 152.179688 112.730469 L 162.496094 108.863281 L 163.238281 108.863281 L 152.9375 112.730469 L 152.179688 112.730469 "/>
    <path style=" stroke:none;fill-rule:evenodd;fill:rgb(95.698547%,47.799683%,36.099243%);fill-opacity:1;" d="M 152.9375 112.730469 L 163.238281 108.863281 L 163.957031 108.863281 L 153.652344 112.730469 L 152.9375 112.730469 "/>
    <path style=" stroke:none;fill-rule:evenodd;fill:rgb(95.698547%,48.599243%,36.898804%);fill-opacity:1;" d="M 153.652344 112.730469 L 163.957031 108.863281 L 164.699219 108.863281 L 154.382813 112.730469 L 153.652344 112.730469 "/>
    <path style=" stroke:none;fill-rule:evenodd;fill:rgb(95.698547%,49.398804%,37.599182%);fill-opacity:1;" d="M 154.382813 112.730469 L 164.699219 108.863281 L 165.429688 108.863281 L 155.125 112.730469 L 154.382813 112.730469 "/>
    <path style=" stroke:none;fill-rule:evenodd;fill:rgb(95.698547%,50.19989%,38.398743%);fill-opacity:1;" d="M 155.125 112.730469 L 165.429688 108.863281 L 166.144531 108.863281 L 155.84375 112.730469 L 155.125 112.730469 "/>
    <path style=" stroke:none;fill-rule:evenodd;fill:rgb(95.698547%,50.999451%,39.199829%);fill-opacity:1;" d="M 155.84375 112.730469 L 166.144531 108.863281 L 166.902344 108.863281 L 156.585938 112.730469 L 155.84375 112.730469 "/>
    <path style=" stroke:none;fill-rule:evenodd;fill:rgb(96.099854%,51.799011%,39.99939%);fill-opacity:1;" d="M 156.585938 112.730469 L 166.902344 108.863281 L 167.628906 108.863281 L 157.324219 112.730469 L 156.585938 112.730469 "/>
    <path style=" stroke:none;fill-rule:evenodd;fill:rgb(96.099854%,51.799011%,39.99939%);fill-opacity:1;" d="M 157.324219 112.730469 L 167.628906 108.863281 L 168.339844 108.863281 L 158.035156 112.730469 L 157.324219 112.730469 "/>
    <path style=" stroke:none;fill-rule:evenodd;fill:rgb(96.099854%,52.49939%,40.79895%);fill-opacity:1;" d="M 158.035156 112.730469 L 168.339844 108.863281 L 169.089844 108.863281 L 158.777344 112.730469 L 158.035156 112.730469 "/>
    <path style=" stroke:none;fill-rule:evenodd;fill:rgb(96.099854%,53.29895%,41.598511%);fill-opacity:1;" d="M 158.777344 112.730469 L 169.089844 108.863281 L 169.828125 108.863281 L 159.527344 112.730469 L 158.777344 112.730469 "/>
    <path style=" stroke:none;fill-rule:evenodd;fill:rgb(96.099854%,53.69873%,42.399597%);fill-opacity:1;" d="M 159.527344 112.730469 L 169.828125 108.863281 L 170.539063 108.863281 L 160.234375 112.730469 L 159.527344 112.730469 "/>
    <path style=" stroke:none;fill-rule:evenodd;fill:rgb(96.099854%,54.499817%,43.099976%);fill-opacity:1;" d="M 160.234375 112.730469 L 170.539063 108.863281 L 171.289063 108.863281 L 160.972656 112.730469 L 160.234375 112.730469 "/>
    <path style=" stroke:none;fill-rule:evenodd;fill:rgb(96.099854%,54.499817%,43.099976%);fill-opacity:1;" d="M 160.972656 112.730469 L 171.289063 108.863281 L 172.015625 108.863281 L 161.71875 112.730469 L 160.972656 112.730469 "/>
    <path style=" stroke:none;fill-rule:evenodd;fill:rgb(96.499634%,55.299377%,43.499756%);fill-opacity:1;" d="M 161.71875 112.730469 L 172.015625 108.863281 L 172.738281 108.863281 L 162.4375 112.730469 L 161.71875 112.730469 "/>
    <path style=" stroke:none;fill-rule:evenodd;fill:rgb(96.499634%,56.098938%,44.299316%);fill-opacity:1;" d="M 162.4375 112.730469 L 172.738281 108.863281 L 173.445313 108.863281 L 163.144531 112.730469 L 162.4375 112.730469 "/>
    <path style=" stroke:none;fill-rule:evenodd;fill:rgb(96.499634%,56.898499%,45.098877%);fill-opacity:1;" d="M 163.144531 112.730469 L 173.445313 108.863281 L 174.199219 108.863281 L 163.882813 112.730469 L 163.144531 112.730469 "/>
    <path style=" stroke:none;fill-rule:evenodd;fill:rgb(96.499634%,57.598877%,45.899963%);fill-opacity:1;" d="M 163.882813 112.730469 L 174.199219 108.863281 L 174.917969 108.863281 L 164.613281 112.730469 L 163.882813 112.730469 "/>
    <path style=" stroke:none;fill-rule:evenodd;fill:rgb(96.499634%,58.399963%,46.699524%);fill-opacity:1;" d="M 164.613281 112.730469 L 174.917969 108.863281 L 175.628906 108.863281 L 165.332031 112.730469 L 164.613281 112.730469 "/>
    <path style=" stroke:none;fill-rule:evenodd;fill:rgb(96.499634%,58.399963%,46.699524%);fill-opacity:1;" d="M 165.332031 112.730469 L 175.628906 108.863281 L 176.402344 108.863281 L 166.085938 112.730469 L 165.332031 112.730469 "/>
    <path style=" stroke:none;fill-rule:evenodd;fill:rgb(96.499634%,58.799744%,47.499084%);fill-opacity:1;" d="M 166.085938 112.730469 L 176.402344 108.863281 L 176.480469 108.863281 L 176.410156 109.132813 L 166.816406 112.730469 L 166.085938 112.730469 "/>
    <path style=" stroke:none;fill-rule:evenodd;fill:rgb(96.899414%,59.599304%,48.199463%);fill-opacity:1;" d="M 166.816406 112.730469 L 176.410156 109.132813 L 176.335938 109.425781 L 167.523438 112.730469 L 166.816406 112.730469 "/>
    <path style=" stroke:none;fill-rule:evenodd;fill:rgb(96.899414%,59.599304%,48.199463%);fill-opacity:1;" d="M 167.523438 112.730469 L 176.335938 109.425781 L 175.480469 112.730469 Z M 167.523438 112.730469 "/>
    <path style=" stroke:none;fill-rule:evenodd;fill:rgb(96.899414%,59.599304%,48.199463%);fill-opacity:1;" d="M 167.523438 112.730469 L 176.335938 109.425781 L 176.253906 109.738281 L 168.277344 112.730469 L 167.523438 112.730469 "/>
    <path style=" stroke:none;fill-rule:evenodd;fill:rgb(96.899414%,61.199951%,50.19989%);fill-opacity:1;" d="M 168.277344 112.730469 L 176.253906 109.738281 L 176.175781 110.046875 L 169.015625 112.730469 L 168.277344 112.730469 "/>
    <path style=" stroke:none;fill-rule:evenodd;fill:rgb(97.299194%,62.69989%,51.799011%);fill-opacity:1;" d="M 169.015625 112.730469 L 176.175781 110.046875 L 176.097656 110.339844 L 169.726563 112.730469 L 169.015625 112.730469 "/>
    <path style=" stroke:none;fill-rule:evenodd;fill:rgb(97.299194%,65.098572%,54.499817%);fill-opacity:1;" d="M 169.726563 112.730469 L 176.097656 110.339844 L 176.019531 110.652344 L 170.472656 112.730469 L 169.726563 112.730469 "/>
    <path style=" stroke:none;fill-rule:evenodd;fill:rgb(97.599792%,66.699219%,56.098938%);fill-opacity:1;" d="M 170.472656 112.730469 L 176.019531 110.652344 L 175.941406 110.953125 L 171.203125 112.730469 L 170.472656 112.730469 "/>
    <path style=" stroke:none;fill-rule:evenodd;fill:rgb(97.599792%,68.199158%,57.998657%);fill-opacity:1;" d="M 171.203125 112.730469 L 175.941406 110.953125 L 175.863281 111.253906 L 171.925781 112.730469 L 171.203125 112.730469 "/>
    <path style=" stroke:none;fill-rule:evenodd;fill:rgb(97.599792%,69.799805%,59.999084%);fill-opacity:1;" d="M 171.925781 112.730469 L 175.863281 111.253906 L 175.78125 111.566406 L 172.675781 112.730469 L 171.925781 112.730469 "/>
    <path style=" stroke:none;fill-rule:evenodd;fill:rgb(97.999573%,71.398926%,61.999512%);fill-opacity:1;" d="M 172.675781 112.730469 L 175.78125 111.566406 L 175.703125 111.863281 L 173.398438 112.730469 L 172.675781 112.730469 "/>
    <path style=" stroke:none;fill-rule:evenodd;fill:rgb(97.999573%,73.699951%,64.698792%);fill-opacity:1;" d="M 173.398438 112.730469 L 175.703125 111.863281 L 175.628906 112.160156 L 174.109375 112.730469 L 173.398438 112.730469 "/>
    <path style=" stroke:none;fill-rule:evenodd;fill:rgb(98.399353%,75.299072%,66.699219%);fill-opacity:1;" d="M 174.109375 112.730469 L 175.628906 112.160156 L 175.546875 112.480469 L 174.878906 112.730469 L 174.109375 112.730469 "/>
    <path style=" stroke:none;fill-rule:evenodd;fill:rgb(98.399353%,76.899719%,68.598938%);fill-opacity:1;" d="M 174.878906 112.730469 L 175.546875 112.480469 L 175.480469 112.730469 Z M 174.878906 112.730469 "/>
  </g>
</svg>