<?xml version="1.0" encoding="UTF-8"?>
<svg xmlns="http://www.w3.org/2000/svg" xmlns:xlink="http://www.w3.org/1999/xlink" width="360pt" height="45pt" viewBox="0 0 360 45" version="1.1">
<g id="surface1">
<path style=" stroke:none;fill-rule:nonzero;fill:rgb(0.799561%,0.799561%,0.799561%);fill-opacity:1;" d="M 342.40625 29.4375 C 341.933594 29.4375 341.523438 29.597656 341.1875 29.9375 C 340.851563 30.273438 340.6875 30.683594 340.6875 31.15625 C 340.6875 31.617188 340.855469 32.027344 341.1875 32.375 C 341.519531 32.722656 341.925781 32.875 342.40625 32.875 C 342.878906 32.875 343.28125 32.710938 343.625 32.375 C 343.96875 32.035156 344.125 31.636719 344.125 31.15625 C 344.125 30.683594 343.960938 30.273438 343.625 29.9375 C 343.285156 29.597656 342.890625 29.4375 342.40625 29.4375 Z M 279.125 21.09375 C 280.722656 23.179688 282.636719 25.886719 284.84375 29.25 C 283.601563 30.699219 282.246094 31.4375 280.78125 31.4375 C 279.464844 31.4375 278.261719 30.867188 277.21875 29.71875 C 276.175781 28.570313 275.65625 27.324219 275.65625 26.03125 C 275.65625 25.195313 275.957031 24.335938 276.5625 23.4375 C 277.164063 22.539063 278.027344 21.765625 279.125 21.09375 Z M 143.09375 19.4375 L 145.84375 26.09375 L 140.34375 26.09375 Z M 228.4375 19.40625 L 231.1875 26.03125 L 225.71875 26.03125 Z M 106.21875 17.125 C 108.042969 17.125 109.234375 17.460938 109.78125 18.125 C 110.324219 18.789063 110.59375 19.675781 110.59375 20.78125 C 110.59375 21.414063 110.503906 21.941406 110.34375 22.375 C 110.183594 22.804688 109.964844 23.171875 109.6875 23.4375 C 109.410156 23.703125 109.042969 23.894531 108.59375 24.03125 C 108.144531 24.167969 107.609375 24.25 107 24.28125 C 106.390625 24.3125 105.820313 24.332031 105.25 24.34375 L 105.25 17.15625 C 105.613281 17.125 105.9375 17.125 106.21875 17.125 Z M 330.8125 17.03125 C 332.722656 17.03125 334.183594 17.699219 335.1875 19 C 336.195313 20.300781 336.6875 22.152344 336.6875 24.59375 C 336.6875 27.101563 336.175781 28.980469 335.15625 30.25 C 334.136719 31.515625 332.757813 32.15625 331 32.15625 C 328.996094 32.15625 327.472656 31.515625 326.46875 30.25 C 325.46875 28.980469 324.96875 27.117188 324.96875 24.59375 C 324.96875 22.105469 325.46875 20.207031 326.46875 18.9375 C 327.472656 17.667969 328.929688 17.03125 330.8125 17.03125 Z M 89.875 17.03125 C 91.785156 17.03125 93.246094 17.699219 94.25 19 C 95.253906 20.300781 95.75 22.152344 95.75 24.59375 C 95.75 27.101563 95.238281 28.980469 94.21875 30.25 C 93.199219 31.515625 91.820313 32.15625 90.0625 32.15625 C 88.058594 32.15625 86.566406 31.515625 85.5625 30.25 C 84.558594 28.980469 84.0625 27.117188 84.0625 24.59375 C 84.0625 22.105469 84.558594 20.207031 85.5625 18.9375 C 86.566406 17.667969 87.992188 17.03125 89.875 17.03125 Z M 154.0625 16.75 L 154.0625 17.28125 C 154.910156 17.28125 155.441406 17.351563 155.6875 17.46875 C 155.933594 17.585938 156.105469 17.839844 156.21875 18.25 C 156.332031 18.65625 156.40625 19.453125 156.40625 20.65625 L 156.40625 29 C 156.40625 29.949219 156.355469 30.527344 156.28125 30.78125 C 156.207031 31.035156 155.984375 31.28125 155.59375 31.5 C 155.203125 31.71875 154.648438 31.851563 153.90625 31.90625 L 153.90625 32.4375 L 159.71875 32.4375 L 159.71875 31.90625 C 158.890625 31.90625 158.289063 31.800781 157.875 31.5625 C 157.460938 31.324219 157.183594 31.070313 157.09375 30.78125 C 157.003906 30.496094 156.96875 29.902344 156.96875 29 L 156.96875 18.09375 L 168.125 32.8125 L 168.59375 32.8125 L 168.59375 19.8125 C 168.59375 19.140625 168.648438 18.6875 168.75 18.40625 C 168.851563 18.125 169.09375 17.855469 169.46875 17.65625 C 169.847656 17.457031 170.375 17.335938 171.03125 17.28125 L 171.03125 16.75 L 165.375 16.75 L 165.375 17.28125 C 165.992188 17.28125 166.5 17.367188 166.9375 17.53125 C 167.378906 17.691406 167.671875 17.910156 167.8125 18.1875 C 167.953125 18.464844 168.03125 18.960938 168.03125 19.65625 L 168.03125 29.03125 L 158.75 16.75 Z M 252.75 16.71875 L 252.75 17.25 C 253.511719 17.25 254.011719 17.316406 254.25 17.46875 C 254.488281 17.617188 254.652344 17.871094 254.71875 18.25 C 254.789063 18.628906 254.8125 19.429688 254.8125 20.625 L 254.8125 28.3125 C 254.8125 29.621094 254.78125 30.460938 254.71875 30.78125 C 254.65625 31.097656 254.507813 31.351563 254.28125 31.5625 C 254.054688 31.769531 253.585938 31.875 252.8125 31.875 L 252.46875 31.875 L 252.46875 32.40625 L 265.40625 32.40625 L 265.75 27.53125 L 265.21875 27.53125 C 264.941406 28.707031 264.542969 29.621094 264.0625 30.28125 C 263.582031 30.941406 263.089844 31.371094 262.5625 31.5625 C 262.03125 31.753906 261.355469 31.84375 260.53125 31.84375 L 259.375 31.84375 C 258.328125 31.84375 257.679688 31.667969 257.4375 31.34375 C 257.199219 31.015625 257.09375 29.917969 257.09375 28.0625 L 257.09375 24.34375 L 258.78125 24.34375 C 259.449219 24.34375 259.9375 24.410156 260.21875 24.5 C 260.5 24.589844 260.699219 24.765625 260.84375 25.0625 C 260.988281 25.359375 261.0625 25.941406 261.0625 26.8125 L 261.59375 26.8125 L 261.59375 21.46875 L 261.0625 21.46875 C 261.0625 22.238281 261.003906 22.765625 260.90625 23.03125 C 260.8125 23.296875 260.613281 23.492188 260.3125 23.625 C 260.011719 23.757813 259.476563 23.8125 258.71875 23.8125 L 257.09375 23.8125 L 257.09375 17.25 L 259.25 17.25 C 260.339844 17.25 261.101563 17.316406 261.59375 17.4375 C 262.085938 17.558594 262.519531 17.824219 262.875 18.28125 C 263.230469 18.738281 263.535156 19.53125 263.78125 20.625 L 264.3125 20.625 L 263.9375 16.71875 Z M 202.125 16.71875 L 202.125 17.25 L 202.4375 17.25 C 203.238281 17.25 203.730469 17.332031 203.96875 17.46875 C 204.207031 17.605469 204.367188 17.855469 204.4375 18.21875 C 204.511719 18.582031 204.5625 19.375 204.5625 20.625 L 204.5625 28.3125 C 204.5625 29.625 204.511719 30.484375 204.4375 30.84375 C 204.367188 31.203125 204.199219 31.457031 203.9375 31.625 C 203.679688 31.792969 203.207031 31.875 202.53125 31.875 L 202.125 31.875 L 202.125 32.40625 L 209.25 32.40625 L 209.25 31.875 L 208.84375 31.875 C 208.132813 31.875 207.628906 31.777344 207.375 31.59375 C 207.121094 31.40625 206.96875 31.132813 206.90625 30.75 C 206.84375 30.367188 206.8125 29.550781 206.8125 28.3125 L 206.8125 24.53125 L 215 24.53125 L 215 28.3125 C 215 29.628906 214.976563 30.453125 214.90625 30.8125 C 214.839844 31.171875 214.660156 31.453125 214.40625 31.625 C 214.148438 31.792969 213.691406 31.875 213.03125 31.875 L 212.5 31.875 L 212.5 32.40625 L 219.59375 32.40625 L 219.59375 31.875 L 219.25 31.875 C 218.550781 31.875 218.066406 31.777344 217.8125 31.59375 C 217.558594 31.40625 217.402344 31.132813 217.34375 30.75 C 217.285156 30.367188 217.25 29.546875 217.25 28.3125 L 217.25 20.625 C 217.25 19.324219 217.296875 18.503906 217.375 18.15625 C 217.457031 17.808594 217.605469 17.5625 217.84375 17.4375 C 218.085938 17.308594 218.605469 17.25 219.375 17.25 L 219.59375 17.25 L 219.59375 16.71875 L 212.5 16.71875 L 212.5 17.25 L 212.90625 17.25 C 213.695313 17.25 214.203125 17.332031 214.4375 17.46875 C 214.671875 17.605469 214.839844 17.855469 214.90625 18.21875 C 214.976563 18.582031 215 19.375 215 20.625 L 215 23.75 L 206.8125 23.75 L 206.8125 20.625 C 206.8125 19.324219 206.855469 18.503906 206.9375 18.15625 C 207.019531 17.808594 207.195313 17.5625 207.4375 17.4375 C 207.679688 17.308594 208.164063 17.25 208.9375 17.25 L 209.25 17.25 L 209.25 16.71875 Z M 143.75 16.5625 L 139.15625 27.40625 C 138.828125 28.1875 138.644531 28.636719 138.59375 28.75 C 138.113281 29.980469 137.6875 30.804688 137.34375 31.1875 C 137 31.570313 136.511719 31.796875 135.8125 31.90625 L 135.8125 32.4375 L 140.53125 32.4375 L 140.53125 31.90625 C 140.019531 31.90625 139.601563 31.804688 139.28125 31.5625 C 138.960938 31.320313 138.8125 30.941406 138.8125 30.46875 C 138.8125 30.027344 139.117188 29.101563 139.71875 27.65625 L 140.125 26.65625 L 146.0625 26.65625 L 147.25 29.5625 C 147.605469 30.40625 147.8125 30.921875 147.8125 31.09375 C 147.8125 31.425781 147.671875 31.640625 147.40625 31.75 C 147.140625 31.859375 146.628906 31.90625 145.875 31.90625 L 145.875 32.4375 L 152.03125 32.4375 L 152.03125 31.90625 C 151.484375 31.851563 151.085938 31.742188 150.8125 31.53125 C 150.539063 31.320313 150.316406 31.027344 150.15625 30.65625 L 149.4375 29 L 144.21875 16.5625 Z M 106.34375 16.5625 C 105.464844 16.5625 104.273438 16.589844 102.78125 16.65625 L 100.5625 16.75 L 100.5625 17.28125 L 100.8125 17.28125 C 101.621094 17.28125 102.160156 17.359375 102.40625 17.5 C 102.648438 17.636719 102.804688 17.886719 102.875 18.25 C 102.945313 18.613281 102.96875 19.40625 102.96875 20.65625 L 102.96875 28.375 C 102.96875 29.683594 102.945313 30.515625 102.875 30.875 C 102.804688 31.234375 102.632813 31.488281 102.375 31.65625 C 102.117188 31.828125 101.640625 31.90625 100.96875 31.90625 L 100.46875 31.90625 L 100.46875 32.4375 L 108 32.4375 L 108 31.90625 L 107.25 31.90625 C 106.539063 31.90625 106.03125 31.808594 105.78125 31.625 C 105.527344 31.441406 105.367188 31.160156 105.3125 30.78125 C 105.253906 30.40625 105.25 29.601563 105.25 28.375 L 105.25 24.9375 L 105.875 24.9375 C 106.296875 24.9375 106.582031 25.015625 106.78125 25.15625 C 106.980469 25.296875 107.347656 25.660156 107.875 26.3125 C 108.402344 26.960938 108.914063 27.640625 109.40625 28.34375 C 110.9375 30.550781 112.101563 31.910156 112.84375 32.4375 L 117.03125 32.4375 L 117.03125 31.90625 C 116.113281 31.875 115.328125 31.617188 114.65625 31.125 C 113.984375 30.628906 113.058594 29.589844 111.875 28 C 110.421875 26.035156 109.34375 24.90625 108.6875 24.59375 C 110.140625 24.414063 111.253906 23.976563 112 23.25 C 112.75 22.523438 113.125 21.621094 113.125 20.59375 C 113.125 19.714844 112.828125 18.976563 112.25 18.34375 C 111.671875 17.707031 110.933594 17.246094 110 16.96875 C 109.0625 16.691406 107.835938 16.5625 106.34375 16.5625 Z M 229.09375 16.5 L 224.53125 27.375 C 224.203125 28.15625 223.988281 28.601563 223.9375 28.71875 C 223.453125 29.949219 223.0625 30.742188 222.71875 31.125 C 222.378906 31.507813 221.855469 31.765625 221.15625 31.875 L 221.15625 32.40625 L 225.875 32.40625 L 225.875 31.875 C 225.367188 31.875 224.949219 31.742188 224.625 31.5 C 224.308594 31.257813 224.15625 30.90625 224.15625 30.4375 C 224.15625 29.996094 224.460938 29.070313 225.0625 27.625 L 225.46875 26.625 L 231.40625 26.625 L 232.625 29.53125 C 232.980469 30.371094 233.15625 30.859375 233.15625 31.03125 C 233.15625 31.363281 233.015625 31.605469 232.75 31.71875 C 232.484375 31.832031 231.972656 31.875 231.21875 31.875 L 231.21875 32.40625 L 237.375 32.40625 L 237.375 31.875 C 236.824219 31.820313 236.429688 31.679688 236.15625 31.46875 C 235.882813 31.257813 235.664063 30.964844 235.5 30.59375 L 234.78125 28.96875 L 229.5625 16.5 Z M 330.78125 16.46875 C 328.363281 16.46875 326.367188 17.1875 324.75 18.65625 C 323.132813 20.121094 322.3125 22.078125 322.3125 24.5 C 322.3125 26.984375 323.09375 28.964844 324.6875 30.46875 C 326.28125 31.972656 328.324219 32.75 330.8125 32.75 C 333.371094 32.75 335.433594 31.972656 337 30.46875 C 338.566406 28.964844 339.375 27.023438 339.375 24.59375 C 339.375 22.085938 338.542969 20.105469 336.90625 18.65625 C 335.269531 17.207031 333.222656 16.46875 330.78125 16.46875 Z M 126.125 16.46875 C 123.683594 16.46875 121.765625 17.308594 120.34375 19 C 118.921875 20.6875 118.1875 22.660156 118.1875 24.90625 C 118.1875 27.171875 118.949219 29.050781 120.4375 30.53125 C 121.925781 32.007813 123.789063 32.75 126.03125 32.75 C 127.148438 32.75 128.34375 32.488281 129.65625 32 C 130.617188 31.640625 131.40625 31.46875 132 31.46875 C 132.144531 31.46875 132.316406 31.46875 132.5 31.5 L 132.5 29.84375 C 132.5 28.484375 132.539063 27.632813 132.625 27.28125 C 132.710938 26.929688 132.890625 26.652344 133.15625 26.5 C 133.421875 26.347656 133.9375 26.28125 134.6875 26.28125 L 134.6875 25.75 L 127.90625 25.75 L 127.90625 26.28125 L 128.28125 26.28125 C 128.902344 26.28125 129.328125 26.339844 129.5625 26.4375 C 129.796875 26.53125 129.949219 26.71875 130.0625 27 C 130.175781 27.28125 130.25 27.84375 130.25 28.6875 C 130.25 29.40625 130.113281 29.996094 129.875 30.46875 C 129.636719 30.941406 129.214844 31.328125 128.5625 31.65625 C 127.90625 31.984375 127.171875 32.15625 126.375 32.15625 C 124.816406 32.15625 123.488281 31.597656 122.4375 30.4375 C 121.382813 29.28125 120.875 27.28125 120.875 24.5 C 120.875 21.710938 121.4375 19.78125 122.53125 18.6875 C 123.625 17.59375 124.898438 17.03125 126.375 17.03125 C 127.800781 17.03125 129 17.5 130 18.4375 C 131 19.375 131.621094 20.644531 131.84375 22.25 L 132.375 22.25 L 132.375 17 L 131.84375 17 C 131.773438 17.632813 131.601563 18.234375 131.34375 18.78125 C 129.964844 17.242188 128.226563 16.46875 126.125 16.46875 Z M 89.84375 16.46875 C 87.425781 16.46875 85.429688 17.1875 83.8125 18.65625 C 82.195313 20.121094 81.375 22.078125 81.375 24.5 C 81.375 26.984375 82.1875 28.964844 83.78125 30.46875 C 85.375 31.972656 87.417969 32.75 89.90625 32.75 C 92.460938 32.75 94.527344 31.972656 96.09375 30.46875 C 97.660156 28.964844 98.4375 27.023438 98.4375 24.59375 C 98.4375 22.085938 97.605469 20.105469 95.96875 18.65625 C 94.332031 17.207031 92.285156 16.46875 89.84375 16.46875 Z M 243.625 16.4375 C 242.429688 16.4375 241.46875 16.785156 240.6875 17.53125 C 239.910156 18.277344 239.5 19.222656 239.5 20.34375 C 239.5 21.078125 239.703125 21.757813 240.0625 22.40625 C 240.421875 23.054688 240.894531 23.59375 241.53125 24 C 242.171875 24.40625 243.148438 24.867188 244.40625 25.40625 C 245.816406 26.007813 246.78125 26.570313 247.3125 27.09375 C 247.84375 27.625 248.09375 28.277344 248.09375 29.0625 C 248.09375 29.84375 247.792969 30.558594 247.1875 31.1875 C 246.582031 31.816406 245.730469 32.125 244.625 32.125 C 242.171875 32.125 240.625 30.472656 239.96875 27.1875 L 239.375 27.1875 L 239.375 32.25 L 239.96875 32.25 C 240.09375 31.59375 240.273438 31.082031 240.53125 30.71875 C 241.683594 32.035156 243.121094 32.6875 244.84375 32.6875 C 246.34375 32.6875 247.539063 32.277344 248.4375 31.4375 C 249.335938 30.59375 249.78125 29.5 249.78125 28.15625 C 249.78125 27.304688 249.589844 26.554688 249.21875 25.90625 C 248.847656 25.257813 248.367188 24.773438 247.75 24.40625 C 247.136719 24.039063 246.136719 23.542969 244.78125 22.9375 C 243.367188 22.300781 242.417969 21.722656 241.875 21.21875 C 241.324219 20.722656 241.03125 20.125 241.03125 19.40625 C 241.03125 18.8125 241.25 18.25 241.6875 17.75 C 242.128906 17.25 242.808594 17 243.75 17 C 244.738281 17 245.628906 17.351563 246.375 18.03125 C 247.128906 18.710938 247.644531 19.625 247.9375 20.8125 L 248.4375 20.8125 L 248.4375 16.71875 L 247.9375 16.71875 C 247.894531 17.210938 247.699219 17.667969 247.34375 18.09375 C 246.726563 17.414063 246.121094 16.964844 245.53125 16.75 C 244.941406 16.53125 244.292969 16.4375 243.625 16.4375 Z M 41.5625 12.5625 C 43.421875 12.5625 44.765625 12.957031 45.59375 13.75 C 46.421875 14.539063 46.84375 15.777344 46.84375 17.46875 C 46.84375 18.578125 46.605469 19.527344 46.125 20.28125 C 45.640625 21.035156 45.035156 21.511719 44.3125 21.75 C 43.589844 21.984375 42.644531 22.125 41.46875 22.125 L 40 22.125 L 40 12.625 C 40.363281 12.585938 40.878906 12.5625 41.5625 12.5625 Z M 281.28125 12.40625 C 282.046875 12.40625 282.65625 12.664063 283.125 13.1875 C 283.59375 13.710938 283.84375 14.371094 283.84375 15.21875 C 283.84375 16.636719 282.78125 17.964844 280.6875 19.1875 C 279.402344 17.421875 278.78125 16.023438 278.78125 15 C 278.78125 14.257813 279.011719 13.65625 279.46875 13.15625 C 279.929688 12.65625 280.523438 12.40625 281.28125 12.40625 Z M 52.78125 12.0625 L 52.78125 12.75 L 53.34375 12.75 C 54.382813 12.75 55.035156 12.851563 55.34375 13.03125 C 55.652344 13.210938 55.875 13.527344 55.96875 14 C 56.066406 14.472656 56.09375 15.53125 56.09375 17.15625 L 56.09375 26.03125 C 56.09375 27.71875 56.058594 28.878906 55.9375 29.5 C 55.816406 30.121094 55.457031 30.667969 54.90625 31.09375 C 54.355469 31.519531 53.660156 31.730469 52.78125 31.78125 L 52.78125 32.46875 L 60.125 32.46875 L 60.125 31.78125 C 59.179688 31.71875 58.460938 31.476563 57.9375 31.03125 C 57.414063 30.585938 57.097656 30.058594 57 29.46875 C 56.898438 28.875 56.84375 27.761719 56.84375 26.125 L 56.84375 14.1875 L 64.96875 32.46875 L 65.6875 32.46875 L 73.71875 14.1875 L 73.71875 27.1875 C 73.71875 28.894531 73.6875 29.96875 73.59375 30.4375 C 73.5 30.90625 73.277344 31.246094 72.9375 31.46875 C 72.597656 31.691406 71.996094 31.78125 71.125 31.78125 L 70.40625 31.78125 L 70.40625 32.46875 L 80.21875 32.46875 L 80.21875 31.78125 L 79.3125 31.78125 C 78.386719 31.78125 77.765625 31.679688 77.4375 31.4375 C 77.109375 31.199219 76.894531 30.839844 76.8125 30.34375 C 76.730469 29.847656 76.6875 28.761719 76.6875 27.15625 L 76.6875 17.15625 C 76.6875 15.460938 76.734375 14.390625 76.84375 13.9375 C 76.949219 13.484375 77.15625 13.164063 77.46875 13 C 77.78125 12.835938 78.464844 12.75 79.46875 12.75 L 80.21875 12.75 L 80.21875 12.0625 L 73.90625 12.0625 L 66.5 28.96875 L 59 12.0625 Z M 21.90625 12.0625 L 21.90625 12.75 L 22.375 12.75 C 23.410156 12.75 24.070313 12.851563 24.375 13.03125 C 24.683594 13.210938 24.90625 13.53125 25 14 C 25.09375 14.472656 25.125 15.53125 25.125 17.15625 L 25.125 24.09375 C 25.125 26.367188 25.066406 28.015625 24.90625 29 C 24.746094 29.988281 24.25 30.835938 23.46875 31.5625 C 22.6875 32.289063 21.734375 32.65625 20.59375 32.65625 C 20.035156 32.65625 19.570313 32.554688 19.1875 32.375 C 18.808594 32.195313 18.625 31.945313 18.625 31.625 C 18.625 31.503906 18.671875 31.332031 18.78125 31.09375 C 18.902344 30.824219 18.96875 30.5625 18.96875 30.3125 C 18.96875 29.894531 18.832031 29.539063 18.53125 29.25 C 18.234375 28.960938 17.851563 28.8125 17.40625 28.8125 C 16.972656 28.8125 16.609375 28.988281 16.3125 29.3125 C 16.015625 29.636719 15.875 30.027344 15.875 30.5 C 15.875 31.285156 16.292969 31.960938 17.125 32.53125 C 17.957031 33.097656 19.113281 33.375 20.65625 33.375 C 22.027344 33.375 23.246094 33.148438 24.28125 32.6875 C 25.316406 32.222656 26.160156 31.574219 26.78125 30.71875 C 27.402344 29.859375 27.769531 28.964844 27.90625 28.0625 C 28.039063 27.160156 28.09375 25.851563 28.09375 24.125 L 28.09375 17.15625 C 28.09375 15.460938 28.148438 14.390625 28.25 13.9375 C 28.347656 13.484375 28.566406 13.164063 28.875 13 C 29.183594 12.832031 29.84375 12.75 30.84375 12.75 L 31.34375 12.75 L 31.34375 12.0625 Z M 41.25 11.84375 C 40.101563 11.84375 38.492188 11.886719 36.4375 11.96875 L 33.875 12.0625 L 33.875 12.75 L 34.25 12.75 C 35.289063 12.75 35.96875 12.851563 36.28125 13.03125 C 36.59375 13.210938 36.785156 13.527344 36.875 14 C 36.964844 14.472656 37.03125 15.53125 37.03125 17.15625 L 37.03125 27.15625 C 37.03125 28.863281 36.964844 29.96875 36.875 30.4375 C 36.785156 30.90625 36.589844 31.246094 36.25 31.46875 C 35.910156 31.691406 35.285156 31.78125 34.40625 31.78125 L 33.875 31.78125 L 33.875 32.46875 L 43.28125 32.46875 L 43.28125 31.78125 L 42.59375 31.78125 C 41.675781 31.78125 41.050781 31.679688 40.71875 31.4375 C 40.386719 31.195313 40.167969 30.808594 40.09375 30.3125 C 40.015625 29.8125 40 28.769531 40 27.15625 L 40 22.84375 L 42.25 22.84375 C 44.59375 22.84375 46.226563 22.628906 47.15625 22.1875 C 48.085938 21.746094 48.78125 21.101563 49.28125 20.25 C 49.777344 19.394531 50.03125 18.394531 50.03125 17.28125 C 50.03125 15.996094 49.667969 14.9375 48.9375 14.09375 C 48.207031 13.25 47.269531 12.675781 46.125 12.34375 C 44.980469 12.011719 43.363281 11.84375 41.25 11.84375 Z M 189.90625 11.78125 C 188.070313 11.78125 186.382813 12.199219 184.84375 13.0625 C 183.308594 13.921875 182.109375 15.25 181.25 17.03125 C 180.390625 18.808594 179.96875 20.703125 179.96875 22.71875 C 179.96875 25.785156 180.890625 28.257813 182.75 30.125 C 184.609375 31.988281 187.003906 32.90625 189.9375 32.90625 C 192.710938 32.90625 194.996094 31.921875 196.78125 29.90625 C 197.257813 30.53125 197.601563 31.246094 197.78125 32.0625 L 198.46875 32.0625 L 198.46875 24.875 L 197.78125 24.875 C 197.660156 26.058594 197.257813 27.292969 196.59375 28.5625 C 195.933594 29.832031 195.046875 30.71875 193.90625 31.25 C 192.765625 31.78125 191.652344 32.0625 190.5625 32.0625 C 188.527344 32.0625 186.804688 31.222656 185.4375 29.59375 C 184.070313 27.960938 183.40625 25.621094 183.40625 22.5625 C 183.40625 19.332031 184.027344 16.859375 185.28125 15.125 C 186.535156 13.386719 188.21875 12.5 190.34375 12.5 C 192.082031 12.5 193.648438 13.042969 195.03125 14.125 C 196.414063 15.207031 197.332031 17.105469 197.78125 19.84375 L 198.46875 19.84375 L 198.28125 12.15625 L 197.59375 12.15625 C 197.503906 13.066406 197.222656 13.929688 196.78125 14.78125 C 196.175781 14.023438 195.265625 13.339844 194.03125 12.71875 C 192.800781 12.09375 191.425781 11.78125 189.90625 11.78125 Z M 309.90625 11.71875 C 308.070313 11.71875 306.382813 12.136719 304.84375 13 C 303.308594 13.859375 302.109375 15.1875 301.25 16.96875 C 300.394531 18.746094 299.96875 20.640625 299.96875 22.65625 C 299.96875 25.722656 300.890625 28.199219 302.75 30.0625 C 304.609375 31.925781 307.035156 32.84375 309.96875 32.84375 C 312.746094 32.84375 315.027344 31.828125 316.8125 29.8125 C 317.285156 30.433594 317.597656 31.15625 317.78125 31.96875 L 318.46875 31.96875 L 318.46875 24.8125 L 317.78125 24.8125 C 317.660156 25.992188 317.257813 27.230469 316.59375 28.5 C 315.929688 29.769531 315.042969 30.65625 313.90625 31.1875 C 312.765625 31.71875 311.652344 31.96875 310.5625 31.96875 C 308.527344 31.96875 306.808594 31.160156 305.4375 29.53125 C 304.070313 27.898438 303.40625 25.558594 303.40625 22.5 C 303.40625 19.269531 304.03125 16.765625 305.28125 15.03125 C 306.535156 13.292969 308.214844 12.4375 310.34375 12.4375 C 312.082031 12.4375 313.648438 12.980469 315.03125 14.0625 C 316.417969 15.144531 317.332031 17.042969 317.78125 19.78125 L 318.46875 19.78125 L 318.28125 12.0625 L 317.59375 12.0625 C 317.5 12.972656 317.253906 13.867188 316.8125 14.71875 C 316.203125 13.960938 315.261719 13.28125 314.03125 12.65625 C 312.796875 12.03125 311.421875 11.71875 309.90625 11.71875 Z M 281.21875 11.625 C 279.949219 11.625 278.902344 12.050781 278.0625 12.90625 C 277.222656 13.761719 276.8125 14.722656 276.8125 15.8125 C 276.8125 17.195313 277.425781 18.730469 278.65625 20.4375 C 276.617188 21.800781 275.222656 22.949219 274.5 23.84375 C 273.78125 24.738281 273.4375 25.835938 273.4375 27.15625 C 273.4375 28.308594 273.734375 29.308594 274.3125 30.1875 C 274.890625 31.070313 275.613281 31.765625 276.53125 32.25 C 277.453125 32.734375 278.429688 33 279.4375 33 C 281.496094 33 283.464844 31.960938 285.3125 29.90625 C 286.867188 31.960938 288.671875 33 290.71875 33 C 291.664063 33 292.5 32.71875 293.21875 32.1875 C 293.9375 31.65625 294.402344 30.953125 294.625 30.09375 L 293.875 30.09375 C 293.339844 31.035156 292.582031 31.53125 291.59375 31.53125 C 290.871094 31.53125 290.203125 31.304688 289.5625 30.875 C 288.921875 30.445313 288.03125 29.421875 286.90625 27.8125 C 287.378906 27.183594 287.90625 26.214844 288.46875 24.875 C 289.140625 23.253906 289.804688 22.148438 290.4375 21.5625 C 291.074219 20.976563 291.804688 20.574219 292.65625 20.34375 L 292.65625 19.59375 L 285.90625 19.59375 L 285.90625 20.34375 C 287.558594 20.53125 288.375 21.203125 288.375 22.40625 C 288.375 22.90625 288.191406 23.605469 287.84375 24.5 C 287.5 25.394531 287.035156 26.257813 286.4375 27.09375 C 284.777344 24.738281 283.023438 22.304688 281.15625 19.78125 C 284.171875 18.265625 285.65625 16.707031 285.65625 15.09375 C 285.65625 14.054688 285.226563 13.199219 284.3125 12.5625 C 283.398438 11.921875 282.351563 11.625 281.21875 11.625 "/>
</g>
</svg>
