<?xml version="1.0" encoding="UTF-8"?>
<svg xmlns="http://www.w3.org/2000/svg" xmlns:xlink="http://www.w3.org/1999/xlink" width="491pt" height="115.5pt" viewBox="0 0 491 115.5" version="1.1">
<defs>
<clipPath id="clip1">
  <path d="M 117 26 L 179 26 L 179 115.5 L 117 115.5 Z M 117 26 "/>
</clipPath>
</defs>
<g id="surface1">
<path style=" stroke:none;fill-rule:nonzero;fill:rgb(92.89856%,12.89978%,15.299988%);fill-opacity:1;" d="M 25.359375 52.375 C 35.101563 52.390625 44.84375 52.414063 54.582031 52.359375 C 49.6875 39.351563 45.023438 26.246094 40.011719 13.277344 C 34.832031 26.191406 30.292969 39.359375 25.359375 52.375 Z M 33.316406 0.140625 C 37.683594 -0.117188 42.070313 0.0703125 46.445313 0.015625 C 57.632813 29.765625 68.773438 59.539063 79.925781 89.296875 C 75.808594 89.339844 71.6875 89.257813 67.5625 89.371094 C 64.371094 80.679688 61.519531 71.875 58.472656 63.136719 C 46.136719 63.105469 33.8125 63.128906 21.484375 63.128906 C 18.460938 71.851563 15.507813 80.59375 12.46875 89.316406 C 8.3125 89.316406 4.15625 89.316406 0 89.304688 L 0 89.21875 C 11.140625 59.539063 22.398438 29.898438 33.316406 0.140625 "/>
<path style=" stroke:none;fill-rule:nonzero;fill:rgb(92.89856%,12.89978%,15.299988%);fill-opacity:1;" d="M 92.191406 0.03125 C 96.007813 0.0078125 99.835938 0.015625 103.652344 0.0234375 C 103.644531 29.78125 103.667969 59.546875 103.644531 89.316406 C 99.828125 89.304688 96.007813 89.316406 92.199219 89.304688 C 92.191406 59.546875 92.199219 29.789063 92.191406 0.03125 "/>
<path style=" stroke:none;fill-rule:nonzero;fill:rgb(92.89856%,12.89978%,15.299988%);fill-opacity:1;" d="M 188.589844 0.0234375 C 192.425781 0.015625 196.265625 0.0078125 200.101563 0.03125 C 199.960938 12.339844 200.46875 24.667969 199.613281 36.960938 C 203.847656 30.828125 210.839844 26.609375 218.34375 26.246094 C 224.949219 25.925781 232.074219 27.878906 236.550781 32.996094 C 241.132813 38.09375 242.65625 45.171875 242.6875 51.847656 C 242.710938 64.339844 242.710938 76.824219 242.6875 89.316406 C 238.863281 89.304688 235.035156 89.316406 231.203125 89.304688 C 231.1875 77.355469 231.21875 65.410156 231.195313 53.460938 C 231.15625 48.644531 230.195313 43.277344 226.371094 39.964844 C 222.410156 36.710938 216.730469 36.167969 211.90625 37.441406 C 204.523438 39.71875 200.273438 47.605469 200.125 55 C 200.054688 66.4375 200.125 77.867188 200.09375 89.304688 C 196.257813 89.316406 192.433594 89.304688 188.597656 89.316406 C 188.574219 59.546875 188.597656 29.78125 188.589844 0.0234375 "/>
<path style=" stroke:none;fill-rule:nonzero;fill:rgb(92.89856%,12.89978%,15.299988%);fill-opacity:1;" d="M 346.574219 37.191406 C 340.472656 38.382813 335.347656 43.027344 333.171875 48.800781 C 330.808594 54.992188 330.769531 62.070313 333.015625 68.300781 C 335.027344 73.957031 339.796875 78.660156 345.679688 80.105469 C 352.097656 81.835938 359.410156 79.777344 363.820313 74.757813 C 368.414063 69.675781 369.828125 62.4375 369.183594 55.785156 C 368.691406 50.027344 366.191406 44.246094 361.550781 40.640625 C 357.402344 37.316406 351.753906 36.128906 346.574219 37.191406 Z M 319.871094 2.019531 C 323.714844 2.003906 327.546875 2.003906 331.390625 2.019531 C 331.273438 13.652344 331.71875 25.3125 330.894531 36.929688 C 334.210938 32.53125 338.726563 28.964844 344.078125 27.425781 C 353.300781 24.441406 363.882813 27.070313 370.859375 33.742188 C 384 45.777344 384.816406 68.355469 373.003906 81.570313 C 367.09375 88.417969 357.800781 92.332031 348.765625 91.089844 C 341.625 90.351563 335.175781 86.320313 330.878906 80.65625 C 330.855469 83.539063 330.894531 86.421875 330.847656 89.316406 C 327.195313 89.304688 323.542969 89.316406 319.886719 89.316406 C 319.863281 60.214844 319.886719 31.117188 319.871094 2.019531 "/>
<path style=" stroke:none;fill-rule:nonzero;fill:rgb(92.89856%,12.89978%,15.299988%);fill-opacity:1;" d="M 465.035156 9.503906 C 468.855469 9.488281 472.671875 9.480469 476.488281 9.511719 C 476.488281 15.734375 476.472656 21.964844 476.496094 28.195313 C 481.328125 28.203125 486.160156 28.195313 491 28.195313 L 491 38.667969 C 486.160156 38.667969 481.328125 38.660156 476.496094 38.667969 C 476.480469 49.085938 476.480469 59.5 476.488281 69.917969 C 476.472656 72.722656 476.960938 75.90625 479.363281 77.703125 C 482.703125 80.179688 487.144531 79.421875 491 79.03125 L 491 89.371094 C 484.652344 90.15625 477.628906 90.171875 472.144531 86.40625 C 467.273438 83.164063 465.058594 77.144531 465.058594 71.464844 C 464.988281 60.53125 465.066406 49.601563 465.027344 38.667969 C 461.4375 38.667969 457.855469 38.675781 454.273438 38.660156 C 454.257813 35.171875 454.257813 31.691406 454.265625 28.203125 C 457.855469 28.1875 461.4375 28.195313 465.027344 28.195313 C 465.042969 21.964844 465.019531 15.734375 465.035156 9.503906 "/>
<g clip-path="url(#clip1)" clip-rule="nonzero">
<path style=" stroke:none;fill-rule:nonzero;fill:rgb(92.89856%,12.89978%,15.299988%);fill-opacity:1;" d="M 143.929688 37.183594 C 138.195313 38.28125 133.285156 42.414063 130.910156 47.703125 C 128.257813 53.578125 128.027344 60.410156 129.703125 66.601563 C 131.382813 72.714844 136.066406 78.105469 142.242188 79.902344 C 148.675781 81.921875 156.167969 80.082031 160.773438 75.109375 C 165.636719 70.011719 167.136719 62.558594 166.460938 55.730469 C 165.933594 49.625 163.089844 43.460938 157.914063 39.964844 C 153.890625 37.144531 148.714844 36.230469 143.929688 37.183594 Z M 144.519531 26.65625 C 154.089844 24.746094 164.238281 28.785156 170.46875 36.152344 C 182.425781 49.777344 181.113281 73.003906 167.082031 84.703125 C 158.425781 92.339844 144.785156 93.539063 135.101563 87.167969 C 132.3125 85.535156 130.292969 82.980469 128.140625 80.65625 C 129.042969 92.246094 128.507813 103.878906 128.65625 115.492188 C 124.816406 115.507813 120.980469 115.5 117.148438 115.492188 C 117.148438 86.390625 117.140625 57.300781 117.148438 28.203125 C 120.808594 28.1875 124.476563 28.1875 128.140625 28.203125 C 128.140625 31.109375 128.132813 34.007813 128.179688 36.914063 C 132.082031 31.582031 137.960938 27.746094 144.519531 26.65625 "/>
</g>
<path style=" stroke:none;fill-rule:nonzero;fill:rgb(92.89856%,12.89978%,15.299988%);fill-opacity:1;" d="M 275.296875 60.167969 C 272.753906 60.664063 270.222656 61.613281 268.25 63.335938 C 264.054688 66.707031 263.332031 73.769531 267.199219 77.648438 C 270.496094 80.742188 275.453125 81.292969 279.761719 80.726563 C 287.84375 79.148438 295.226563 71.503906 294.695313 63.035156 C 288.921875 59.652344 281.785156 59.320313 275.296875 60.167969 Z M 264.753906 29.914063 C 271.371094 26.089844 279.453125 25.5 286.863281 26.914063 C 292.871094 28.0625 298.550781 31.421875 301.914063 36.625 C 305.15625 41.558594 306.34375 47.558594 306.382813 53.390625 C 306.375 65.371094 306.398438 77.34375 306.367188 89.324219 C 302.707031 89.304688 299.054688 89.304688 295.402344 89.316406 C 295.371094 86.429688 295.410156 83.539063 295.355469 80.648438 C 291.269531 86.21875 285.109375 90.5 278.109375 91.167969 C 272.34375 91.632813 266.261719 90.65625 261.328125 87.507813 C 251.148438 81.214844 249.5 64.640625 258.621094 56.71875 C 262.902344 52.949219 268.535156 51.09375 274.117188 50.386719 C 281.300781 49.5 288.871094 50.167969 295.417969 53.445313 C 295.558594 49.304688 294.976563 44.84375 292.148438 41.605469 C 287.65625 36.316406 279.648438 35.46875 273.390625 37.675781 C 269.515625 38.996094 266.867188 42.296875 264.792969 45.660156 C 261.273438 44.363281 257.683594 43.285156 254.164063 41.996094 C 256.539063 37.128906 259.964844 32.609375 264.753906 29.914063 "/>
<path style=" stroke:none;fill-rule:nonzero;fill:rgb(92.89856%,12.89978%,15.299988%);fill-opacity:1;" d="M 411.042969 39.476563 C 406.863281 42.148438 404.285156 46.6875 403.035156 51.386719 C 414.726563 51.402344 426.425781 51.410156 438.121094 51.378906 C 437.484375 45.910156 434.050781 40.765625 428.945313 38.539063 C 423.296875 36.105469 416.296875 36.042969 411.042969 39.476563 Z M 412.761719 27.15625 C 423.429688 24.496094 435.976563 27.371094 443.046875 36.175781 C 448.710938 42.980469 450.644531 52.1875 450.1875 60.867188 C 434.226563 60.882813 418.261719 60.859375 402.296875 60.875 C 402.605469 66.460938 404.546875 72.195313 408.804688 76.007813 C 415.332031 82.117188 426.320313 82.203125 433.210938 76.644531 C 435.6875 74.664063 437.523438 72.015625 438.882813 69.171875 C 442.363281 70.5 445.765625 72.046875 449.191406 73.5 C 446.699219 79.039063 442.652344 83.949219 437.390625 87.050781 C 430.390625 91.191406 421.773438 92.230469 413.878906 90.515625 C 406.492188 88.90625 399.824219 84.269531 395.761719 77.890625 C 389.117188 67.617188 388.613281 53.828125 393.972656 42.894531 C 397.640625 35.320313 404.546875 29.246094 412.761719 27.15625 "/>
</g>
</svg>
