<?xml version="1.0" encoding="utf-8"?>
<svg width="75pt" height="59pt" viewBox="0 0 75 59" version="1.1" xmlns="http://www.w3.org/2000/svg">
  <g id="surface1" style="" transform="matrix(2.489949, 0, 0, 2.223603, -55.601498, -40.971615)">
    <path style=" stroke:none;fill-rule:evenodd;fill:rgb(5.499268%,6.298828%,7.499695%);fill-opacity:1;" d="M 36.886719 27.394531 L 36.847656 26.15625 L 35.289063 26.152344 L 35.285156 32.855469 L 36.84375 32.855469 C 36.929688 32.175781 36.78125 30.496094 36.875 29.628906 C 36.96875 28.710938 37.363281 27.777344 38.058594 27.527344 C 38.246094 27.460938 38.542969 27.4375 38.734375 27.503906 C 39.238281 27.691406 39.117188 29.039063 39.117188 29.578125 C 39.117188 29.851563 39.097656 32.660156 39.125 32.855469 L 40.679688 32.855469 C 40.714844 32.5625 40.6875 30.363281 40.6875 29.867188 C 40.6875 29.015625 40.78125 27.769531 40.476563 27.066406 C 40.175781 26.367188 39.550781 25.875 38.53125 26.019531 C 37.683594 26.144531 37.152344 26.730469 36.886719 27.394531 "/>
    <path style=" stroke:none;fill-rule:evenodd;fill:rgb(5.499268%,6.298828%,7.499695%);fill-opacity:1;" d="M 50.441406 31.621094 L 50.441406 32.851563 L 52 32.855469 L 52.007813 26.15625 L 50.441406 26.152344 C 50.40625 27.019531 50.496094 28.726563 50.421875 29.402344 C 50.324219 30.285156 49.917969 31.238281 49.246094 31.476563 C 49.054688 31.542969 48.753906 31.578125 48.542969 31.496094 C 48.34375 31.421875 48.28125 31.238281 48.234375 30.988281 C 48.082031 30.222656 48.265625 26.417969 48.15625 26.148438 L 46.621094 26.148438 C 46.582031 26.339844 46.609375 28.738281 46.609375 29.144531 C 46.609375 30.015625 46.519531 31.21875 46.820313 31.941406 C 47.105469 32.628906 47.734375 33.148438 48.761719 32.988281 C 49.238281 32.917969 49.511719 32.734375 49.796875 32.507813 C 49.984375 32.355469 50.164063 32.097656 50.292969 31.871094 L 50.441406 31.621094 "/>
    <path style=" stroke:none;fill-rule:evenodd;fill:rgb(5.499268%,6.298828%,7.499695%);fill-opacity:1;" d="M 14.742188 29.902344 C 14.824219 30.4375 14.5 31.230469 14.242188 31.511719 C 13.792969 31.996094 13.074219 32.035156 12.738281 31.6875 C 12.558594 31.507813 12.480469 31.1875 12.5625 30.867188 C 12.769531 30.09375 14.054688 29.875 14.742188 29.902344 Z M 11.007813 31 L 11.007813 31.46875 C 11.101563 31.691406 11.078125 32.101563 11.515625 32.5 C 12.257813 33.167969 13.6875 33.195313 14.402344 32.539063 C 14.589844 32.367188 14.664063 32.152344 14.753906 32.089844 L 14.753906 32.851563 L 16.238281 32.855469 C 16.265625 32.652344 16.246094 29.652344 16.246094 29.363281 C 16.246094 28.863281 16.289063 28.109375 16.222656 27.648438 C 16.15625 27.210938 15.953125 26.753906 15.613281 26.496094 C 14.625 25.75 12.4375 25.808594 11.679688 26.800781 C 11.445313 27.109375 11.21875 27.597656 11.265625 28.121094 L 12.78125 28.128906 C 12.824219 27.71875 12.890625 27.464844 13.148438 27.28125 C 13.382813 27.109375 13.816406 27.046875 14.144531 27.144531 C 14.8125 27.347656 14.785156 28.210938 14.75 28.976563 C 14.320313 29.027344 13.878906 29.019531 13.4375 29.082031 C 13.039063 29.140625 12.621094 29.238281 12.289063 29.386719 C 11.773438 29.613281 11.386719 29.902344 11.160156 30.429688 C 11.078125 30.621094 11.066406 30.859375 11.007813 31 "/>
    <path style=" stroke:none;fill-rule:evenodd;fill:rgb(5.499268%,6.298828%,7.499695%);fill-opacity:1;" d="M 30.570313 28.144531 C 30.582031 27.53125 31.160156 27.015625 31.785156 27 C 32.472656 26.980469 33.054688 27.4375 33.003906 28.152344 Z M 34.3125 32.742188 L 34.3125 31.667969 C 34.121094 31.699219 33.886719 31.792969 33.660156 31.84375 C 32.441406 32.09375 31.402344 31.582031 30.855469 30.507813 C 30.6875 30.171875 30.480469 29.550781 30.523438 29.097656 L 34.484375 29.097656 C 34.558594 27.363281 33.925781 26.179688 32.308594 26.015625 C 30.5625 25.835938 29.464844 26.691406 29.167969 28.117188 C 28.886719 29.457031 29.125 31.253906 30.128906 32.203125 C 30.570313 32.617188 31.15625 32.90625 31.972656 32.988281 C 32.609375 33.054688 33.792969 32.96875 34.3125 32.742188 "/>
    <path style=" stroke:none;fill-rule:evenodd;fill:rgb(5.499268%,6.298828%,7.499695%);fill-opacity:1;" d="M 58.570313 28.152344 C 58.550781 27.796875 58.792969 27.5 58.957031 27.339844 C 59.148438 27.148438 59.433594 27.003906 59.800781 27 C 60.539063 26.984375 61.070313 27.515625 61 28.152344 Z M 62.316406 32.75 L 62.316406 31.664063 C 61.792969 31.777344 61.460938 31.957031 60.835938 31.902344 C 60.332031 31.859375 59.914063 31.660156 59.601563 31.417969 C 59.105469 31.039063 58.457031 30.109375 58.519531 29.097656 L 62.480469 29.097656 C 62.570313 27.371094 61.914063 26.191406 60.328125 26.019531 C 58.570313 25.828125 57.476563 26.671875 57.167969 28.101563 C 56.917969 29.234375 57.074219 30.871094 57.804688 31.839844 C 58.613281 32.910156 59.851563 33.121094 61.214844 32.976563 C 61.648438 32.929688 61.949219 32.832031 62.316406 32.75 "/>
    <path style=" stroke:none;fill-rule:evenodd;fill:rgb(5.499268%,6.298828%,7.499695%);fill-opacity:1;" d="M 28.480469 32.667969 L 28.480469 31.75 C 28.042969 31.804688 27.835938 31.960938 27.117188 31.902344 C 24.15625 31.660156 24.164063 27.949219 25.273438 27.265625 C 25.613281 27.054688 26.152344 27.03125 26.476563 27.289063 C 26.792969 27.539063 26.867188 27.921875 26.882813 28.449219 L 28.542969 28.453125 C 28.605469 26.667969 27.414063 25.921875 25.753906 26.003906 C 24.167969 26.082031 23.21875 27.011719 22.980469 28.46875 C 22.863281 29.203125 22.9375 30.136719 23.15625 30.804688 C 23.386719 31.503906 23.769531 32.027344 24.230469 32.355469 C 24.761719 32.734375 25.378906 32.960938 26.1875 33.003906 C 26.800781 33.035156 27.390625 32.976563 27.980469 32.839844 C 28.09375 32.8125 28.429688 32.753906 28.480469 32.667969 "/>
    <path style=" stroke:none;fill-rule:evenodd;fill:rgb(5.499268%,6.298828%,7.499695%);fill-opacity:1;" d="M 22.472656 32.667969 L 22.472656 31.753906 C 22.015625 31.808594 21.832031 31.960938 21.109375 31.902344 C 19.828125 31.796875 18.917969 31.027344 18.65625 29.664063 C 18.476563 28.753906 18.648438 27.648438 19.265625 27.265625 C 19.613281 27.050781 20.140625 27.03125 20.472656 27.28125 C 20.789063 27.523438 20.851563 27.933594 20.882813 28.449219 L 22.542969 28.453125 C 22.585938 26.714844 21.472656 25.914063 19.746094 26.007813 C 18.167969 26.089844 17.210938 27.007813 16.976563 28.476563 C 16.855469 29.242188 16.929688 30.101563 17.148438 30.800781 C 17.371094 31.5 17.773438 32.023438 18.226563 32.351563 C 18.730469 32.722656 19.382813 32.960938 20.175781 33.003906 C 20.878906 33.039063 21.570313 32.957031 22.238281 32.773438 C 22.324219 32.75 22.433594 32.742188 22.472656 32.667969 "/>
    <path style=" stroke:none;fill-rule:evenodd;fill:rgb(5.499268%,6.298828%,7.499695%);fill-opacity:1;" d="M 42.375 24.558594 L 42.375 26.144531 L 41.0625 26.152344 L 41.0625 27.226563 L 42.371094 27.238281 C 42.4375 28.300781 42.277344 31.039063 42.429688 31.773438 C 42.5625 32.421875 42.925781 32.789063 43.566406 32.929688 C 44.195313 33.070313 45.066406 33.019531 45.703125 32.902344 L 45.710938 31.804688 C 45.382813 31.832031 44.800781 32.0625 44.34375 31.738281 C 44.007813 31.503906 43.9375 31.042969 43.9375 30.496094 C 43.9375 29.894531 43.90625 27.632813 43.941406 27.238281 L 45.917969 27.238281 L 45.925781 26.15625 L 43.9375 26.148438 L 43.9375 23.933594 L 42.375 24.558594 "/>
    <path style=" stroke:none;fill-rule:evenodd;fill:rgb(5.499268%,6.298828%,7.499695%);fill-opacity:1;" d="M 54.554688 27.375 L 54.554688 26.152344 L 52.992188 26.152344 L 52.988281 32.855469 L 54.550781 32.855469 C 54.636719 31.894531 54.460938 30.113281 54.605469 29.214844 C 54.703125 28.621094 54.90625 28.273438 55.253906 28.003906 C 55.675781 27.679688 56.152344 27.683594 56.742188 27.632813 L 56.75 26 C 56.242188 25.953125 55.660156 26.164063 55.363281 26.398438 C 55.09375 26.613281 54.921875 26.832031 54.738281 27.125 C 54.710938 27.167969 54.679688 27.214844 54.65625 27.257813 C 54.613281 27.332031 54.613281 27.359375 54.554688 27.375 "/>
    <path style=" stroke:none;fill-rule:evenodd;fill:rgb(92.89856%,10.998535%,14.099121%);fill-opacity:1;" d="M 41.109375 18.289063 L 41.058594 18.289063 L 41.058594 19.390625 L 44.59375 20.765625 C 44.441406 20.890625 41.332031 21.996094 41.0625 22.15625 L 41.058594 23.246094 L 45.925781 21.28125 L 45.929688 20.261719 L 41.726563 18.554688 C 41.617188 18.511719 41.527344 18.476563 41.417969 18.429688 L 41.160156 18.324219 C 41.132813 18.304688 41.125 18.300781 41.109375 18.289063 "/>
    <path style=" stroke:none;fill-rule:evenodd;fill:rgb(13.699341%,12.199402%,12.5%);fill-opacity:1;" d="M 46.554688 39.03125 L 46.546875 36.121094 C 47.554688 36.121094 47.972656 36.292969 47.972656 37.566406 C 47.972656 38.003906 47.917969 38.449219 47.695313 38.730469 C 47.449219 39.039063 47.050781 39.03125 46.554688 39.03125 Z M 46.132813 39.378906 C 47.503906 39.378906 48.421875 39.453125 48.421875 37.515625 C 48.421875 36.457031 48.03125 35.777344 46.964844 35.777344 L 46.132813 35.777344 L 46.132813 39.378906 "/>
    <path style=" stroke:none;fill-rule:evenodd;fill:rgb(13.699341%,12.199402%,12.5%);fill-opacity:1;" d="M 11.253906 39.371094 L 11.664063 39.378906 L 11.664063 37.683594 L 13.148438 37.6875 L 13.148438 39.378906 L 13.558594 39.367188 L 13.558594 35.789063 C 13.414063 35.765625 13.300781 35.773438 13.148438 35.777344 L 13.144531 37.332031 L 11.675781 37.335938 L 11.664063 35.777344 L 11.253906 35.777344 L 11.253906 39.371094 "/>
    <path style=" stroke:none;fill-rule:evenodd;fill:rgb(13.699341%,12.199402%,12.5%);fill-opacity:1;" d="M 32.421875 37.367188 L 32.421875 36.90625 L 32.0625 36.894531 L 32.058594 39.367188 L 32.421875 39.378906 C 32.421875 38.878906 32.300781 37.4375 32.910156 37.21875 C 33.445313 37.023438 33.398438 37.792969 33.398438 38.023438 C 33.398438 38.472656 33.398438 38.925781 33.398438 39.378906 L 33.757813 39.375 C 33.753906 38.878906 33.644531 37.425781 34.257813 37.214844 C 34.796875 37.027344 34.738281 37.832031 34.738281 38.046875 C 34.738281 38.484375 34.738281 38.925781 34.738281 39.363281 L 35.09375 39.378906 C 35.09375 38.949219 35.148438 37.5 35.027344 37.21875 C 34.796875 36.691406 34.070313 36.648438 33.75 37.386719 C 33.605469 36.636719 32.90625 36.792969 32.683594 36.992188 C 32.640625 37.03125 32.589844 37.09375 32.554688 37.152344 C 32.5 37.246094 32.507813 37.292969 32.421875 37.367188 "/>
    <path style=" stroke:none;fill-rule:evenodd;fill:rgb(13.699341%,12.199402%,12.5%);fill-opacity:1;" d="M 15.726563 37.160156 C 16.460938 36.898438 16.664063 38.699219 16.019531 39.027344 C 15.355469 39.367188 15.214844 38.207031 15.390625 37.578125 C 15.453125 37.359375 15.53125 37.226563 15.726563 37.160156 Z M 16.402344 38.921875 C 16.496094 39.632813 16.378906 40.183594 15.617188 40.15625 C 15.347656 40.148438 15.253906 40.070313 15.046875 40.023438 C 15.039063 40.417969 14.96875 40.375 15.335938 40.429688 C 15.554688 40.460938 15.789063 40.472656 16.003906 40.4375 C 16.96875 40.273438 16.773438 39.214844 16.773438 38.335938 C 16.773438 37.929688 16.8125 37.273438 16.765625 36.898438 L 16.417969 36.894531 L 16.410156 37.261719 C 16.277344 37.085938 16.265625 36.960938 15.996094 36.871094 C 14.78125 36.46875 14.597656 38.847656 15.351563 39.277344 C 15.535156 39.382813 15.800781 39.410156 16.007813 39.332031 C 16.203125 39.257813 16.328125 39.121094 16.402344 38.921875 "/>
    <path style=" stroke:none;fill-rule:evenodd;fill:rgb(13.699341%,12.199402%,12.5%);fill-opacity:1;" d="M 61.46875 37.148438 C 62.246094 36.949219 62.347656 38.878906 61.679688 39.109375 C 61.445313 39.191406 61.25 39.0625 61.160156 38.90625 C 60.96875 38.566406 60.910156 37.292969 61.46875 37.148438 Z M 62.128906 37.238281 C 62.117188 37.230469 62.109375 37.21875 62.109375 37.222656 L 62.035156 37.113281 C 61.996094 37.054688 62.007813 37.066406 61.949219 37.011719 C 61.582031 36.664063 60.625 36.671875 60.625 38.242188 C 60.625 39.597656 61.671875 39.671875 62.046875 39.113281 C 62.066406 39.089844 62.0625 39.089844 62.082031 39.070313 C 62.113281 39.03125 62.089844 39.050781 62.125 39.023438 L 62.128906 39.363281 L 62.492188 39.367188 L 62.492188 35.789063 C 62.355469 35.765625 62.265625 35.773438 62.128906 35.785156 L 62.128906 37.238281 "/>
    <path style=" stroke:none;fill-rule:evenodd;fill:rgb(13.699341%,12.199402%,12.5%);fill-opacity:1;" d="M 21.46875 37.15625 C 21.703125 37.082031 21.878906 37.226563 21.960938 37.375 C 22.167969 37.773438 22.167969 39.03125 21.640625 39.125 C 20.871094 39.265625 20.75 37.390625 21.46875 37.15625 Z M 20.632813 40.484375 L 20.992188 40.484375 L 20.996094 39.015625 C 21.125 39.195313 21.164063 39.320313 21.410156 39.398438 C 22.65625 39.785156 22.773438 37.40625 22.089844 36.957031 C 21.6875 36.691406 21.289063 36.839844 21.042969 37.199219 L 20.992188 36.902344 L 20.640625 36.894531 L 20.632813 40.484375 "/>
    <path style=" stroke:none;fill-rule:evenodd;fill:rgb(13.699341%,12.199402%,12.5%);fill-opacity:1;" d="M 17.296875 39.378906 L 17.660156 39.367188 C 17.65625 38.835938 17.53125 37.441406 18.214844 37.21875 C 18.730469 37.050781 18.722656 37.636719 18.722656 38.023438 C 18.722656 38.472656 18.722656 38.925781 18.722656 39.375 L 19.078125 39.378906 L 19.078125 37.613281 C 19.078125 36.65625 18.066406 36.609375 17.742188 37.273438 L 17.660156 37.40625 L 17.65625 35.789063 C 17.519531 35.761719 17.445313 35.773438 17.296875 35.777344 L 17.296875 39.378906 "/>
    <path style=" stroke:none;fill-rule:evenodd;fill:rgb(13.699341%,12.199402%,12.5%);fill-opacity:1;" d="M 36.9375 38.25 C 36.914063 39.15625 36.246094 39.242188 36.03125 39.039063 C 35.8125 38.832031 35.945313 38.535156 36.132813 38.410156 C 36.339844 38.269531 36.640625 38.25 36.9375 38.25 Z M 35.578125 37.53125 L 35.960938 37.53125 C 36 37.453125 36.046875 37.019531 36.621094 37.152344 C 36.910156 37.21875 37.007813 37.625 36.921875 37.949219 C 36.785156 37.984375 36.554688 37.964844 36.382813 37.992188 C 35.945313 38.070313 35.453125 38.296875 35.519531 38.867188 C 35.609375 39.644531 36.609375 39.53125 36.9375 39.070313 L 36.949219 39.371094 L 37.296875 39.378906 C 37.296875 38.964844 37.296875 38.554688 37.296875 38.144531 C 37.296875 37.78125 37.351563 37.308594 37.132813 37.070313 C 36.71875 36.625 35.503906 36.804688 35.578125 37.53125 "/>
    <path style=" stroke:none;fill-rule:evenodd;fill:rgb(13.699341%,12.199402%,12.5%);fill-opacity:1;" d="M 28.511719 38.09375 C 28.511719 37.621094 28.664063 37.109375 29.15625 37.136719 C 29.929688 37.179688 29.941406 39.109375 29.128906 39.132813 C 28.613281 39.148438 28.511719 38.566406 28.511719 38.09375 Z M 28.910156 36.851563 C 28.265625 36.96875 28.042969 37.613281 28.109375 38.351563 C 28.171875 39.042969 28.550781 39.5625 29.339844 39.414063 C 29.976563 39.292969 30.191406 38.648438 30.125 37.914063 C 30.066406 37.234375 29.683594 36.714844 28.910156 36.851563 "/>
    <path style=" stroke:none;fill-rule:evenodd;fill:rgb(13.699341%,12.199402%,12.5%);fill-opacity:1;" d="M 49.1875 37.597656 C 49.261719 37 50.121094 36.960938 50.164063 37.597656 Z M 50.519531 39.363281 L 50.519531 39.070313 C 50.070313 39.132813 49.78125 39.21875 49.472656 38.914063 C 49.210938 38.652344 49.148438 38.371094 49.148438 37.902344 L 50.582031 37.902344 C 50.585938 37.316406 50.390625 36.898438 49.832031 36.839844 C 48.515625 36.703125 48.539063 38.519531 49.070313 39.101563 C 49.394531 39.449219 49.949219 39.503906 50.519531 39.363281 "/>
    <path style=" stroke:none;fill-rule:evenodd;fill:rgb(13.699341%,12.199402%,12.5%);fill-opacity:1;" d="M 42.511719 37.597656 C 42.613281 36.992188 43.441406 36.960938 43.496094 37.597656 Z M 43.847656 39.078125 C 43.636719 39.085938 43.492188 39.15625 43.253906 39.128906 C 42.644531 39.054688 42.484375 38.5 42.484375 37.902344 L 43.90625 37.902344 C 43.914063 37.277344 43.695313 36.855469 43.078125 36.835938 C 41.765625 36.792969 41.894531 38.738281 42.503906 39.199219 C 42.832031 39.441406 43.265625 39.472656 43.683594 39.402344 C 43.917969 39.363281 43.847656 39.328125 43.847656 39.078125 "/>
    <path style=" stroke:none;fill-rule:evenodd;fill:rgb(13.699341%,12.199402%,12.5%);fill-opacity:1;" d="M 58.929688 37.59375 C 59.050781 36.96875 59.878906 36.992188 59.914063 37.597656 Z M 60.265625 39.363281 L 60.265625 39.074219 C 59.828125 39.125 59.523438 39.214844 59.21875 38.914063 C 58.957031 38.660156 58.898438 38.363281 58.898438 37.90625 L 60.328125 37.902344 C 60.328125 37.316406 60.140625 36.898438 59.582031 36.839844 C 58.261719 36.703125 58.292969 38.535156 58.820313 39.101563 C 59.148438 39.449219 59.695313 39.507813 60.265625 39.363281 "/>
    <path style=" stroke:none;fill-rule:evenodd;fill:rgb(13.699341%,12.199402%,12.5%);fill-opacity:1;" d="M 23.222656 37.589844 C 23.335938 36.976563 24.164063 36.988281 24.207031 37.59375 L 24.113281 37.597656 L 23.316406 37.597656 Z M 24.554688 39.359375 L 24.5625 39.070313 C 24.277344 39.09375 23.878906 39.253906 23.519531 38.929688 C 23.269531 38.703125 23.191406 38.332031 23.191406 37.90625 L 24.617188 37.902344 C 24.621094 37.308594 24.433594 36.898438 23.871094 36.839844 C 22.542969 36.703125 22.59375 38.5625 23.109375 39.097656 C 23.476563 39.472656 24.136719 39.515625 24.554688 39.359375 "/>
    <path style=" stroke:none;fill-rule:evenodd;fill:rgb(13.699341%,12.199402%,12.5%);fill-opacity:1;" d="M 55.308594 37.597656 C 55.421875 36.96875 56.257813 36.988281 56.289063 37.597656 Z M 56.648438 39.328125 L 56.648438 39.074219 C 56.195313 39.117188 55.921875 39.226563 55.601563 38.914063 C 55.34375 38.664063 55.277344 38.371094 55.277344 37.902344 L 56.703125 37.902344 C 56.707031 37.308594 56.515625 36.890625 55.941406 36.839844 C 54.613281 36.722656 54.691406 38.582031 55.214844 39.109375 C 55.367188 39.265625 55.535156 39.371094 55.824219 39.414063 C 55.984375 39.441406 56.550781 39.460938 56.648438 39.328125 "/>
    <path style=" stroke:none;fill-rule:evenodd;fill:rgb(13.699341%,12.199402%,12.5%);fill-opacity:1;" d="M 38.214844 37.382813 L 38.210938 36.90625 L 37.855469 36.894531 L 37.851563 39.367188 L 38.207031 39.378906 C 38.210938 38.992188 38.175781 38.402344 38.238281 38.054688 C 38.304688 37.710938 38.472656 37.328125 38.753906 37.222656 C 39.277344 37.027344 39.273438 37.644531 39.273438 38.023438 C 39.273438 38.46875 39.273438 38.917969 39.273438 39.367188 L 39.628906 39.378906 C 39.628906 38.9375 39.683594 37.515625 39.558594 37.222656 C 39.359375 36.746094 38.648438 36.613281 38.289063 37.285156 L 38.214844 37.382813 "/>
    <path style=" stroke:none;fill-rule:evenodd;fill:rgb(13.699341%,12.199402%,12.5%);fill-opacity:1;" d="M 26.921875 36.882813 L 26.511719 36.898438 L 26.503906 37.179688 L 26.917969 37.191406 L 26.925781 39.378906 L 27.28125 39.378906 L 27.28125 37.195313 L 27.996094 37.1875 L 27.992188 36.894531 L 27.285156 36.894531 C 27.207031 35.785156 27.835938 36.105469 28.15625 36.113281 L 28.15625 35.8125 C 27.839844 35.710938 27.386719 35.75 27.179688 35.925781 C 26.890625 36.171875 26.933594 36.425781 26.921875 36.882813 "/>
    <path style=" stroke:none;fill-rule:evenodd;fill:rgb(13.699341%,12.199402%,12.5%);fill-opacity:1;" d="M 41.847656 39.367188 L 41.855469 39.09375 C 41.429688 39.117188 41.164063 39.195313 40.84375 38.953125 C 40.628906 38.785156 40.488281 38.480469 40.472656 38.097656 C 40.457031 37.71875 40.550781 37.34375 40.804688 37.199219 C 40.953125 37.117188 41.183594 37.121094 41.3125 37.207031 C 41.453125 37.300781 41.46875 37.453125 41.5 37.644531 L 41.910156 37.652344 C 41.996094 37.183594 41.585938 36.796875 40.976563 36.835938 C 40.429688 36.875 40.164063 37.210938 40.082031 37.734375 C 39.894531 38.96875 40.609375 39.648438 41.847656 39.367188 "/>
    <path style=" stroke:none;fill-rule:evenodd;fill:rgb(13.699341%,12.199402%,12.5%);fill-opacity:1;" d="M 53.59375 39.375 L 53.960938 39.375 C 54.074219 38.9375 54.773438 37.085938 54.78125 36.894531 L 54.417969 36.894531 C 54.351563 37.003906 54.027344 38.078125 53.941406 38.339844 L 53.785156 38.792969 C 53.785156 38.796875 53.78125 38.804688 53.777344 38.804688 C 53.777344 38.808594 53.773438 38.816406 53.769531 38.820313 C 53.648438 38.632813 53.210938 37.277344 53.035156 36.898438 L 52.664063 36.894531 L 53.59375 39.375 "/>
    <path style=" stroke:none;fill-rule:evenodd;fill:rgb(13.699341%,12.199402%,12.5%);fill-opacity:1;" d="M 51.03125 39.378906 L 51.304688 39.378906 L 51.394531 39.367188 L 51.394531 35.789063 L 51.304688 35.773438 L 51.03125 35.777344 L 51.03125 39.378906 "/>
    <path style=" stroke:none;fill-rule:evenodd;fill:rgb(13.699341%,12.199402%,12.5%);fill-opacity:1;" d="M 30.925781 37.3125 L 30.925781 36.90625 L 30.566406 36.894531 L 30.5625 39.367188 L 30.925781 39.378906 C 30.925781 38.320313 30.730469 37.363281 31.765625 37.210938 L 31.765625 36.839844 C 31.5 36.828125 31.238281 36.925781 31.089844 37.109375 C 31.019531 37.199219 31.011719 37.253906 30.925781 37.3125 "/>
    <path style=" stroke:none;fill-rule:evenodd;fill:rgb(13.699341%,12.199402%,12.5%);fill-opacity:1;" d="M 25.40625 37.359375 L 25.398438 36.898438 L 25.042969 36.898438 L 25.042969 39.378906 L 25.398438 39.378906 C 25.398438 38.453125 25.222656 37.289063 26.226563 37.21875 L 26.242188 36.835938 C 26.011719 36.839844 25.855469 36.878906 25.703125 36.984375 C 25.613281 37.046875 25.449219 37.230469 25.40625 37.359375 "/>
    <path style=" stroke:none;fill-rule:evenodd;fill:rgb(13.699341%,12.199402%,12.5%);fill-opacity:1;" d="M 57.519531 37.339844 L 57.515625 36.902344 L 57.160156 36.898438 L 57.160156 39.375 L 57.515625 39.378906 C 57.515625 38.410156 57.320313 37.328125 58.34375 37.214844 L 58.355469 36.839844 C 58.066406 36.828125 57.800781 36.941406 57.648438 37.152344 C 57.613281 37.203125 57.558594 37.316406 57.519531 37.339844 "/>
    <path style=" stroke:none;fill-rule:evenodd;fill:rgb(13.699341%,12.199402%,12.5%);fill-opacity:1;" d="M 52.019531 39.375 L 52.375 39.378906 L 52.375 36.902344 L 52.019531 36.898438 L 52.019531 39.375 "/>
    <path style=" stroke:none;fill-rule:evenodd;fill:rgb(13.699341%,12.199402%,12.5%);fill-opacity:1;" d="M 14.171875 39.371094 L 14.527344 39.375 L 14.527344 36.898438 L 14.179688 36.894531 L 14.171875 39.371094 "/>
    <path style=" stroke:none;fill-rule:evenodd;fill:rgb(13.699341%,12.199402%,12.5%);fill-opacity:1;" d="M 63.46875 39.378906 L 63.46875 38.851563 L 62.949219 38.851563 L 62.941406 39.367188 L 63.46875 39.378906 "/>
    <path style=" stroke:none;fill-rule:evenodd;fill:rgb(13.699341%,12.199402%,12.5%);fill-opacity:1;" d="M 44.1875 39.371094 L 44.710938 39.375 L 44.710938 38.859375 L 44.199219 38.851563 L 44.1875 39.371094 "/>
    <path style=" stroke:none;fill-rule:evenodd;fill:rgb(13.699341%,12.199402%,12.5%);fill-opacity:1;" d="M 14.113281 36.253906 L 14.589844 36.253906 L 14.589844 35.777344 L 14.113281 35.777344 L 14.113281 36.253906 "/>
    <path style=" stroke:none;fill-rule:evenodd;fill:rgb(13.699341%,12.199402%,12.5%);fill-opacity:1;" d="M 51.964844 36.246094 L 52.425781 36.253906 L 52.4375 35.785156 L 51.964844 35.777344 L 51.964844 36.246094 "/>
  </g>
</svg>