<?xml version="1.0" encoding="UTF-8"?>
<svg xmlns="http://www.w3.org/2000/svg" xmlns:xlink="http://www.w3.org/1999/xlink" width="164.25pt" height="106.5pt" viewBox="0 0 164.25 106.5" version="1.1">
<g id="surface1">
<path style=" stroke:none;fill-rule:evenodd;fill:rgb(0%,41.19873%,25.099182%);fill-opacity:1;" d="M 12.160156 39.390625 L 27.425781 39.390625 L 32.382813 62.738281 L 32.511719 62.738281 L 39.425781 39.390625 L 57.039063 39.390625 L 63.820313 62.738281 L 64.082031 62.738281 L 68.910156 39.390625 L 83.128906 39.390625 L 74.257813 76.699219 L 54.429688 76.699219 L 47.777344 54 L 47.644531 54 L 40.863281 76.699219 L 20.902344 76.699219 L 12.160156 39.390625 "/>
<path style=" stroke:none;fill-rule:evenodd;fill:rgb(93.299866%,70.199585%,6.298828%);fill-opacity:1;" d="M 83 39.390625 L 102.957031 39.390625 L 109.742188 62.089844 L 109.871094 62.089844 L 116.523438 39.390625 L 136.351563 39.390625 L 145.222656 76.828125 L 131.003906 76.828125 L 126.179688 53.476563 L 125.914063 53.476563 L 119.132813 76.828125 L 101.523438 76.828125 L 94.605469 53.476563 L 94.476563 53.476563 L 89.519531 76.828125 L 74.257813 76.828125 L 83 39.390625 "/>
<path style=" stroke:none;fill-rule:evenodd;fill:rgb(0%,41.19873%,25.099182%);fill-opacity:1;" d="M 21.46875 82.789063 L 23.800781 82.789063 L 24.519531 86.257813 L 24.578125 86.257813 L 25.597656 82.789063 L 28.226563 82.789063 L 29.246094 86.257813 L 29.304688 86.257813 L 30.023438 82.789063 L 32.175781 82.789063 L 30.800781 88.414063 L 27.871094 88.414063 L 26.851563 84.945313 L 26.792969 84.945313 L 25.835938 88.414063 L 22.785156 88.414063 L 21.46875 82.789063 "/>
<path style=" stroke:none;fill-rule:evenodd;fill:rgb(0%,41.19873%,25.099182%);fill-opacity:1;" d="M 36.960938 86.199219 L 36.125 84.285156 L 35.226563 86.199219 Z M 34.75 82.789063 L 37.679688 82.789063 L 40.550781 88.414063 L 37.980469 88.414063 L 37.558594 87.457031 L 34.628906 87.457031 L 34.210938 88.414063 L 31.878906 88.414063 L 34.75 82.789063 "/>
<path style=" stroke:none;fill-rule:evenodd;fill:rgb(0%,41.19873%,25.099182%);fill-opacity:1;" d="M 43.304688 86.558594 C 43.304688 86.855469 43.363281 87.09375 43.542969 87.277344 C 43.722656 87.398438 43.902344 87.457031 44.199219 87.515625 C 44.679688 87.457031 45.21875 87.335938 45.21875 86.917969 C 45.21875 86.796875 45.21875 86.738281 45.097656 86.679688 C 44.800781 86.320313 42.105469 86.019531 41.390625 85.363281 C 41.089844 85.121094 40.96875 84.703125 40.96875 84.40625 C 40.96875 83.148438 42.105469 82.609375 44.320313 82.609375 C 46.773438 82.609375 47.492188 83.269531 47.492188 84.464844 L 45.15625 84.464844 C 45.15625 84.105469 45.039063 83.925781 44.859375 83.804688 C 44.738281 83.6875 44.5 83.628906 44.199219 83.6875 C 43.722656 83.628906 43.421875 83.867188 43.421875 84.164063 C 43.421875 84.226563 43.484375 84.34375 43.542969 84.40625 C 43.902344 84.703125 46.472656 85.003906 47.253906 85.660156 C 47.492188 85.839844 47.671875 86.140625 47.671875 86.679688 C 47.671875 87.816406 46.714844 88.53125 44.140625 88.53125 C 41.089844 88.53125 40.96875 87.636719 40.910156 86.558594 L 43.304688 86.558594 "/>
<path style=" stroke:none;fill-rule:evenodd;fill:rgb(0%,41.19873%,25.099182%);fill-opacity:1;" d="M 49.945313 84.164063 L 48.148438 84.164063 L 48.148438 82.789063 L 54.191406 82.789063 L 54.191406 84.164063 L 52.335938 84.164063 L 52.335938 88.414063 L 49.945313 88.414063 L 49.945313 84.164063 "/>
<path style=" stroke:none;fill-rule:evenodd;fill:rgb(0%,41.19873%,25.099182%);fill-opacity:1;" d="M 54.847656 82.789063 L 60.234375 82.789063 L 60.234375 83.925781 L 57.121094 83.925781 L 57.121094 85.003906 L 60.054688 85.003906 L 60.054688 86.140625 L 57.121094 86.140625 L 57.121094 87.21875 L 60.292969 87.21875 L 60.292969 88.414063 L 54.847656 88.414063 L 54.847656 82.789063 "/>
<path style=" stroke:none;fill-rule:evenodd;fill:rgb(0%,41.19873%,25.099182%);fill-opacity:1;" d="M 64.601563 82.789063 L 68.191406 82.789063 L 69.328125 86.558594 L 69.386719 86.558594 L 70.464844 82.789063 L 74.113281 82.789063 L 74.113281 88.414063 L 71.898438 88.414063 L 71.898438 84.164063 L 70.34375 88.414063 L 68.070313 88.414063 L 66.636719 84.164063 L 66.574219 84.164063 L 66.574219 88.414063 L 64.601563 88.414063 L 64.601563 82.789063 "/>
<path style=" stroke:none;fill-rule:evenodd;fill:rgb(0%,41.19873%,25.099182%);fill-opacity:1;" d="M 79.734375 86.199219 L 78.839844 84.285156 L 77.941406 86.199219 Z M 77.464844 82.789063 L 80.394531 82.789063 L 83.265625 88.414063 L 80.695313 88.414063 L 80.273438 87.457031 L 77.34375 87.457031 L 76.925781 88.414063 L 74.589844 88.414063 L 77.464844 82.789063 "/>
<path style=" stroke:none;fill-rule:evenodd;fill:rgb(0%,41.19873%,25.099182%);fill-opacity:1;" d="M 83.804688 82.789063 L 87.214844 82.789063 L 89.128906 86.558594 L 89.128906 82.789063 L 91.222656 82.789063 L 91.222656 88.414063 L 87.871094 88.414063 L 85.839844 84.40625 L 85.839844 88.414063 L 83.804688 88.414063 L 83.804688 82.789063 "/>
<path style=" stroke:none;fill-rule:evenodd;fill:rgb(0%,41.19873%,25.099182%);fill-opacity:1;" d="M 96.785156 86.199219 L 95.949219 84.285156 L 94.992188 86.199219 Z M 94.574219 82.789063 L 97.503906 82.789063 L 100.375 88.414063 L 97.742188 88.414063 L 97.324219 87.457031 L 94.453125 87.457031 L 94.035156 88.414063 L 91.703125 88.414063 L 94.574219 82.789063 "/>
<path style=" stroke:none;fill-rule:evenodd;fill:rgb(0%,41.19873%,25.099182%);fill-opacity:1;" d="M 105.339844 84.464844 C 105.339844 84.34375 105.222656 84.164063 105.039063 84.046875 C 104.921875 83.867188 104.621094 83.804688 104.265625 83.804688 C 103.246094 83.804688 102.707031 84.464844 102.707031 85.480469 C 102.707031 86.558594 103.1875 87.335938 104.382813 87.335938 C 104.859375 87.335938 105.28125 87.277344 105.460938 87.15625 L 105.460938 86.320313 L 104.085938 86.320313 L 104.085938 85.121094 L 107.792969 85.121094 L 107.792969 88.054688 C 106.71875 88.292969 105.28125 88.53125 104.023438 88.53125 C 101.214844 88.53125 100.3125 87.277344 100.3125 85.660156 C 100.3125 83.507813 101.8125 82.609375 104.265625 82.609375 C 106.359375 82.609375 107.792969 83.027344 107.792969 84.464844 L 105.339844 84.464844 "/>
<path style=" stroke:none;fill-rule:evenodd;fill:rgb(0%,41.19873%,25.099182%);fill-opacity:1;" d="M 109.109375 82.789063 L 114.492188 82.789063 L 114.492188 83.925781 L 111.382813 83.925781 L 111.382813 85.003906 L 114.253906 85.003906 L 114.253906 86.140625 L 111.382813 86.140625 L 111.382813 87.21875 L 114.492188 87.21875 L 114.492188 88.414063 L 109.109375 88.414063 L 109.109375 82.789063 "/>
<path style=" stroke:none;fill-rule:evenodd;fill:rgb(0%,41.19873%,25.099182%);fill-opacity:1;" d="M 115.570313 82.789063 L 119.160156 82.789063 L 120.296875 86.558594 L 120.355469 86.558594 L 121.492188 82.789063 L 125.082031 82.789063 L 125.082031 88.414063 L 122.867188 88.414063 L 122.867188 84.164063 L 121.3125 88.414063 L 119.039063 88.414063 L 117.605469 84.164063 L 117.542969 84.164063 L 117.542969 88.414063 L 115.570313 88.414063 L 115.570313 82.789063 "/>
<path style=" stroke:none;fill-rule:evenodd;fill:rgb(0%,41.19873%,25.099182%);fill-opacity:1;" d="M 126.398438 82.789063 L 131.78125 82.789063 L 131.78125 83.925781 L 128.671875 83.925781 L 128.671875 85.003906 L 131.542969 85.003906 L 131.542969 86.140625 L 128.671875 86.140625 L 128.671875 87.21875 L 131.78125 87.21875 L 131.78125 88.414063 L 126.398438 88.414063 L 126.398438 82.789063 "/>
<path style=" stroke:none;fill-rule:evenodd;fill:rgb(0%,41.19873%,25.099182%);fill-opacity:1;" d="M 132.800781 82.789063 L 136.269531 82.789063 L 138.183594 86.558594 L 138.183594 82.789063 L 140.277344 82.789063 L 140.277344 88.414063 L 136.929688 88.414063 L 134.894531 84.40625 L 134.894531 88.414063 L 132.800781 88.414063 L 132.800781 82.789063 "/>
<path style=" stroke:none;fill-rule:evenodd;fill:rgb(0%,41.19873%,25.099182%);fill-opacity:1;" d="M 142.851563 84.164063 L 140.996094 84.164063 L 140.996094 82.789063 L 147.035156 82.789063 L 147.035156 84.164063 L 145.183594 84.164063 L 145.183594 88.414063 L 142.851563 88.414063 L 142.851563 84.164063 "/>
<path style=" stroke:none;fill-rule:nonzero;fill:rgb(0%,41.19873%,25.099182%);fill-opacity:1;" d="M 147.878906 72.953125 L 148.914063 72.953125 C 149.136719 72.953125 149.308594 72.929688 149.433594 72.882813 C 149.558594 72.835938 149.648438 72.765625 149.714844 72.664063 C 149.777344 72.5625 149.8125 72.453125 149.8125 72.335938 C 149.8125 72.160156 149.75 72.019531 149.625 71.90625 C 149.5 71.796875 149.300781 71.738281 149.03125 71.738281 L 147.878906 71.738281 Z M 147.394531 74.988281 L 147.394531 71.339844 L 149.011719 71.339844 C 149.339844 71.339844 149.585938 71.371094 149.753906 71.4375 C 149.925781 71.503906 150.058594 71.617188 150.160156 71.785156 C 150.261719 71.949219 150.3125 72.132813 150.3125 72.335938 C 150.3125 72.59375 150.226563 72.8125 150.0625 72.992188 C 149.894531 73.167969 149.632813 73.28125 149.285156 73.332031 C 149.410156 73.390625 149.507813 73.453125 149.574219 73.511719 C 149.71875 73.640625 149.851563 73.800781 149.976563 73.996094 L 150.605469 74.988281 L 150.003906 74.988281 L 149.519531 74.230469 C 149.378906 74.011719 149.261719 73.84375 149.171875 73.726563 C 149.082031 73.613281 149 73.53125 148.925781 73.484375 C 148.855469 73.4375 148.78125 73.40625 148.707031 73.386719 C 148.652344 73.375 148.5625 73.367188 148.4375 73.367188 L 147.878906 73.367188 L 147.878906 74.988281 L 147.394531 74.988281 "/>
<path style="fill:none;stroke-width:5;stroke-linecap:butt;stroke-linejoin:miter;stroke:rgb(0%,41.19873%,25.099182%);stroke-opacity:1;stroke-miterlimit:4;" d="M 1526.25 330 C 1526.25 350.039063 1510.039063 366.25 1490 366.25 C 1469.960938 366.25 1453.75 350.039063 1453.75 330 C 1453.75 309.960938 1469.960938 293.75 1490 293.75 C 1510.039063 293.75 1526.25 309.960938 1526.25 330 Z M 1526.25 330 " transform="matrix(0.1,0,0,-0.1,0,106.5)"/>
<path style="fill:none;stroke-width:20;stroke-linecap:butt;stroke-linejoin:miter;stroke:rgb(0%,41.19873%,25.099182%);stroke-opacity:1;stroke-miterlimit:4;" d="M 10 995 C 10 1028.125 36.875 1055 70 1055 L 1572.5 840 C 1605.625 840 1632.5 813.125 1632.5 780 L 1632.5 70 C 1632.5 36.875 1605.625 10 1572.5 10 L 70 10 C 36.875 10 10 36.875 10 70 Z M 10 995 " transform="matrix(0.1,0,0,-0.1,0,106.5)"/>
</g>
</svg>
