<?xml version="1.0" encoding="UTF-8"?>
<svg xmlns="http://www.w3.org/2000/svg" xmlns:xlink="http://www.w3.org/1999/xlink" width="360pt" height="141.57pt" viewBox="0 0 360 141.57" version="1.1">
<defs>
<clipPath id="clip1">
  <path d="M 0 123 L 12 123 L 12 141.570313 L 0 141.570313 Z M 0 123 "/>
</clipPath>
<clipPath id="clip2">
  <path d="M 22 123 L 34 123 L 34 141.570313 L 22 141.570313 Z M 22 123 "/>
</clipPath>
<clipPath id="clip3">
  <path d="M 43 123 L 56 123 L 56 141.570313 L 43 141.570313 Z M 43 123 "/>
</clipPath>
<clipPath id="clip4">
  <path d="M 65 123 L 82 123 L 82 141.570313 L 65 141.570313 Z M 65 123 "/>
</clipPath>
<clipPath id="clip5">
  <path d="M 91 123 L 108 123 L 108 141.570313 L 91 141.570313 Z M 91 123 "/>
</clipPath>
<clipPath id="clip6">
  <path d="M 117 123 L 132 123 L 132 141.570313 L 117 141.570313 Z M 117 123 "/>
</clipPath>
<clipPath id="clip7">
  <path d="M 141 123 L 162 123 L 162 141.570313 L 141 141.570313 Z M 141 123 "/>
</clipPath>
<clipPath id="clip8">
  <path d="M 170 123 L 190 123 L 190 141.570313 L 170 141.570313 Z M 170 123 "/>
</clipPath>
<clipPath id="clip9">
  <path d="M 201 123 L 207 123 L 207 141.570313 L 201 141.570313 Z M 201 123 "/>
</clipPath>
<clipPath id="clip10">
  <path d="M 216 123 L 234 123 L 234 141.570313 L 216 141.570313 Z M 216 123 "/>
</clipPath>
<clipPath id="clip11">
  <path d="M 254 123 L 276 123 L 276 141.570313 L 254 141.570313 Z M 254 123 "/>
</clipPath>
<clipPath id="clip12">
  <path d="M 284 123 L 300 123 L 300 141.570313 L 284 141.570313 Z M 284 123 "/>
</clipPath>
<clipPath id="clip13">
  <path d="M 306 123 L 323 123 L 323 141.570313 L 306 141.570313 Z M 306 123 "/>
</clipPath>
<clipPath id="clip14">
  <path d="M 332 123 L 344 123 L 344 141.570313 L 332 141.570313 Z M 332 123 "/>
</clipPath>
</defs>
<g id="surface1">
<path style=" stroke:none;fill-rule:nonzero;fill:rgb(3.09906%,36.099243%,66.699219%);fill-opacity:1;" d="M 95.347656 62.332031 L 69.464844 103.269531 L 176.171875 103.269531 L 216.582031 38.824219 L 231.371094 62.332031 L 218.691406 62.332031 L 205.753906 82.667969 L 244.316406 82.667969 L 257.257813 103.269531 L 281.820313 103.269531 L 216.582031 0 L 164.285156 82.667969 L 106.96875 82.667969 L 120.175781 62.332031 L 155.835938 62.332031 L 168.777344 41.730469 L 89.273438 41.730469 L 76.332031 62.332031 L 95.347656 62.332031 "/>
<path style=" stroke:none;fill-rule:nonzero;fill:rgb(3.09906%,36.099243%,66.699219%);fill-opacity:1;" d="M 186.472656 21.128906 L 199.414063 0.792969 L 115.160156 0.792969 L 102.214844 21.390625 L 186.472656 21.128906 "/>
<g clip-path="url(#clip1)" clip-rule="nonzero">
<path style=" stroke:none;fill-rule:nonzero;fill:rgb(57.998657%,58.799744%,59.599304%);fill-opacity:1;" d="M 1.058594 136.8125 L 1.058594 128.101563 C 1.058594 126.515625 0.792969 124.933594 0 123.34375 L 10.828125 123.34375 L 9.507813 126.25 C 8.1875 125.460938 6.339844 125.191406 4.226563 125.191406 L 3.960938 125.191406 L 3.960938 131.535156 L 10.035156 131.535156 L 8.1875 133.910156 C 7.132813 133.644531 5.8125 133.382813 3.964844 133.117188 L 3.964844 139.722656 C 4.226563 139.722656 4.492188 139.722656 4.753906 139.722656 C 7.128906 139.722656 9.511719 139.195313 11.886719 138.402344 L 10.566406 141.304688 L 0 141.304688 C 0.789063 139.984375 1.058594 138.402344 1.058594 136.8125 "/>
</g>
<g clip-path="url(#clip2)" clip-rule="nonzero">
<path style=" stroke:none;fill-rule:nonzero;fill:rgb(57.998657%,58.799744%,59.599304%);fill-opacity:1;" d="M 26.148438 128.101563 L 26.148438 139.71875 C 29.316406 139.453125 31.695313 138.929688 33.808594 138.136719 C 33.277344 139.191406 32.75 140.246094 32.222656 141.304688 L 22.449219 141.304688 C 22.980469 139.984375 23.242188 138.402344 23.242188 136.8125 L 23.242188 128.101563 C 23.242188 126.515625 22.980469 124.933594 22.449219 123.34375 L 27.203125 123.34375 C 26.410156 124.933594 26.148438 126.515625 26.148438 128.101563 "/>
</g>
<g clip-path="url(#clip3)" clip-rule="nonzero">
<path style=" stroke:none;fill-rule:nonzero;fill:rgb(57.998657%,58.799744%,59.599304%);fill-opacity:1;" d="M 44.371094 136.8125 L 44.371094 128.101563 C 44.371094 126.515625 44.109375 124.933594 43.316406 123.34375 L 54.144531 123.34375 L 52.824219 126.25 C 51.503906 125.460938 49.652344 125.191406 47.542969 125.191406 L 47.277344 125.191406 L 47.277344 131.535156 L 53.351563 131.535156 L 51.769531 133.910156 C 50.710938 133.644531 49.128906 133.382813 47.277344 133.117188 L 47.277344 139.722656 C 47.542969 139.722656 47.804688 139.722656 48.070313 139.722656 C 50.710938 139.722656 53.085938 139.195313 55.203125 138.402344 L 53.878906 141.304688 L 43.3125 141.304688 C 44.109375 139.984375 44.371094 138.402344 44.371094 136.8125 "/>
</g>
<g clip-path="url(#clip4)" clip-rule="nonzero">
<path style=" stroke:none;fill-rule:nonzero;fill:rgb(57.998657%,58.799744%,59.599304%);fill-opacity:1;" d="M 75.277344 141.570313 C 72.632813 141.570313 70.519531 140.777344 68.9375 139.71875 C 66.558594 137.871094 65.238281 135.492188 65.238281 132.589844 C 65.238281 129.683594 66.558594 127.308594 68.9375 125.460938 C 71.050781 123.875 73.691406 123.34375 76.597656 123.34375 C 78.179688 123.34375 79.765625 123.34375 81.613281 123.875 L 81.351563 127.042969 C 80.03125 125.988281 77.917969 125.460938 76.070313 125.460938 C 71.578125 125.460938 68.671875 128.101563 68.671875 132.589844 C 68.671875 136.8125 71.578125 139.195313 75.804688 139.195313 C 77.917969 139.195313 80.027344 138.664063 81.878906 137.078125 L 81.878906 140.246094 C 79.5 141.042969 77.125 141.570313 75.277344 141.570313 "/>
</g>
<g clip-path="url(#clip5)" clip-rule="nonzero">
<path style=" stroke:none;fill-rule:nonzero;fill:rgb(57.998657%,58.799744%,59.599304%);fill-opacity:1;" d="M 91.652344 126.515625 L 92.707031 123.34375 L 107.761719 123.34375 L 106.441406 126.515625 C 104.859375 125.722656 103.273438 125.460938 100.894531 125.460938 L 100.894531 136.816406 C 100.894531 138.402344 101.160156 139.988281 101.949219 141.304688 L 97.199219 141.304688 C 97.726563 139.988281 97.992188 138.402344 97.992188 136.816406 L 97.992188 125.460938 C 95.347656 125.460938 93.5 125.722656 91.652344 126.515625 "/>
</g>
<g clip-path="url(#clip6)" clip-rule="nonzero">
<path style=" stroke:none;fill-rule:nonzero;fill:rgb(57.998657%,58.799744%,59.599304%);fill-opacity:1;" d="M 121.234375 136.8125 L 121.234375 133.117188 C 125.195313 138.660156 128.101563 141.304688 128.890625 141.304688 L 131.796875 141.304688 C 129.15625 138.929688 126.777344 136.019531 124.929688 133.117188 C 127.570313 132.324219 128.890625 130.742188 128.890625 128.625 C 128.890625 125.191406 126.25 123.339844 120.441406 123.339844 L 117.269531 123.339844 C 117.800781 124.929688 118.0625 126.515625 118.0625 128.097656 L 118.0625 136.8125 C 118.0625 138.398438 117.800781 139.984375 117.269531 141.300781 L 122.027344 141.300781 C 121.234375 139.984375 121.234375 138.402344 121.234375 136.8125 Z M 121.234375 125.191406 C 124.136719 125.191406 125.722656 126.515625 125.722656 128.628906 C 125.722656 130.742188 124.136719 132.0625 121.234375 132.589844 L 121.234375 125.191406 "/>
</g>
<g clip-path="url(#clip7)" clip-rule="nonzero">
<path style=" stroke:none;fill-rule:nonzero;fill:rgb(57.998657%,58.799744%,59.599304%);fill-opacity:1;" d="M 161.117188 132.324219 C 161.117188 129.683594 160.058594 127.308594 158.210938 125.71875 C 156.363281 124.136719 153.984375 123.34375 151.34375 123.34375 C 148.175781 123.34375 145.265625 124.398438 143.421875 126.515625 C 141.835938 128.101563 141.042969 129.949219 141.042969 132.324219 C 141.042969 135.234375 142.363281 137.871094 144.476563 139.453125 C 146.59375 140.777344 148.703125 141.570313 151.082031 141.570313 C 153.722656 141.570313 156.101563 140.777344 157.949219 139.195313 C 160.058594 137.34375 161.117188 134.96875 161.117188 132.324219 Z M 151.609375 139.457031 C 149.230469 139.457031 147.382813 138.402344 146.058594 136.816406 C 145.003906 135.234375 144.476563 133.644531 144.476563 132.0625 C 144.476563 128.101563 147.117188 125.460938 150.816406 125.460938 C 153.191406 125.460938 155.304688 126.515625 156.625 128.363281 C 157.414063 129.683594 157.945313 131.269531 157.945313 132.851563 C 157.945313 136.8125 155.304688 139.457031 151.609375 139.457031 "/>
</g>
<g clip-path="url(#clip8)" clip-rule="nonzero">
<path style=" stroke:none;fill-rule:nonzero;fill:rgb(57.998657%,58.799744%,59.599304%);fill-opacity:1;" d="M 176.699219 141.304688 L 172.207031 141.304688 C 173 139.984375 173.265625 138.402344 173.265625 136.8125 L 173.265625 125.984375 L 170.886719 123.34375 L 175.90625 123.34375 C 175.90625 123.609375 175.90625 123.609375 175.90625 123.609375 C 175.90625 124.398438 176.433594 124.933594 176.960938 125.722656 L 185.941406 137.082031 L 185.941406 128.101563 C 185.941406 126.519531 185.675781 124.933594 185.148438 123.34375 L 189.640625 123.34375 C 188.847656 124.933594 188.847656 126.519531 188.847656 128.101563 L 188.847656 136.816406 C 188.847656 138.664063 188.847656 139.988281 189.113281 141.304688 L 185.152344 141.304688 C 184.886719 140.515625 184.621094 139.988281 184.359375 139.457031 L 175.910156 129.160156 L 175.910156 136.816406 C 175.90625 138.402344 176.171875 139.984375 176.699219 141.304688 "/>
</g>
<g clip-path="url(#clip9)" clip-rule="nonzero">
<path style=" stroke:none;fill-rule:nonzero;fill:rgb(57.998657%,58.799744%,59.599304%);fill-opacity:1;" d="M 204.960938 128.101563 L 204.960938 136.8125 C 204.960938 138.402344 205.222656 139.984375 206.015625 141.304688 L 201.261719 141.304688 C 201.789063 139.984375 202.050781 138.402344 202.050781 136.8125 L 202.050781 128.101563 C 202.050781 126.515625 201.785156 124.933594 201.261719 123.34375 L 206.015625 123.34375 C 205.222656 124.933594 204.960938 126.515625 204.960938 128.101563 "/>
</g>
<g clip-path="url(#clip10)" clip-rule="nonzero">
<path style=" stroke:none;fill-rule:nonzero;fill:rgb(57.998657%,58.799744%,59.599304%);fill-opacity:1;" d="M 226.882813 141.570313 C 224.507813 141.570313 222.394531 140.777344 220.542969 139.71875 C 218.167969 137.871094 216.84375 135.492188 216.84375 132.589844 C 216.84375 129.683594 218.164063 127.308594 220.542969 125.460938 C 222.65625 123.875 225.296875 123.34375 228.464844 123.34375 C 229.785156 123.34375 231.371094 123.34375 233.222656 123.875 L 233.222656 127.042969 C 231.636719 125.988281 229.785156 125.460938 227.675781 125.460938 C 223.449219 125.460938 220.546875 128.101563 220.546875 132.589844 C 220.546875 136.8125 223.1875 139.195313 227.414063 139.195313 C 229.789063 139.195313 231.640625 138.664063 233.75 137.078125 L 233.75 140.246094 C 231.105469 141.042969 228.996094 141.570313 226.882813 141.570313 "/>
</g>
<g clip-path="url(#clip11)" clip-rule="nonzero">
<path style=" stroke:none;fill-rule:nonzero;fill:rgb(57.998657%,58.799744%,59.599304%);fill-opacity:1;" d="M 261.480469 135.761719 L 268.613281 135.761719 L 269.933594 138.664063 C 270.199219 139.195313 270.460938 139.71875 270.460938 140.511719 C 270.460938 140.777344 270.460938 141.042969 270.460938 141.304688 L 275.480469 141.304688 C 274.425781 139.984375 273.367188 138.664063 272.839844 137.609375 L 265.445313 123.082031 L 257.785156 137.078125 C 256.730469 138.664063 255.933594 140.246094 254.878906 141.304688 L 259.636719 141.304688 C 259.367188 141.304688 259.367188 141.039063 259.367188 140.777344 C 259.367188 139.984375 259.636719 139.191406 260.164063 138.136719 Z M 262.539063 133.644531 L 265.179688 128.625 L 267.558594 133.644531 L 262.539063 133.644531 "/>
</g>
<g clip-path="url(#clip12)" clip-rule="nonzero">
<path style=" stroke:none;fill-rule:nonzero;fill:rgb(57.998657%,58.799744%,59.599304%);fill-opacity:1;" d="M 288.425781 136.8125 L 288.425781 133.117188 C 292.648438 138.660156 295.554688 141.304688 296.347656 141.304688 L 299.253906 141.304688 C 296.613281 138.929688 294.234375 136.019531 292.382813 133.117188 C 295.023438 132.324219 296.347656 130.742188 296.347656 128.625 C 296.347656 125.191406 293.441406 123.339844 287.894531 123.339844 L 284.722656 123.339844 C 285.253906 124.929688 285.515625 126.515625 285.515625 128.097656 L 285.515625 136.8125 C 285.515625 138.398438 285.253906 139.984375 284.722656 141.300781 L 289.480469 141.300781 C 288.6875 139.984375 288.425781 138.402344 288.425781 136.8125 Z M 288.425781 125.191406 C 291.328125 125.191406 293.175781 126.515625 293.175781 128.628906 C 293.175781 130.742188 291.59375 132.0625 288.425781 132.589844 L 288.425781 125.191406 "/>
</g>
<g clip-path="url(#clip13)" clip-rule="nonzero">
<path style=" stroke:none;fill-rule:nonzero;fill:rgb(57.998657%,58.799744%,59.599304%);fill-opacity:1;" d="M 306.914063 126.515625 L 307.703125 123.34375 L 322.757813 123.34375 L 321.4375 126.515625 C 320.117188 125.722656 318.269531 125.460938 316.15625 125.460938 L 316.15625 136.816406 C 316.15625 138.402344 316.421875 139.988281 316.945313 141.304688 L 312.191406 141.304688 C 312.71875 139.988281 312.984375 138.402344 312.984375 136.816406 L 312.984375 125.460938 C 310.609375 125.460938 308.496094 125.722656 306.914063 126.515625 "/>
</g>
<g clip-path="url(#clip14)" clip-rule="nonzero">
<path style=" stroke:none;fill-rule:nonzero;fill:rgb(57.998657%,58.799744%,59.599304%);fill-opacity:1;" d="M 337.023438 139.195313 C 338.871094 139.195313 339.925781 138.402344 339.925781 137.078125 C 339.925781 135.234375 338.339844 134.4375 336.230469 133.382813 C 333.589844 132.058594 332.269531 131.003906 332.269531 128.625 C 332.269531 125.71875 334.910156 123.339844 338.339844 123.339844 C 339.398438 123.339844 340.71875 123.339844 342.039063 123.875 L 341.773438 127.042969 C 340.984375 125.984375 339.925781 125.457031 338.339844 125.457031 C 336.757813 125.457031 335.4375 126.515625 335.4375 128.097656 C 335.4375 129.683594 336.757813 130.210938 338.605469 131.265625 C 339.925781 132.058594 340.984375 132.324219 341.773438 133.382813 C 342.832031 134.175781 343.097656 135.234375 343.097656 136.550781 C 343.097656 139.453125 340.722656 141.570313 336.230469 141.570313 C 335.171875 141.570313 334.117188 141.304688 333.058594 141.039063 L 333.058594 136.8125 C 334.117188 138.402344 335.4375 139.195313 337.023438 139.195313 "/>
</g>
<path style=" stroke:none;fill-rule:nonzero;fill:rgb(57.998657%,58.799744%,59.599304%);fill-opacity:1;" d="M 355.246094 123.609375 L 356.832031 127.308594 L 358.152344 123.609375 L 360 123.609375 L 360 129.15625 L 358.679688 129.15625 L 358.679688 124.667969 L 357.09375 129.15625 L 356.304688 129.15625 L 354.71875 124.667969 L 354.71875 129.15625 L 353.398438 129.15625 L 353.398438 123.609375 Z M 352.339844 123.609375 L 352.339844 124.398438 L 350.492188 124.398438 L 350.492188 129.15625 L 349.171875 129.15625 L 349.171875 124.398438 L 347.324219 124.398438 L 347.324219 123.609375 L 352.339844 123.609375 "/>
</g>
</svg>
