<?xml version="1.0" encoding="UTF-8"?>
<svg xmlns="http://www.w3.org/2000/svg" xmlns:xlink="http://www.w3.org/1999/xlink" width="196pt" height="197pt" viewBox="0 0 196 197" version="1.1">
<g id="surface1">
<path style=" stroke:none;fill-rule:nonzero;fill:rgb(100%,100%,100%);fill-opacity:1;" d="M 196 98.496094 C 196 152.898438 152.121094 197 98 197 C 43.875 197 0 152.898438 0 98.496094 C 0 44.097656 43.875 -0.00390625 98 -0.00390625 C 152.121094 -0.00390625 196 44.097656 196 98.496094 "/>
<path style=" stroke:none;fill-rule:nonzero;fill:rgb(3.49884%,44.299316%,26.298523%);fill-opacity:1;" d="M 93.664063 85.8125 C 93.804688 86.402344 93.300781 87.28125 94.097656 87.578125 C 94.878906 87.40625 95.871094 87.488281 96.898438 87.570313 C 98.949219 87.734375 101.128906 87.898438 102.003906 86.039063 C 101.089844 85.015625 99.59375 84.550781 98.03125 84.550781 C 96.464844 84.550781 94.839844 85.007813 93.664063 85.8125 M 89.703125 91.746094 L 89.914063 93.074219 C 92.777344 94.980469 93.660156 98.214844 97.625 97.921875 C 101.140625 98.128906 103.777344 94.835938 105.53125 92.199219 C 103.257813 91.882813 100.746094 91.953125 98.167969 92.019531 C 95.355469 92.097656 92.460938 92.171875 89.703125 91.746094 M 167.980469 81.414063 C 175.453125 83.394531 182.945313 91.53125 190.855469 86.253906 C 183.96875 74.820313 173.714844 64.261719 176.566406 49.3125 C 176.863281 48.289063 176.203125 47.257813 175.257813 47.113281 C 170.785156 48.9375 167.324219 53.34375 165.558594 57.671875 C 164.828125 60.230469 164.398438 62.953125 163.375 65.363281 C 158.019531 62.578125 152.308594 59.878906 145.78125 60.53125 C 143.433594 60.824219 140.058594 60.980469 139.625 63.394531 C 147.027344 67.351563 153.113281 73.953125 157.652344 80.980469 C 160.8125 80.46875 164.683594 80.90625 167.980469 81.414063 M 142.925781 39.191406 C 137.496094 38.90625 132.953125 41.984375 127.972656 43.378906 C 127.535156 39.136719 130.757813 34.65625 131.492188 30.398438 C 123.433594 30.914063 117.050781 35.769531 110.382813 39.644531 C 108.839844 35.914063 107.289063 32.167969 105.757813 28.425781 L 114.554688 20.066406 L 114.777344 18.964844 L 102.898438 18.304688 C 100.851563 14.71875 100.046875 10.398438 97.628906 7.101563 C 95.648438 10.839844 94.320313 14.796875 92.339844 18.527344 L 80.472656 19.191406 L 80.472656 20.066406 L 89.480469 28.199219 C 88.378906 32.378906 87.355469 36.921875 84.648438 40.078125 C 79.371094 36.917969 74.167969 33.480469 68.382813 31.285156 C 66.992188 30.835938 65.007813 30.105469 63.761719 31.058594 C 65.589844 35.089844 68.152344 39.429688 67.722656 43.828125 C 65.300781 43.386719 63.398438 41.832031 61.125 41.179688 C 58.40625 40.4375 55.179688 38.988281 52.539063 39.871094 C 56.941406 46.023438 60.53125 52.464844 61.773438 59.867188 C 76.363281 52.824219 93.382813 48.953125 111.046875 51.960938 C 119.328125 53.28125 126.941406 56.652344 134.34375 59.433594 C 134.636719 51.664063 139.546875 45.425781 142.925781 39.191406 M 111.011719 70.183594 C 110.722656 70.1875 110.4375 70.203125 110.152344 70.214844 C 108.617188 71.238281 104.140625 70.5 105.757813 73.949219 C 108.542969 71.742188 112.429688 73.289063 115.214844 74.382813 C 116.242188 73.871094 116.019531 72.847656 116.089844 71.960938 C 115.191406 70.296875 113.058594 70.140625 111.011719 70.183594 M 115.425781 62.953125 C 113.378906 58.410156 108.6875 56.570313 104.429688 55.472656 C 102.34375 55.214844 100.175781 55.039063 98.027344 55.019531 C 97.625 55.015625 97.222656 55.011719 96.824219 55.019531 C 90.816406 55.140625 85.074219 56.683594 81.566406 61.628906 C 81.0625 63.023438 78.851563 64.984375 80.90625 66.238281 C 85.523438 65.941406 90.792969 65.363281 93.871094 69.324219 C 93.871094 72.847656 96.144531 77.53125 92.335938 79.21875 C 90.691406 77.695313 88.886719 78.097656 87.050781 78.5 C 85.363281 78.871094 83.652344 79.238281 82.007813 78.117188 C 80.390625 77.164063 79.371094 78.277344 78.707031 79.667969 C 77.753906 88.753906 82.511719 98.78125 91.011719 103.839844 C 94.457031 105.082031 99.089844 106.265625 102.683594 104.5 C 111.332031 100.472656 114.914063 91.242188 116.523438 82.738281 C 116.308594 81.121094 116.386719 77.96875 114.113281 77.890625 C 111.550781 79.515625 107.8125 78.554688 105.097656 77.890625 C 103.488281 78.410156 103.414063 80.761719 101.585938 81.207031 L 100.472656 80.316406 C 99.519531 76.292969 98.929688 70.574219 102.671875 67.789063 C 106.855469 66.101563 111.765625 65.363281 116.089844 66.6875 C 116.894531 65.296875 115.648438 64.199219 115.425781 62.953125 M 79.582031 72.398438 C 79.4375 73.347656 79.65625 75.039063 81.117188 74.382813 C 83.394531 71.230469 87.421875 73.726563 89.914063 73.949219 L 89.914063 73.0625 C 88.546875 70.914063 85.738281 69.835938 82.882813 69.945313 C 82.222656 69.96875 81.554688 70.0625 80.910156 70.214844 C 79.953125 70.425781 79.289063 71.300781 79.582031 72.398438 M 56.269531 62.503906 C 48.648438 57.515625 38.980469 62.210938 31.875 64.925781 C 31.214844 58.253906 28.507813 52.175781 22.855469 47.777344 C 22.308594 47.503906 21.550781 46.929688 20.867188 46.886719 C 20.460938 46.859375 20.070313 47.027344 19.769531 47.550781 C 22.328125 63.304688 12.085938 74.300781 4.828125 86.25 C 7.246094 88.226563 11.128906 87.929688 14.058594 87.351563 C 21.753906 84.273438 29.082031 78.917969 38.246094 80.753906 C 40.953125 76.136719 45.507813 71.664063 49.238281 68 C 51.519531 66.023438 54.652344 64.773438 56.269531 62.503906 M 194.378906 103.296875 C 194.453125 105.777344 194.6875 107.910156 193.71875 110.449219 C 188.453125 111.945313 184.132813 109.734375 179.8125 107.523438 C 175.894531 105.519531 171.96875 103.515625 167.335938 104.277344 L 168.4375 109.789063 C 177.449219 110.085938 183.082031 118.730469 192.394531 118.355469 C 191.070313 121 192.984375 127.964844 187.125 125.179688 C 181.039063 123.71875 176.640625 118.355469 169.972656 118.355469 C 169.167969 119.835938 169.675781 121.878906 169.535156 123.628906 C 176.570313 124.730469 181.628906 130.675781 188.660156 131.773438 C 188 134.191406 187.34375 136.894531 185.363281 138.371094 C 179.644531 136.976563 175.175781 131.839844 169.085938 131.988281 L 167.996094 137.046875 C 173.785156 137.195313 177.527344 142.316406 182.730469 143.855469 C 182.871094 145.988281 180.964844 147.898438 179.863281 149.804688 C 175.246094 148.414063 171.726563 144.449219 166.449219 144.742188 C 166.375 142.753906 167.554688 140.496094 167.109375 138.371094 C 161.183594 140.132813 157.210938 134.628906 152.816406 131.324219 C 152.691406 120.515625 141.3125 113.421875 140.710938 103.296875 C 140.597656 101.277344 140.902344 99.125 141.824219 96.808594 C 145.5625 88.160156 144.390625 76.933594 140.289063 68.871094 C 139.042969 66.753906 136.835938 65.074219 134.777344 63.828125 C 137.785156 70.210938 141.453125 77.746094 139.625 85.589844 C 139.410156 91.644531 135.839844 97.460938 135.800781 103.296875 C 135.785156 105.378906 136.226563 107.460938 137.425781 109.5625 C 142.191406 118.148438 150.769531 126.277344 147.546875 137.046875 C 146.65625 140.355469 144.019531 142.910156 143.359375 146.277344 C 148.9375 150.898438 154.210938 156.101563 161.609375 156.394531 C 164.246094 154.714844 162.78125 147.242188 168.207031 150.6875 L 176.128906 154.648438 C 175.550781 156.769531 173.773438 158.671875 172.167969 160.128906 C 169.160156 158.667969 166.230469 156.914063 162.484375 157.054688 C 161.378906 158.230469 160.429688 159.546875 160.511719 161.226563 C 163.148438 161.660156 165.566406 162.773438 167.769531 164.316406 C 166.746094 166.519531 164.757813 167.898438 162.921875 169.585938 L 156.777344 167.390625 C 155.753906 168.855469 153.621094 170.398438 154.371094 172.011719 C 155.757813 172.605469 157.296875 173.40625 158.316406 174.433594 C 155.601563 177.367188 152.164063 179.253906 148.859375 181.242188 C 146.007813 171.929688 136.621094 165.398438 137.429688 154.632813 L 136.992188 154.195313 C 134.785156 156.679688 135.523438 160.644531 135.664063 163.863281 C 138.304688 170.609375 144.605469 175.820313 145.5625 183.214844 C 144.457031 185.117188 141.972656 185.496094 140.0625 186.304688 C 140.28125 172.96875 120.058594 162.855469 133.027344 149.363281 C 137.351563 142.761719 144.601563 136.457031 142.03125 127.359375 C 139.394531 118.582031 130.070313 113.140625 130.152344 103.296875 L 130.167969 102.53125 C 132.289063 92.265625 138.742188 81.34375 133.464844 70.425781 C 131.992188 66.03125 128.707031 61.042969 124.234375 59.203125 C 130.902344 66.835938 133.546875 79.285156 129.730469 89.550781 C 127.808594 93.636719 125.164063 98.5 124.898438 103.300781 L 124.882813 103.300781 C 124.738281 105.808594 125.253906 108.300781 126.871094 110.664063 C 131.933594 118.878906 140.722656 127.898438 135.664063 138.601563 C 129.949219 147.171875 119.980469 155.890625 125.546875 167.179688 C 129.578125 173.925781 135.8125 180.652344 134.132813 188.941406 L 127.535156 191.140625 C 131.933594 175.679688 110.382813 166.59375 119.402344 151.128906 C 124.972656 142.847656 134.9375 135.074219 129.296875 124.082031 C 125.925781 117.269531 118.960938 113.238281 119.179688 104.726563 L 119.417969 103.300781 C 121.6875 91.230469 130.863281 79.804688 124.449219 66.902344 C 122.761719 63.09375 119.394531 59.210938 115.652344 57.011719 L 115.429688 57.234375 C 122.90625 64.492188 125.183594 76.429688 121.148438 86.027344 C 119.269531 91.660156 115.140625 97.269531 114.300781 103.300781 C 113.898438 106.144531 114.234375 109.097656 115.882813 112.203125 C 120.644531 119.746094 128.996094 127.746094 123.785156 137.5 C 118.296875 145.554688 109.132813 153.390625 112.789063 163.867188 C 116.824219 173.03125 125.242188 181.765625 120.695313 193.128906 L 113.890625 194.667969 C 119.3125 183.589844 111.183594 172.601563 106.421875 162.996094 C 100.625 149.214844 118.867188 142.617188 119.160156 130.015625 C 119.089844 121.886719 110.445313 117.269531 108.617188 109.792969 C 106.40625 107.925781 104.144531 108.707031 101.742188 109.488281 C 100.082031 110.027344 98.351563 110.566406 96.527344 110.230469 C 95.367188 110.464844 93.988281 109.972656 92.605469 109.480469 C 90.042969 108.574219 87.457031 107.664063 86.179688 111.332031 C 83.832031 119.609375 73.136719 125.695313 77.835938 135.515625 C 82.308594 144.238281 93.074219 150.617188 89.476563 161.910156 C 86.257813 172.460938 75.625 182.5 82.21875 194.667969 C 79.511719 193.789063 74.449219 195.46875 74.523438 191.140625 C 70.347656 176.410156 88.15625 167.828125 82.65625 153.101563 C 80.09375 144.085938 68.433594 139.101563 71 128.253906 C 72.898438 119.324219 82.917969 113.082031 81.511719 103.300781 C 81.398438 102.480469 81.199219 101.644531 80.910156 100.769531 C 77.167969 90.21875 69.539063 79.660156 74.085938 67.339844 C 75.335938 63.820313 77.832031 60.816406 80.019531 57.671875 C 72.765625 61.558594 69.105469 69.769531 69.253906 78.121094 C 68.9375 87.207031 75.648438 94.988281 76.601563 103.300781 C 76.980469 106.65625 76.429688 110.09375 74.085938 113.734375 C 69.328125 120.195313 63.101563 127.007813 65.957031 135.511719 C 68.667969 144.09375 79.371094 149.289063 78.710938 159.261719 C 78.636719 171.054688 64.929688 178.398438 68.816406 191.59375 L 61.992188 189.382813 C 59.285156 177.65625 71.742188 171.660156 71.886719 160.8125 C 73.648438 148.339844 57.742188 143.710938 58.695313 131.554688 C 58.628906 122.3125 66.757813 116.464844 70.351563 108.691406 C 70.96875 106.800781 71.171875 105.015625 71.089844 103.300781 C 70.648438 94.710938 62.90625 87.992188 64.191406 78.332031 C 64.625 71.222656 67.042969 64.992188 71.660156 59.644531 C 65.289063 62.207031 62.65625 69.542969 60.894531 75.699219 C 57.839844 85.574219 65.132813 94.453125 65.863281 103.304688 C 66.1875 107.210938 65.234375 111.09375 61.558594 115.0625 C 56.277344 121.285156 50.921875 129.136719 54.734375 137.503906 C 58.773438 146.726563 71.457031 153.910156 65.953125 165.417969 C 62.953125 172.679688 55.765625 178.171875 56.0625 186.746094 C 54.15625 185.9375 52.183594 185.132813 50.5625 183.671875 C 50.5625 172.753906 66.097656 165.933594 58.695313 154.425781 C 58.039063 156.695313 57.898438 159.78125 57.386719 162.347656 C 54.816406 169.019531 49.324219 174.359375 47.265625 181.261719 C 43.828125 179.933594 40.230469 177.144531 37.371094 174.214844 L 41.335938 171.789063 C 40.894531 170.320313 39.722656 169.074219 38.699219 167.832031 C 36.125 167.46875 34.4375 169.15625 32.316406 169.816406 C 30.484375 168.203125 28.714844 166.734375 27.253906 164.757813 C 28.570313 161.011719 38.84375 164.105469 33.640625 157.949219 C 30.125 155.753906 26.597656 158.890625 23.519531 160.355469 L 19.347656 155.085938 C 22.941406 152.890625 26.523438 149.804688 30.988281 150.6875 C 32.089844 152.671875 32.164063 155.589844 34.285156 156.621094 C 41.839844 156.472656 47.1875 150.765625 52.976563 146.292969 C 48.941406 140.289063 45.65625 132 49.242188 124.742188 C 52.113281 117.46875 59.59375 111.339844 59.933594 103.296875 C 60.011719 101.46875 59.726563 99.542969 58.925781 97.46875 C 54.96875 87.28125 53.574219 73.507813 61.125 64.488281 C 57.019531 65.59375 54.597656 70.710938 53.203125 74.59375 C 48.664063 84.542969 54.402344 93.761719 54.601563 103.296875 C 54.628906 105.011719 54.488281 106.730469 54.074219 108.464844 C 50.1875 116.304688 43.890625 123.183594 42.871094 132.210938 C 38.398438 135.0625 34.726563 140.050781 28.351563 138.367188 C 28.128906 140.050781 28.640625 142.617188 29.226563 144.527344 C 24.171875 144.3125 20.726563 148.039063 16.472656 149.796875 C 14.207031 149.070313 13.613281 146.140625 12.738281 144.089844 C 17.71875 142.40625 21.3125 137.414063 27.03125 137.492188 C 27.691406 135.652344 26.65625 133.964844 26.367188 132.210938 C 23.628906 130.992188 20.273438 133.027344 17.128906 135.058594 C 12.101563 138.304688 7.613281 141.554688 7.03125 131.546875 C 14.136719 131.105469 18.679688 124.507813 25.71875 123.851563 L 25.929688 118.582031 C 21.933594 118.179688 18.652344 120.027344 15.371094 121.878906 C 12.089844 123.730469 8.808594 125.582031 4.816406 125.179688 L 3.054688 118.144531 C 12.292969 118.722656 17.796875 110.441406 26.59375 109.996094 C 27.761719 108.460938 27.902344 106.1875 28.128906 104.066406 C 23.695313 103.488281 19.90625 105.445313 16.105469 107.398438 C 11.675781 109.683594 7.230469 111.964844 1.742188 110.222656 C 1.742188 110.222656 1.394531 105.792969 1.203125 103.296875 L 1.21875 103.296875 C 1.148438 102.320313 1.082031 101.640625 1.082031 101.640625 C 10.167969 105.167969 18.15625 98.640625 25.929688 95.269531 C 27.90625 94.679688 30.988281 95.703125 31.878906 93.507813 C 31.800781 91.820313 34.875 89.851563 32.316406 88.675781 C 27.390625 88.003906 23.179688 90.199219 19.042969 92.394531 C 13.632813 95.269531 8.347656 98.140625 1.742188 94.605469 L 0.867188 92.84375 C 3.292969 59.71875 21.976563 27.691406 52.976563 11.933594 C 65.53125 4.757813 81.128906 1.101563 96.859375 0.972656 C 115.847656 0.8125 135.027344 5.792969 149.300781 15.894531 C 163.15625 24.394531 176.410156 38.402344 183.605469 52.625 C 190.484375 65.085938 193.652344 79.0625 194.597656 93.949219 C 187.945313 98.972656 182.507813 95.820313 176.902344 92.667969 C 172.371094 90.121094 167.734375 87.574219 162.265625 89.339844 C 162.925781 91.246094 163.289063 93.222656 164.6875 94.835938 C 169.238281 94.804688 173.195313 96.78125 177.089844 98.761719 C 182.488281 101.503906 187.773438 104.242188 194.371094 101.640625 L 194.378906 103.296875 M 97.179688 35.015625 C 100.632813 37.003906 104.289063 39.5625 107.074219 42.273438 L 105.980469 43.375 C 100.484375 42.789063 94.695313 43.519531 89.484375 43.601563 C 88.902344 43.011719 87.730469 42.132813 88.824219 41.394531 L 97.179688 35.015625 "/>
<path style=" stroke:none;fill-rule:nonzero;fill:rgb(100%,100%,100%);fill-opacity:1;" d="M 105.777344 89.875 L 89.707031 89.875 L 89.707031 83.269531 L 105.777344 83.269531 L 105.777344 89.875 M 95.210938 87.480469 C 95.738281 87.480469 96.3125 87.523438 96.898438 87.570313 C 97.480469 87.617188 98.074219 87.664063 98.644531 87.664063 C 100.082031 87.664063 101.378906 87.371094 102.003906 86.039063 C 101.089844 85.015625 99.59375 84.550781 98.03125 84.550781 C 96.464844 84.550781 94.839844 85.007813 93.664063 85.8125 C 93.804688 86.402344 93.300781 87.28125 94.097656 87.578125 C 94.433594 87.503906 94.808594 87.480469 95.210938 87.480469 "/>
<path style=" stroke:none;fill-rule:nonzero;fill:rgb(99.198914%,99.598694%,100%);fill-opacity:1;" d="M 98.644531 87.664063 C 98.074219 87.664063 97.480469 87.617188 96.898438 87.570313 C 96.3125 87.523438 95.738281 87.480469 95.210938 87.480469 C 94.808594 87.480469 94.433594 87.503906 94.097656 87.578125 C 93.300781 87.28125 93.804688 86.402344 93.664063 85.8125 C 94.839844 85.007813 96.464844 84.550781 98.03125 84.550781 C 99.59375 84.550781 101.089844 85.015625 102.003906 86.039063 C 101.378906 87.371094 100.082031 87.664063 98.644531 87.664063 "/>
<path style=" stroke:none;fill-rule:nonzero;fill:rgb(3.49884%,44.299316%,26.298523%);fill-opacity:1;" d="M 92.675781 86.800781 C 94.753906 87.292969 95.269531 88.03125 96.910156 88.234375 C 98.652344 88.203125 98.402344 87.851563 101.445313 86.800781 C 101.644531 86.730469 101.921875 86.289063 101.578125 85.949219 C 99.691406 84.074219 98.382813 85.414063 97.199219 85.449219 C 95.628906 85.46875 94.152344 84.105469 92.617188 85.875 C 92.355469 86.234375 92.21875 86.589844 92.675781 86.800781 "/>
<path style=" stroke:none;fill-rule:nonzero;fill:rgb(3.49884%,44.299316%,26.298523%);fill-opacity:1;" d="M 168.605469 195.136719 L 168.605469 185.730469 L 165.246094 185.730469 L 165.246094 183.816406 L 174.238281 183.816406 L 174.238281 185.730469 L 170.890625 185.730469 L 170.890625 195.136719 L 168.605469 195.136719 "/>
<path style=" stroke:none;fill-rule:nonzero;fill:rgb(3.49884%,44.299316%,26.298523%);fill-opacity:1;" d="M 175.691406 195.136719 L 175.691406 183.816406 L 179.113281 183.816406 L 181.164063 191.539063 L 183.195313 183.816406 L 186.625 183.816406 L 186.625 195.136719 L 184.503906 195.136719 L 184.503906 186.226563 L 182.253906 195.136719 L 180.054688 195.136719 L 177.816406 186.226563 L 177.816406 195.136719 L 175.691406 195.136719 "/>
</g>
</svg>
