<?xml version="1.0" encoding="UTF-8"?>
<svg xmlns="http://www.w3.org/2000/svg" xmlns:xlink="http://www.w3.org/1999/xlink" width="300pt" height="300pt" viewBox="0 0 300 300" version="1.1">
<g id="surface1">
<rect x="0" y="0" width="300" height="300" style="fill:rgb(15.299988%,66.699219%,88.198853%);fill-opacity:1;stroke:none;"/>
<path style=" stroke:none;fill-rule:nonzero;fill:rgb(100%,100%,100%);fill-opacity:1;" d="M 250 87.972656 C 242.640625 91.238281 234.734375 93.441406 226.433594 94.433594 C 234.902344 89.355469 241.410156 81.316406 244.476563 71.734375 C 236.546875 76.4375 227.765625 79.851563 218.417969 81.691406 C 210.933594 73.714844 200.269531 68.734375 188.46875 68.734375 C 165.808594 68.734375 147.433594 87.105469 147.433594 109.765625 C 147.433594 112.980469 147.796875 116.113281 148.496094 119.117188 C 114.394531 117.402344 84.160156 101.070313 63.921875 76.242188 C 60.390625 82.304688 58.367188 89.351563 58.367188 96.871094 C 58.367188 111.109375 65.613281 123.667969 76.621094 131.023438 C 69.894531 130.8125 63.570313 128.964844 58.035156 125.894531 C 58.03125 126.0625 58.03125 126.234375 58.03125 126.410156 C 58.03125 146.289063 72.175781 162.871094 90.949219 166.644531 C 87.503906 167.582031 83.878906 168.082031 80.136719 168.082031 C 77.492188 168.082031 74.921875 167.824219 72.417969 167.347656 C 77.640625 183.648438 92.792969 195.511719 110.746094 195.84375 C 96.707031 206.847656 79.011719 213.40625 59.789063 213.40625 C 56.476563 213.40625 53.210938 213.214844 50 212.832031 C 68.160156 224.476563 89.726563 231.269531 112.898438 231.269531 C 188.371094 231.269531 229.644531 168.746094 229.644531 114.523438 C 229.644531 112.742188 229.605469 110.972656 229.523438 109.214844 C 237.542969 103.429688 244.5 96.203125 250 87.972656 "/>
</g>
</svg>
