<?xml version="1.0" encoding="UTF-8"?>
<svg xmlns="http://www.w3.org/2000/svg" xmlns:xlink="http://www.w3.org/1999/xlink" width="370.58pt" height="95.83pt" viewBox="0 0 370.58 95.83" version="1.1">
<defs>
<clipPath id="clip1">
  <path d="M 110 25 L 254 25 L 254 95.828125 L 110 95.828125 Z M 110 25 "/>
</clipPath>
<clipPath id="clip2">
  <path d="M 254 23 L 370.578125 23 L 370.578125 82 L 254 82 Z M 254 23 "/>
</clipPath>
</defs>
<g id="surface1">
<g clip-path="url(#clip1)" clip-rule="nonzero">
<path style=" stroke:none;fill-rule:evenodd;fill:rgb(18.399048%,19.999695%,44.699097%);fill-opacity:1;" d="M 220.730469 77.65625 L 209.65625 42.605469 L 223.886719 42.605469 L 227.285156 58.539063 C 227.339844 58.746094 227.417969 59.074219 227.523438 59.484375 C 228.007813 61.632813 228.277344 63.453125 228.328125 64.957031 C 228.613281 64.011719 228.972656 63.003906 229.433594 61.917969 C 229.878906 60.828125 230.417969 59.65625 231.066406 58.382813 L 239.132813 42.605469 L 253.914063 42.605469 L 223.652344 95.828125 L 209.269531 95.828125 Z M 188.757813 74.570313 C 186.871094 76.636719 184.78125 78.210938 182.476563 79.269531 C 180.183594 80.335938 177.707031 80.855469 175.050781 80.855469 C 170.570313 80.855469 166.910156 79.261719 164.039063 76.0625 C 161.167969 72.871094 159.738281 68.730469 159.738281 63.640625 C 159.738281 57.25 161.679688 51.945313 165.566406 47.734375 C 169.453125 43.511719 174.300781 41.402344 180.109375 41.402344 C 182.808594 41.402344 185.230469 41.941406 187.363281 43.007813 C 189.496094 44.066406 191.425781 45.714844 193.15625 47.941406 L 194.035156 42.605469 L 207.0625 42.605469 L 200.894531 79.507813 L 188.101563 79.507813 Z M 173.558594 62.363281 C 173.558594 64.734375 174.328125 66.628906 175.839844 68.066406 C 177.363281 69.5 179.367188 70.222656 181.867188 70.222656 C 184.59375 70.222656 186.871094 69.214844 188.691406 67.203125 C 190.507813 65.199219 191.417969 62.691406 191.417969 59.671875 C 191.417969 57.375 190.648438 55.519531 189.136719 54.09375 C 187.609375 52.671875 185.632813 51.960938 183.1875 51.960938 C 180.40625 51.960938 178.101563 52.945313 176.289063 54.914063 C 174.46875 56.890625 173.558594 59.375 173.558594 62.363281 Z M 110 79.507813 L 118.976563 25.984375 L 134.492188 25.984375 C 138.78125 25.984375 142.023438 26.148438 144.179688 26.480469 C 146.34375 26.808594 148.222656 27.355469 149.816406 28.144531 C 152.703125 29.53125 154.867188 31.441406 156.28125 33.84375 C 157.722656 36.265625 158.429688 39.152344 158.429688 42.515625 C 158.429688 45.847656 157.671875 48.957031 156.125 51.796875 C 154.597656 54.652344 152.515625 56.851563 149.898438 58.382813 C 148.355469 59.285156 146.527344 59.917969 144.402344 60.304688 C 142.300781 60.679688 138.996094 60.863281 134.492188 60.863281 L 128.15625 60.863281 L 124.992188 79.507813 Z M 130.054688 49.492188 L 131.472656 49.492188 C 136.359375 49.492188 139.667969 49.003906 141.390625 48.03125 C 143.117188 47.054688 143.972656 45.398438 143.972656 43.066406 C 143.972656 41.097656 143.230469 39.644531 141.757813 38.734375 C 140.273438 37.824219 137.953125 37.363281 134.792969 37.363281 L 132.09375 37.363281 L 130.054688 49.492188 "/>
</g>
<g clip-path="url(#clip2)" clip-rule="nonzero">
<path style=" stroke:none;fill-rule:evenodd;fill:rgb(0%,68.998718%,81.999207%);fill-opacity:1;" d="M 357.683594 23.164063 L 370.582031 23.164063 L 361.671875 79.828125 L 348.808594 79.828125 Z M 327.578125 74.882813 C 325.824219 76.957031 323.875 78.53125 321.734375 79.589844 C 319.601563 80.648438 317.296875 81.175781 314.820313 81.175781 C 310.652344 81.175781 307.246094 79.582031 304.566406 76.382813 C 301.898438 73.191406 300.5625 69.042969 300.5625 63.960938 C 300.5625 57.570313 302.375 52.265625 305.992188 48.054688 C 309.609375 43.835938 314.121094 41.722656 319.527344 41.722656 C 322.039063 41.722656 324.289063 42.261719 326.28125 43.320313 C 328.265625 44.386719 330.070313 46.027344 331.671875 48.261719 L 332.492188 42.925781 L 344.617188 42.925781 L 338.882813 79.828125 L 326.96875 79.828125 Z M 313.433594 62.683594 C 313.433594 65.054688 314.140625 66.949219 315.550781 68.390625 C 316.976563 69.820313 318.839844 70.542969 321.167969 70.542969 C 323.703125 70.542969 325.824219 69.535156 327.519531 67.523438 C 329.210938 65.519531 330.054688 63.011719 330.054688 59.992188 C 330.054688 57.695313 329.347656 55.839844 327.9375 54.414063 C 326.511719 52.992188 324.671875 52.28125 322.390625 52.28125 C 319.808594 52.28125 317.660156 53.265625 315.96875 55.234375 C 314.277344 57.210938 313.433594 59.695313 313.433594 62.683594 Z M 254.257813 79.828125 L 262.621094 26.304688 L 277.058594 26.304688 C 281.054688 26.304688 284.066406 26.46875 286.082031 26.804688 C 288.09375 27.128906 289.847656 27.675781 291.332031 28.464844 C 294.015625 29.84375 296.023438 31.753906 297.347656 34.164063 C 298.683594 36.585938 299.347656 39.464844 299.347656 42.835938 C 299.347656 46.167969 298.640625 49.277344 297.199219 52.117188 C 295.777344 54.972656 293.84375 57.171875 291.40625 58.703125 C 289.96875 59.605469 288.265625 60.238281 286.289063 60.625 C 284.328125 61 281.25 61.183594 277.058594 61.183594 L 271.160156 61.183594 L 268.222656 79.828125 Z M 272.929688 49.804688 L 274.253906 49.804688 C 278.804688 49.804688 281.875 49.320313 283.488281 48.351563 C 285.089844 47.375 285.886719 45.722656 285.886719 43.386719 C 285.886719 41.410156 285.203125 39.964844 283.832031 39.054688 C 282.445313 38.144531 280.289063 37.683594 277.34375 37.683594 L 274.828125 37.683594 L 272.929688 49.804688 "/>
</g>
<path style=" stroke:none;fill-rule:evenodd;fill:rgb(0%,68.998718%,81.999207%);fill-opacity:1;" d="M 20.1875 90.222656 L 30.472656 23.582031 C 30.71875 21.664063 31.570313 20.25 33.105469 20.25 L 50.328125 20.25 C 55.683594 20.25 59.722656 20.464844 62.417969 20.917969 C 65.117188 21.351563 67.464844 22.082031 69.449219 23.132813 C 73.050781 24.992188 75.742188 27.542969 77.515625 30.769531 C 79.304688 34.007813 80.195313 37.863281 80.195313 42.371094 C 80.195313 46.832031 79.238281 50.984375 77.316406 54.796875 C 75.414063 58.621094 72.820313 61.558594 69.546875 63.609375 C 67.632813 64.808594 65.273438 65.398438 62.703125 66.179688 C 58.121094 67.574219 51.679688 67.890625 46.773438 67.890625 C 44.773438 68.390625 43.960938 69.984375 43.640625 72.371094 L 40.867188 90.199219 C 40.308594 91.765625 39.300781 92.707031 37.867188 93.054688 L 22.21875 93.050781 C 20.414063 92.816406 19.882813 91.78125 20.1875 90.222656 "/>
<path style=" stroke:none;fill-rule:evenodd;fill:rgb(18.399048%,19.999695%,44.699097%);fill-opacity:1;" d="M 0.09375 80.574219 L 11.769531 3.835938 C 12.046875 1.621094 13.015625 -0.00390625 14.761719 -0.00390625 L 34.328125 -0.00390625 C 40.410156 -0.00390625 44.960938 0.964844 48.054688 0.761719 C 80.753906 -1.367188 76.632813 34.578125 56.152344 49.925781 C 54.085938 51.476563 51.296875 51.984375 48.375 52.886719 C 43.167969 54.488281 35.855469 54.855469 30.285156 54.855469 C 28.019531 55.4375 27.09375 57.261719 26.726563 60.015625 L 23.578125 80.550781 C 22.941406 82.347656 21.800781 83.429688 20.175781 83.839844 L 2.390625 83.824219 C 0.347656 83.554688 -0.257813 82.371094 0.09375 80.574219 "/>
</g>
</svg>
