<svg viewBox="0 -3.8139629672224933 91.18519443734142 25.41885485271608" xmlns="http://www.w3.org/2000/svg" width="2500" height="801"><g fill="#767578"><path d="M0 6.77h2.98v2.98H0zM8.61 6.77h2.98v2.98H8.61zM17.61 6.77h2.98v2.98h-2.98zM26.44 6.77h2.98v2.98h-2.98zM44.67 15.06h-5.54v-.7h.23a1.52 1.52 0 0 0 .64-.16 1.19 1.19 0 0 0 .42-.36 1.72 1.72 0 0 0 .29-.74 9.39 9.39 0 0 0 .09-1.53V3.85l-3.66 11.21h-.52L33 4v7.55a9.44 9.44 0 0 0 .09 1.54 1.67 1.67 0 0 0 .29.73 1.06 1.06 0 0 0 .41.36 1.61 1.61 0 0 0 .65.14h.22v.7h-4.14v-.7h.22a1.61 1.61 0 0 0 .65-.14 1.06 1.06 0 0 0 .41-.36 1.72 1.72 0 0 0 .29-.74 9.3 9.3 0 0 0 .09-1.53V3.94v-.89A3.5 3.5 0 0 0 32 2a1.27 1.27 0 0 0-.45-.61 1.58 1.58 0 0 0-.8-.23h-.22v-.7h3.86L37.63 11 41 .46h3.68v.69h-.23a1.63 1.63 0 0 0-.63.14 1.23 1.23 0 0 0-.42.35 1.49 1.49 0 0 0-.22.41 2.8 2.8 0 0 0-.11.61A11.8 11.8 0 0 0 43 3.94v7.63a9.36 9.36 0 0 0 .09 1.54 1.58 1.58 0 0 0 .29.73 1.38 1.38 0 0 0 1 .5h.23zM49.27 15.1a4.05 4.05 0 0 1-3.39-1.83 5.23 5.23 0 0 1-.8-1.58 5.72 5.72 0 0 1-.28-1.79 5.5 5.5 0 0 1 1.13-3.4 4 4 0 0 1 6.68 0 5.57 5.57 0 0 1 1.13 3.41 5.55 5.55 0 0 1-1.08 3.36 4 4 0 0 1-3.39 1.83zm-.08-9.65c-.57 0-1.07.39-1.51 1.19A6.41 6.41 0 0 0 47 9.77a7 7 0 0 0 .64 3.23c.48.92 1 1.37 1.69 1.37a1.26 1.26 0 0 0 .78-.29 2.54 2.54 0 0 0 .71-.85 5.78 5.78 0 0 0 .54-1.5 8 8 0 0 0 .21-1.77 8 8 0 0 0-.22-1.8 6.18 6.18 0 0 0-.59-1.53 1.84 1.84 0 0 0-1.57-1.18zM56 15.39h-.79V3.2a3 3 0 0 0-.28-1.49.93.93 0 0 0-.93-.37h-.25V.62l3.3-.51v6.36a2.44 2.44 0 0 1 .3-.27 3 3 0 0 1 1.8-.54 3.55 3.55 0 0 1 2.55 1A4.78 4.78 0 0 1 63 10.3a5.12 5.12 0 0 1-1.27 3.64 4.1 4.1 0 0 1-4.39.89l-.51-.23a.78.78 0 0 0-.26-.07c-.18 0-.38.25-.56.7zm2.76-8.93a1.29 1.29 0 0 0-.8.3 1.9 1.9 0 0 0-.57.83 8 8 0 0 0-.31 2.66 17.06 17.06 0 0 0 .11 2 5.16 5.16 0 0 0 .25 1.26 1.52 1.52 0 0 0 .52.67 1.3 1.3 0 0 0 .78.23 1.82 1.82 0 0 0 1.57-1.05 5.54 5.54 0 0 0 .69-2.88 6.66 6.66 0 0 0-.23-1.75 4.31 4.31 0 0 0-.61-1.37 2.44 2.44 0 0 0-.68-.68 1.25 1.25 0 0 0-.75-.22zM68.64 15h-4.48v-.69h.22a2 2 0 0 0 .67-.19.76.76 0 0 0 .27-.38 2.24 2.24 0 0 0 .12-.63V9.19 7.76a1.42 1.42 0 0 0-.17-.58.8.8 0 0 0-.27-.32 1.31 1.31 0 0 0-.51-.12h-.24v-.68l3.11-.44v6.91a5.23 5.23 0 0 0 .06 1 .89.89 0 0 0 .21.41 1.48 1.48 0 0 0 .79.34h.21zM66.38 2.52a1 1 0 0 1-.77-.34 1.14 1.14 0 0 1-.3-.81 1.18 1.18 0 0 1 .3-.81 1 1 0 0 1 1.54 0 1.2 1.2 0 0 1 .3.81 1.14 1.14 0 0 1-.3.81 1 1 0 0 1-.77.34zM73.67 15h-4.48v-.69h.22a1.87 1.87 0 0 0 .67-.19.82.82 0 0 0 .28-.39 2.07 2.07 0 0 0 .12-.63V3.76 2.33a1.44 1.44 0 0 0-.16-.59.7.7 0 0 0-.32-.36 1.16 1.16 0 0 0-.52-.12h-.24V.55l3.15-.43v12.4a4.45 4.45 0 0 0 .07 1 .77.77 0 0 0 .21.41 1.44 1.44 0 0 0 .79.34h.2zM78.51 15.11a4.23 4.23 0 0 1-2-.45 3.73 3.73 0 0 1-1.43-1.39 5.77 5.77 0 0 1-.81-3.14 5.28 5.28 0 0 1 1.53-4 3.6 3.6 0 0 1 2.57-1.08 3.22 3.22 0 0 1 1.45.33 3.15 3.15 0 0 1 1.12 1 4 4 0 0 1 .71 2.41V9h-5.27v.5a7.11 7.11 0 0 0 .22 1.78 4.71 4.71 0 0 0 .58 1.41 2.79 2.79 0 0 0 .91.87 2 2 0 0 0 1.91.13 1.62 1.62 0 0 0 .62-.47 3 3 0 0 0 .5-1.13l.08-.28.67.26v.22a3.43 3.43 0 0 1-1.09 2.07 3.33 3.33 0 0 1-2.27.75zm-2-7h3.26a4 4 0 0 0-.28-1.28 1.83 1.83 0 0 0-.56-.73 1.13 1.13 0 0 0-.7-.25 1.37 1.37 0 0 0-1.12.68 3.44 3.44 0 0 0-.63 1.56z"/></g><path d="M7.12 13.65h2.26v1.14H2.57v-1.14h2.26V.74S1.05.73 1.05 5.67H.29V0h11.39v5.67h-.78S10.72.73 7.12.73z" fill="#fd0865"/><path d="M84.89 7.1h2.78v2.78h-2.78zM88.43 6.4a1.29 1.29 0 1 1 1.28 1.29 1.28 1.28 0 0 1-1.28-1.29zm.17 0a1.11 1.11 0 1 0 2.22 0 1.11 1.11 0 1 0-2.22 0zm1.08.16h-.26v.58h-.2V5.67h.6a.44.44 0 0 1 .47.45.43.43 0 0 1-.37.43l.39.59h-.24zm-.26-.72v.54h.4a.25.25 0 0 0 .27-.26.26.26 0 0 0-.27-.28z" fill="#767578"/></svg>