<?xml version="1.0" encoding="UTF-8"?>
<svg xmlns="http://www.w3.org/2000/svg" xmlns:xlink="http://www.w3.org/1999/xlink" width="198.8pt" height="48.33pt" viewBox="0 0 198.8 48.33" version="1.1">
<defs>
<clipPath id="clip1">
  <path d="M 0 0 L 55 0 L 55 48.328125 L 0 48.328125 Z M 0 0 "/>
</clipPath>
<clipPath id="clip2">
  <path d="M 47 15 L 198.800781 15 L 198.800781 33 L 47 33 Z M 47 15 "/>
</clipPath>
</defs>
<g id="surface1">
<g clip-path="url(#clip1)" clip-rule="nonzero">
<path style=" stroke:none;fill-rule:nonzero;fill:rgb(44.699097%,75.299072%,30.999756%);fill-opacity:1;" d="M 18.730469 1.003906 C 19.355469 0.628906 19.980469 0.253906 20.605469 0.00390625 C 20.855469 0.628906 21.226563 1.253906 21.476563 1.878906 C 20.105469 2.625 18.730469 3.25 17.480469 4.125 C 13.984375 6.246094 10.738281 8.746094 7.992188 11.867188 C 5.867188 14.363281 4.121094 17.363281 3.746094 20.734375 C 3.621094 22.730469 3.996094 24.855469 5.246094 26.476563 C 6.367188 27.851563 8.117188 28.851563 9.863281 29.097656 C 11.863281 29.472656 13.984375 29.222656 15.859375 28.726563 C 19.730469 27.726563 23.226563 25.851563 26.597656 23.855469 C 28.597656 22.605469 30.59375 21.355469 32.21875 19.609375 C 32.839844 18.859375 33.339844 17.984375 33.339844 16.988281 C 33.339844 16.238281 32.839844 15.488281 32.21875 15.238281 C 31.59375 14.863281 30.71875 14.738281 29.96875 14.863281 C 28.96875 15.113281 27.972656 15.613281 26.972656 16.113281 C 24.101563 17.609375 21.601563 19.609375 18.730469 21.109375 C 16.984375 21.980469 15.109375 22.855469 13.113281 22.855469 C 11.863281 22.855469 10.613281 22.355469 9.863281 21.355469 C 9.242188 20.609375 8.992188 19.734375 9.117188 18.734375 C 9.242188 17.238281 9.863281 15.738281 10.738281 14.613281 C 12.363281 12.367188 14.609375 10.742188 16.984375 9.371094 C 20.976563 6.746094 25.347656 4.625 29.96875 3.375 C 32.46875 2.75 34.964844 2.375 37.460938 2.5 C 41.082031 2.625 44.703125 3.75 47.703125 5.871094 C 51.199219 8.371094 53.820313 12.367188 54.070313 16.738281 C 54.445313 20.359375 53.320313 23.980469 51.699219 27.226563 C 50.449219 29.722656 48.699219 31.972656 46.828125 33.96875 C 45.328125 35.59375 43.707031 37.089844 42.082031 38.464844 C 39.960938 40.339844 37.585938 41.960938 35.214844 43.460938 C 32.839844 44.957031 30.21875 46.207031 27.597656 47.332031 C 26.847656 47.707031 25.972656 48.082031 25.222656 48.328125 C 24.726563 46.082031 23.976563 43.835938 23.476563 41.585938 C 25.597656 40.585938 27.722656 39.714844 29.84375 38.589844 C 32.21875 37.339844 34.464844 35.71875 36.589844 34.09375 C 38.460938 32.597656 40.210938 31.097656 41.832031 29.347656 C 44.578125 26.476563 46.828125 22.730469 47.328125 18.734375 C 47.453125 17.238281 47.453125 15.863281 47.078125 14.363281 C 46.203125 11.367188 44.082031 8.746094 41.207031 7.246094 C 38.835938 5.996094 36.089844 5.5 33.464844 5.75 C 29.59375 5.996094 25.972656 7.496094 22.601563 9.246094 C 20.976563 10.117188 19.480469 10.992188 17.980469 11.992188 C 16.484375 12.867188 15.109375 13.863281 13.984375 15.238281 C 13.484375 15.863281 13.113281 16.613281 13.113281 17.363281 C 13.113281 17.859375 13.484375 18.484375 13.984375 18.609375 C 14.859375 18.984375 15.859375 18.609375 16.734375 18.234375 C 20.855469 16.238281 24.351563 13.117188 28.71875 11.617188 C 30.84375 10.867188 33.339844 10.742188 35.464844 11.617188 C 37.210938 12.367188 38.585938 13.988281 38.960938 15.863281 C 39.085938 16.988281 39.085938 18.109375 38.710938 19.109375 C 38.085938 20.734375 37.085938 22.105469 35.839844 23.355469 C 34.339844 24.855469 32.59375 26.101563 30.84375 27.226563 C 28.347656 28.601563 25.972656 30.222656 23.351563 31.347656 C 21.101563 32.347656 18.605469 33.21875 16.234375 33.84375 C 13.484375 34.59375 10.613281 34.71875 7.867188 34.09375 C 5.121094 33.46875 2.871094 31.972656 1.625 29.847656 C 0.5 28.101563 0 25.976563 0 23.980469 C 0.125 21.605469 0.625 19.234375 1.625 17.113281 C 3.371094 13.492188 5.992188 10.242188 9.117188 7.621094 C 12.113281 5 15.359375 2.75 18.855469 0.878906 L 18.730469 1.003906 "/>
</g>
<g clip-path="url(#clip2)" clip-rule="nonzero">
<path style=" stroke:none;fill-rule:nonzero;fill:rgb(59.199524%,61.999512%,59.199524%);fill-opacity:1;" d="M 189.183594 17.363281 C 192.304688 17.363281 195.300781 17.363281 198.421875 17.363281 C 198.421875 17.984375 198.421875 18.609375 198.421875 19.234375 C 196.050781 19.234375 193.554688 19.234375 191.179688 19.234375 C 191.179688 20.609375 191.179688 22.105469 191.179688 23.480469 C 193.429688 23.480469 195.675781 23.480469 198.050781 23.480469 C 198.050781 24.105469 198.050781 24.730469 198.050781 25.351563 C 195.800781 25.351563 193.554688 25.351563 191.179688 25.351563 C 191.179688 26.851563 191.179688 28.351563 191.179688 29.847656 C 193.679688 29.847656 196.300781 29.847656 198.796875 29.847656 C 198.796875 30.472656 198.796875 31.097656 198.796875 31.722656 C 195.550781 31.722656 192.429688 31.722656 189.183594 31.722656 C 189.183594 26.976563 189.183594 22.105469 189.183594 17.363281 Z M 168.203125 17.363281 C 171.949219 17.363281 175.695313 17.363281 179.441406 17.363281 C 179.441406 17.984375 179.441406 18.609375 179.441406 19.234375 C 177.945313 19.234375 176.320313 19.234375 174.820313 19.234375 C 174.820313 23.355469 174.820313 27.601563 174.820313 31.722656 C 174.199219 31.722656 173.574219 31.722656 172.824219 31.722656 C 172.824219 27.601563 172.824219 23.355469 172.824219 19.234375 C 171.324219 19.234375 169.703125 19.234375 168.203125 19.234375 C 168.203125 18.609375 168.203125 17.984375 168.203125 17.363281 Z M 154.34375 17.363281 C 154.96875 17.363281 155.59375 17.363281 156.089844 17.363281 C 158.089844 22.105469 160.210938 26.851563 162.210938 31.722656 C 161.460938 31.722656 160.710938 31.847656 159.960938 31.722656 C 159.339844 30.597656 158.964844 29.347656 158.464844 28.226563 C 156.214844 28.226563 153.96875 28.226563 151.722656 28.226563 C 151.222656 29.347656 150.847656 30.597656 150.347656 31.722656 C 149.597656 31.847656 148.847656 31.722656 148.097656 31.722656 C 150.222656 26.976563 152.34375 22.105469 154.46875 17.363281 Z M 109.015625 17.363281 C 109.640625 17.363281 110.261719 17.363281 110.761719 17.363281 C 112.761719 22.105469 114.882813 26.851563 116.882813 31.722656 C 116.132813 31.722656 115.382813 31.847656 114.632813 31.722656 C 114.132813 30.597656 113.636719 29.347656 113.136719 28.226563 C 110.886719 28.226563 108.640625 28.226563 106.390625 28.226563 C 105.890625 29.347656 105.519531 30.597656 105.019531 31.722656 C 104.269531 31.722656 103.519531 31.722656 102.769531 31.722656 C 104.769531 26.976563 107.015625 22.105469 109.015625 17.363281 Z M 84.414063 17.363281 C 87.535156 17.363281 90.53125 17.363281 93.65625 17.363281 C 93.65625 17.984375 93.65625 18.609375 93.65625 19.234375 C 91.15625 19.234375 88.785156 19.234375 86.285156 19.234375 C 86.285156 20.609375 86.285156 22.105469 86.285156 23.480469 C 88.535156 23.480469 90.78125 23.480469 93.03125 23.480469 C 93.03125 24.105469 93.03125 24.730469 93.03125 25.351563 C 90.78125 25.351563 88.535156 25.351563 86.285156 25.351563 C 86.285156 26.851563 86.164063 28.351563 86.285156 29.847656 C 86.785156 29.972656 87.410156 29.847656 87.910156 29.847656 C 89.910156 29.847656 91.90625 29.847656 93.90625 29.847656 C 93.90625 30.472656 93.90625 31.097656 93.90625 31.722656 C 90.65625 31.722656 87.535156 31.722656 84.289063 31.722656 C 84.289063 26.976563 84.289063 22.105469 84.289063 17.363281 Z M 129.492188 17.859375 C 131.117188 16.988281 133.113281 16.863281 134.863281 17.238281 C 136.238281 17.484375 137.484375 17.984375 138.359375 18.984375 C 137.859375 19.484375 137.484375 19.984375 136.984375 20.484375 C 134.988281 18.609375 131.492188 18.359375 129.492188 20.359375 C 127.371094 22.230469 127.121094 25.726563 128.617188 27.976563 C 129.492188 29.222656 130.742188 30.097656 132.242188 30.347656 C 133.738281 30.472656 135.238281 30.347656 136.609375 29.722656 C 136.609375 28.351563 136.609375 27.101563 136.609375 25.726563 C 135.613281 25.726563 134.488281 25.726563 133.488281 25.726563 C 133.488281 25.101563 133.488281 24.480469 133.488281 23.855469 C 135.238281 23.855469 136.859375 23.855469 138.609375 23.855469 C 138.609375 26.101563 138.609375 28.476563 138.609375 30.722656 C 138.609375 30.972656 138.359375 31.097656 138.109375 31.222656 C 136.238281 32.097656 134.238281 32.347656 132.242188 32.222656 C 130.117188 32.097656 128.121094 30.972656 126.996094 29.222656 C 125.746094 27.476563 125.371094 25.226563 125.746094 23.230469 C 126.121094 20.984375 127.496094 18.984375 129.617188 17.984375 Z M 66.683594 17.859375 C 68.179688 16.988281 69.929688 16.988281 71.550781 17.363281 C 72.425781 17.484375 73.175781 18.109375 73.800781 18.734375 C 73.300781 19.234375 72.800781 19.734375 72.175781 20.234375 C 71.175781 18.859375 69.054688 18.609375 67.679688 19.484375 C 66.808594 20.109375 66.558594 21.480469 67.179688 22.355469 C 67.804688 23.105469 68.804688 23.355469 69.804688 23.730469 C 70.925781 23.980469 72.175781 24.355469 73.050781 25.351563 C 73.925781 26.226563 74.050781 27.476563 73.925781 28.601563 C 73.800781 29.847656 73.050781 30.972656 71.925781 31.597656 C 70.804688 32.222656 69.554688 32.472656 68.304688 32.347656 C 66.808594 32.222656 65.308594 31.597656 64.433594 30.347656 C 64.933594 29.847656 65.558594 29.347656 66.058594 28.972656 C 67.179688 30.597656 69.679688 31.097656 71.175781 29.847656 C 72.050781 29.222656 72.300781 27.851563 71.550781 26.976563 C 70.804688 26.226563 69.679688 25.976563 68.679688 25.726563 C 67.554688 25.351563 66.433594 24.855469 65.683594 23.855469 C 65.058594 23.105469 64.933594 21.980469 64.933594 20.984375 C 65.058594 19.734375 65.808594 18.734375 66.808594 18.109375 Z M 47.453125 18.234375 C 47.453125 17.484375 47.453125 16.738281 47.453125 15.988281 C 47.578125 16.738281 47.578125 17.484375 47.453125 18.234375 "/>
</g>
<path style=" stroke:none;fill-rule:nonzero;fill:rgb(100%,100%,100%);fill-opacity:1;" d="M 152.46875 26.476563 C 153.34375 24.355469 154.21875 22.105469 155.21875 19.984375 C 156.089844 22.105469 156.964844 24.355469 157.839844 26.476563 C 156.089844 26.476563 154.21875 26.476563 152.46875 26.476563 Z M 107.140625 26.476563 C 108.015625 24.355469 108.890625 22.105469 109.886719 19.984375 C 110.761719 22.105469 111.636719 24.355469 112.511719 26.476563 C 110.761719 26.476563 108.890625 26.476563 107.140625 26.476563 "/>
</g>
</svg>
