<?xml version="1.0" encoding="UTF-8"?>
<svg xmlns="http://www.w3.org/2000/svg" xmlns:xlink="http://www.w3.org/1999/xlink" width="370pt" height="46.23pt" viewBox="0 0 370 46.23" version="1.1">
<defs>
<clipPath id="clip1">
  <path d="M 230 14 L 261 14 L 261 46.230469 L 230 46.230469 Z M 230 14 "/>
</clipPath>
<clipPath id="clip2">
  <path d="M 265 14 L 301 14 L 301 46.230469 L 265 46.230469 Z M 265 14 "/>
</clipPath>
<clipPath id="clip3">
  <path d="M 61 0 L 105 0 L 105 46.230469 L 61 46.230469 Z M 61 0 "/>
</clipPath>
<clipPath id="clip4">
  <path d="M 143 0 L 183 0 L 183 46.230469 L 143 46.230469 Z M 143 0 "/>
</clipPath>
<clipPath id="clip5">
  <path d="M 0 0 L 56 0 L 56 46.230469 L 0 46.230469 Z M 0 0 "/>
</clipPath>
</defs>
<g id="surface1">
<path style=" stroke:none;fill-rule:nonzero;fill:rgb(0.799561%,0.799561%,0.799561%);fill-opacity:1;" d="M 227.746094 1.597656 L 213.96875 1.597656 L 213.96875 6 L 218.464844 6 L 218.464844 19.6875 L 195.917969 19.6875 L 195.917969 6 L 200.527344 6 L 200.527344 1.597656 L 186.78125 1.597656 L 186.78125 6 L 190.738281 6 L 190.738281 41.105469 L 186.78125 41.105469 L 186.78125 45.476563 L 200.527344 45.476563 L 200.527344 41.105469 L 195.917969 41.105469 L 195.917969 24.625 L 218.464844 24.625 L 218.464844 41.105469 L 213.96875 41.105469 L 213.96875 45.476563 L 227.746094 45.476563 L 227.746094 41.105469 L 223.726563 41.105469 L 223.726563 6 L 227.746094 6 L 227.746094 1.597656 "/>
<g clip-path="url(#clip1)" clip-rule="nonzero">
<path style=" stroke:none;fill-rule:nonzero;fill:rgb(0.799561%,0.799561%,0.799561%);fill-opacity:1;" d="M 245.636719 14.078125 C 241.007813 14.078125 237.300781 15.515625 234.515625 18.390625 C 231.726563 21.265625 230.335938 25.074219 230.335938 29.824219 C 230.335938 34.769531 231.734375 38.738281 234.527344 41.730469 C 237.324219 44.722656 241.007813 46.21875 245.574219 46.21875 C 248.832031 46.21875 251.757813 45.34375 254.347656 43.585938 C 256.9375 41.828125 258.902344 39.410156 260.230469 36.332031 L 255.191406 36.332031 C 254.210938 37.957031 253.175781 39.355469 251.632813 40.234375 C 250.085938 41.113281 248.144531 41.824219 246.320313 41.824219 C 243.433594 41.824219 240.710938 40.523438 238.796875 38.753906 C 236.882813 36.988281 235.820313 34.671875 235.617188 31.808594 L 260.9375 31.808594 L 260.9375 31.09375 C 260.9375 25.953125 259.535156 21.832031 256.730469 18.730469 C 253.921875 15.632813 250.226563 14.078125 245.636719 14.078125 M 235.617188 27.351563 C 236.027344 24.554688 237.054688 22.421875 238.703125 20.960938 C 240.355469 19.496094 242.722656 18.289063 245.464844 18.289063 C 248.210938 18.289063 250.78125 19.230469 252.433594 20.691406 C 254.082031 22.15625 254.90625 24.554688 255.316406 27.351563 L 235.957031 27.351563 "/>
</g>
<g clip-path="url(#clip2)" clip-rule="nonzero">
<path style=" stroke:none;fill-rule:nonzero;fill:rgb(0.799561%,0.799561%,0.799561%);fill-opacity:1;" d="M 280.175781 14.078125 C 275.996094 14.078125 272.484375 15.625 269.636719 18.714844 C 266.789063 21.804688 265.367188 25.617188 265.367188 30.148438 C 265.367188 34.683594 266.785156 38.484375 269.621094 41.550781 C 272.460938 44.621094 275.976563 46.15625 280.175781 46.15625 C 282.347656 46.15625 284.296875 45.75 286.015625 44.9375 C 287.734375 44.121094 289.179688 42.925781 290.347656 41.339844 L 290.347656 45.40625 L 300.179688 45.40625 L 300.179688 40.820313 L 295.785156 40.820313 L 295.785156 19.480469 L 300.179688 19.480469 L 300.179688 14.894531 L 290.347656 14.894531 L 290.347656 18.894531 C 289.058594 17.289063 287.566406 16.085938 285.878906 15.285156 C 284.1875 14.480469 282.285156 14.078125 280.175781 14.078125 M 280.550781 41.824219 C 277.636719 41.824219 275.207031 40.722656 273.25 38.515625 C 271.296875 36.3125 270.320313 33.523438 270.320313 30.148438 C 270.320313 26.753906 271.277344 23.96875 273.1875 21.796875 C 275.101563 19.628906 277.554688 18.542969 280.550781 18.542969 C 283.460938 18.542969 285.886719 19.632813 287.832031 21.816406 C 289.773438 23.996094 290.746094 26.773438 290.746094 30.148438 C 290.746094 33.523438 289.773438 36.3125 287.832031 38.515625 C 285.886719 40.722656 283.460938 41.824219 280.550781 41.824219 "/>
</g>
<path style=" stroke:none;fill-rule:nonzero;fill:rgb(0.799561%,0.799561%,0.799561%);fill-opacity:1;" d="M 311.457031 0.984375 L 301.402344 0.984375 L 301.402344 5.195313 L 306.222656 5.195313 L 306.222656 39.132813 C 306.332031 44.78125 310.429688 45.796875 313.359375 45.796875 C 315 45.796875 316.277344 45.476563 316.277344 45.476563 L 316.277344 41.28125 C 316.277344 41.28125 315.828125 41.375 315.207031 41.375 C 313.847656 41.375 311.648438 40.933594 311.457031 38.140625 L 311.457031 0.984375 "/>
<path style=" stroke:none;fill-rule:nonzero;fill:rgb(0.799561%,0.799561%,0.799561%);fill-opacity:1;" d="M 325.621094 7.160156 L 320.683594 7.160156 L 320.683594 14.367188 L 315.625 14.367188 L 315.625 18.5625 L 320.683594 18.5625 L 320.683594 37.980469 C 320.570313 44.390625 324.441406 45.714844 326.722656 45.714844 C 327.652344 45.714844 328.464844 45.691406 329.160156 45.640625 C 329.855469 45.589844 331.800781 45.515625 332.398438 45.417969 L 332.398438 40.984375 C 332.398438 40.984375 329.078125 41.28125 328.863281 41.28125 C 327.472656 41.28125 326.585938 41.050781 326.199219 40.582031 C 325.8125 40.117188 325.621094 38.765625 325.621094 36.523438 L 325.621094 18.5625 L 331.910156 18.5625 L 331.910156 14.367188 L 325.621094 14.367188 L 325.621094 7.160156 "/>
<path style=" stroke:none;fill-rule:nonzero;fill:rgb(0.799561%,0.799561%,0.799561%);fill-opacity:1;" d="M 344.390625 0.984375 L 334.871094 0.984375 L 334.871094 4.996094 L 339.15625 4.996094 L 339.15625 41.28125 L 334.871094 41.28125 L 334.871094 45.476563 L 348.703125 45.476563 L 348.703125 41.28125 L 343.804688 41.28125 L 343.871094 24.46875 C 344.765625 20.804688 349.011719 18.007813 352.910156 18.007813 C 353.214844 18.007813 353.515625 18.027344 353.8125 18.0625 C 355.332031 18.238281 357.539063 18.78125 358.566406 20.023438 C 359.320313 20.9375 361.371094 22.03125 361.4375 28.726563 L 361.4375 41.28125 L 356.167969 41.28125 L 356.167969 45.476563 L 370 45.476563 L 370 41.28125 L 366.316406 41.28125 L 366.25 28.375 C 366.25 28.375 366.648438 21.695313 363.261719 17.824219 C 360.808594 15.015625 356.152344 13.621094 354.566406 13.621094 C 352.722656 13.621094 350.734375 13.71875 349.082031 14.480469 C 347.425781 15.246094 346.015625 15.914063 344.390625 17.523438 L 344.390625 0.984375 "/>
<g clip-path="url(#clip3)" clip-rule="nonzero">
<path style=" stroke:none;fill-rule:nonzero;fill:rgb(84.698486%,14.099121%,15.299988%);fill-opacity:1;" d="M 83.476563 0.539063 C 76.363281 0.539063 70.863281 2.5 66.972656 6.425781 C 63.085938 10.351563 61.144531 15.96875 61.144531 23.277344 C 61.144531 28.761719 62.246094 33.257813 64.457031 36.773438 C 66.667969 40.289063 69.296875 42.742188 72.339844 44.136719 C 75.382813 45.53125 79.304688 46.230469 84.109375 46.230469 C 88.066406 46.230469 91.328125 45.65625 93.890625 44.511719 C 96.453125 43.367188 98.597656 41.667969 100.324219 39.417969 C 102.050781 37.167969 104.714844 32.71875 104.714844 28.507813 L 91.933594 28.328125 C 91.332031 31.121094 90.585938 32.316406 89.246094 33.78125 C 87.910156 35.25 85.9375 35.980469 83.324219 35.980469 C 80.632813 35.980469 78.542969 35.074219 77.054688 33.257813 C 75.570313 31.441406 74.824219 28.085938 74.824219 23.1875 C 74.824219 19.234375 75.449219 16.335938 76.695313 14.488281 C 78.34375 12 80.714844 10.753906 83.808594 10.753906 C 85.171875 10.753906 86.410156 11.039063 87.515625 11.601563 C 88.621094 12.164063 89.554688 12.964844 90.316406 14.011719 C 90.78125 14.632813 91.222656 15.617188 91.644531 16.964844 L 104.714844 17.152344 C 103.476563 10.070313 99.785156 6.164063 96.601563 3.914063 C 93.417969 1.664063 89.042969 0.539063 83.476563 0.539063 "/>
</g>
<path style=" stroke:none;fill-rule:nonzero;fill:rgb(84.698486%,14.099121%,15.299988%);fill-opacity:1;" d="M 145.363281 1.292969 L 131.507813 1.292969 L 123.839844 29.511719 L 116.503906 1.292969 L 102.230469 1.292969 L 116.308594 45.476563 L 131.109375 45.476563 L 145.363281 1.292969 "/>
<g clip-path="url(#clip4)" clip-rule="nonzero">
<path style=" stroke:none;fill-rule:nonzero;fill:rgb(84.698486%,14.099121%,15.299988%);fill-opacity:1;" d="M 163.238281 0.539063 C 158.636719 0.539063 155.015625 1.117188 152.375 2.269531 C 149.730469 3.425781 147.199219 4.925781 145.886719 6.941406 C 144.570313 8.964844 143.910156 11.109375 143.910156 13.378906 C 143.910156 16.835938 145 20.152344 147.46875 22.496094 C 150.472656 25.351563 154.757813 26.710938 160.746094 28.058594 C 164.402344 28.863281 167.117188 29.019531 168.121094 29.925781 C 169.128906 30.828125 168.960938 31.925781 168.910156 33.070313 C 168.8125 35.472656 165.5 36.304688 163.550781 36.324219 C 163.515625 36.324219 163.476563 36.324219 163.4375 36.324219 C 158.910156 36.324219 157.117188 33.324219 156.835938 31.234375 L 143.511719 31.214844 C 143.890625 35.675781 144.824219 38.996094 147.71875 41.890625 C 150.609375 44.78125 155.8125 46.230469 163.328125 46.230469 C 167.609375 46.230469 171.15625 45.613281 173.96875 44.375 C 176.78125 43.140625 178.972656 41.328125 180.539063 38.9375 C 182.105469 36.546875 182.890625 33.933594 182.890625 31.101563 C 182.890625 28.6875 182.304688 26.507813 181.128906 24.558594 C 179.953125 22.609375 177.957031 21.457031 175.375 20.140625 C 172.792969 18.828125 168.367188 17.777344 162.398438 16.488281 C 159.988281 15.988281 157.5625 15.230469 157.644531 12.582031 C 157.695313 10.972656 160.261719 9.519531 161.847656 9.519531 C 164.703125 9.519531 168.261719 11.007813 168.261719 14.078125 L 181.339844 14.03125 C 180.773438 9.449219 179.117188 5.789063 176.152344 3.6875 C 173.191406 1.589844 168.886719 0.539063 163.238281 0.539063 "/>
</g>
<g clip-path="url(#clip5)" clip-rule="nonzero">
<path style=" stroke:none;fill-rule:nonzero;fill:rgb(84.698486%,14.099121%,15.299988%);fill-opacity:1;" d="M 55.050781 11.8125 C 52.703125 9.511719 45.601563 2.582031 43.527344 0.558594 C 43.15625 0.199219 42.664063 0 42.148438 0 L 38.246094 0 C 37.703125 0 37.179688 0.226563 36.808594 0.621094 L 28.523438 9.371094 L 27.890625 9.421875 L 27.257813 9.371094 L 18.972656 0.621094 C 18.597656 0.226563 18.078125 0 17.535156 0 L 13.632813 0 C 13.113281 0 12.621094 0.199219 12.253906 0.558594 C 10.179688 2.582031 3.074219 9.511719 0.726563 11.8125 C 0.261719 12.269531 0 12.894531 0 13.546875 L 0 17.722656 C 0 18.371094 0.261719 18.996094 0.726563 19.453125 L 27.890625 46.230469 L 55.054688 19.453125 C 55.519531 18.996094 55.78125 18.371094 55.78125 17.722656 L 55.78125 13.546875 C 55.78125 12.894531 55.519531 12.269531 55.050781 11.8125 "/>
</g>
</g>
</svg>
