<?xml version="1.0" encoding="utf-8"?>
<!-- Generator: Adobe Illustrator 19.0.0, SVG Export Plug-In . SVG Version: 6.00 Build 0)  -->
<svg version="1.1" id="Layer_1" xmlns="http://www.w3.org/2000/svg" xmlns:xlink="http://www.w3.org/1999/xlink" x="0px" y="0px"
	 viewBox="0 0 500 500" style="enable-background:new 0 0 500 500;" xml:space="preserve">
<style type="text/css">
	.st0{fill:#00ADEF;}
	.st1{fill:#797A7D;}
</style>
<g id="XMLID_1_">
	<path id="XMLID_3_" class="st0" d="M88.3,232.6c2.3-2.3,4.2-3.9,6.1-5.1c1.9-1.2,4.2-1.8,7-1.8c4.4,0,7.5,1.5,9.4,4.5
		c1.9,3,2.8,7,2.8,11.8V274c0,1.3-0.7,2.2-2,2.6c-1.4,0.4-3.2,0.7-5.4,0.8v1.4h25.9v-1.1c-0.8-0.1-1.6-0.2-2.5-0.3
		c-0.9-0.1-1.7-0.3-2.5-0.5c-0.8-0.2-1.4-0.5-2-0.9c-0.5-0.4-0.8-0.9-0.8-1.5v-37.2c0-5.7-1.3-10.4-3.9-14.1
		c-2.6-3.6-6.4-5.4-11.3-5.4c-2.3,0-4.5,0.4-6.6,1.3c-2.1,0.9-4.1,2-5.8,3.4c-1.8,1.4-3.4,2.8-4.7,4.5c-1.4,1.6-2.6,3.2-3.5,4.6"/>
	<path id="XMLID_4_" class="st0" d="M85.1,235v39.3c0.2,0.8,0.5,1.5,0.9,1.8c0.4,0.4,0.9,0.7,1.5,0.8c0.6,0.2,1.3,0.3,2,0.3
		c0.8,0,1.6,0.1,2.4,0.3v1.3H67.5v-1.3c1.9-0.2,3.6-0.6,5-1.1c1.4-0.6,2.1-1.6,2.1-2.9v-43.6c0-0.7-0.1-1.2-0.2-1.5
		c-0.1-0.3-0.5-0.7-1.1-1.1c-0.8-0.4-1.7-0.9-2.7-1.5c-1-0.6-2-1-3-1.5v-0.8l16.6-5.9h0.9L85.1,235"/>
	<path id="XMLID_5_" class="st1" d="M388.9,232.6c2.3-2.3,4.2-3.9,6.1-5.1c1.9-1.2,4.2-1.8,7-1.8c4.4,0,7.5,1.5,9.4,4.5
		c1.9,3,2.8,6.9,2.8,11.8V274c0,1.3-0.7,2.2-2,2.6c-1.4,0.4-3.2,0.7-5.4,0.8v1.4h25.9v-1.1c-0.8-0.1-1.6-0.2-2.5-0.3
		c-0.9-0.1-1.7-0.3-2.5-0.5c-0.8-0.2-1.4-0.5-2-1c-0.6-0.4-0.8-0.9-0.8-1.5v-37.2c0-5.7-1.3-10.4-3.9-14.1
		c-2.6-3.6-6.4-5.4-11.3-5.4c-2.3,0-4.5,0.4-6.6,1.3c-2.1,0.9-4.1,2-5.8,3.4c-1.8,1.4-3.4,2.8-4.8,4.5c-1.4,1.6-2.5,3.2-3.5,4.6"/>
	<path id="XMLID_6_" class="st1" d="M385.7,235v39.3c0.2,0.8,0.5,1.5,0.9,1.8c0.4,0.4,0.9,0.7,1.5,0.8c0.6,0.2,1.3,0.3,2,0.3
		c0.8,0,1.6,0.1,2.4,0.3v1.3h-24.4v-1.3c1.9-0.2,3.6-0.6,5-1.1c1.4-0.6,2.1-1.6,2.1-2.9v-43.6c0-0.7-0.1-1.2-0.2-1.5
		c-0.1-0.3-0.5-0.7-1.1-1.1c-0.8-0.4-1.6-0.9-2.7-1.5c-1-0.6-2-1-3-1.5v-0.8l16.6-6h0.9L385.7,235"/>
	<path id="XMLID_7_" class="st1" d="M135,278.8v-1.3c1-0.1,2.1-0.2,3.1-0.3c1-0.1,2-0.3,2.8-0.7c0.8-0.3,1.5-0.7,2.1-1.2
		c0.6-0.5,0.8-1.2,0.8-1.9v-44.2c0-0.7-0.1-1.3-0.2-1.8c-0.1-0.5-0.5-1-1.1-1.4c-0.8-0.5-1.7-1-2.8-1.5c-1.1-0.5-2.2-1-3.4-1.4v-0.8
		l17.4-5.7h0.8v57.6c0.2,0.9,0.5,1.5,1.1,1.9c0.6,0.4,1.2,0.7,2,0.8c0.8,0.2,1.6,0.3,2.5,0.3c0.9,0,1.8,0.1,2.6,0.3v1.3L135,278.8"
		/>
	<path id="XMLID_8_" class="st1" d="M153.4,203.8c-1.3,1.3-2.9,1.9-4.8,1.9c-1.8,0-3.4-0.7-4.7-2c-1.3-1.3-2-2.9-2-4.8
		c0-1.9,0.6-3.5,1.9-4.8c1.3-1.3,2.9-1.9,4.8-1.9c1.9,0,3.5,0.6,4.8,1.9c1.3,1.2,1.9,2.8,1.9,4.8
		C155.3,200.8,154.7,202.5,153.4,203.8"/>
	<path id="XMLID_9_" class="st1" d="M321.1,236c0.2-1,0.6-2.5,1.4-4.4c0.8-1.9,1.9-3.8,3.3-5.7c1.4-1.9,3.1-3.5,5-5
		c1.9-1.4,4.1-2.1,6.5-2.1c3.7,0,6.6,1.1,8.8,3.4c2.2,2.3,3.3,5,3.3,8.2c0,1.2-0.1,2.1-0.5,2.7c-0.3,0.6-0.8,1.2-1.4,1.9
		c-0.9,0.3-1.8,0.6-3,0.6c-1.1,0.1-2.3,0.1-3.6,0.1c-2,0-3.8,0-5.4,0.1c-1.6,0-3.2,0.1-4.7,0.1c-1.5,0-2.4,0.1-4,0.1l-0.6,1.8h35.8
		c-0.3-3.6-1.1-6.7-2.4-9.4c-1.4-2.7-3.2-4.9-5.4-6.6c-2.2-1.8-4.8-3.1-7.7-3.9c-3-0.9-6.1-1.3-9.5-1.3c-4.1,0-7.9,0.9-11.3,2.6
		c-3.4,1.8-6.3,4.1-8.6,6.9c-2.4,2.8-4.2,6-5.5,9.6c-1.3,3.6-1.9,7.2-1.9,10.8c0,4.5,0.7,8.7,2.1,12.7c1.4,4,3.3,7.5,5.9,10.4
		c2.5,3,5.6,5.3,9.2,6.9c3.6,1.6,7.6,2.4,12,2.4c3.5,0,6.7-0.6,9.6-1.9c2.9-1.3,5.4-2.9,7.4-4.9c2.1-2,3.7-4.1,4.9-6.5
		c1.2-2.4,2-4.5,2.3-6.4l-1-0.3c-1,3.2-3.2,5.9-6.4,8.1c-3.2,2.2-7,3.3-11.3,3.3c-4,0-7.4-0.7-10.4-2.2c-3-1.5-5.5-3.5-7.5-6
		c-2-2.5-3.5-5.5-4.5-8.8c-1-3.3-1.5-6.8-1.5-10.4c0-0.9,0-1.9,0.1-2.8c0.1-0.9,0.1-1.7,0.1-2.4L321.1,236"/>
	<path id="XMLID_10_" class="st1" d="M178,236c0.2-1,0.6-2.5,1.4-4.4c0.8-1.9,1.9-3.8,3.3-5.7c1.4-1.9,3.1-3.5,5-5
		c1.9-1.4,4.1-2.1,6.5-2.1c3.7,0,6.6,1.1,8.8,3.4c2.2,2.3,3.3,5,3.3,8.2c0,1.2-0.1,2.1-0.5,2.7c-0.3,0.6-0.8,1.2-1.4,1.9
		c-0.9,0.3-1.9,0.6-3,0.6c-1.1,0.1-2.3,0.1-3.6,0.1c-2,0-3.8,0-5.4,0.1c-1.6,0-3.2,0.1-4.7,0.1c-1.5,0-2.4,0.1-4,0.1l-0.6,1.8h35.8
		c-0.3-3.6-1.1-6.7-2.4-9.4c-1.4-2.7-3.2-4.9-5.4-6.6c-2.2-1.8-4.8-3.1-7.7-3.9c-3-0.9-6.1-1.3-9.5-1.3c-4.1,0-7.9,0.9-11.3,2.6
		c-3.4,1.8-6.3,4.1-8.6,6.9c-2.4,2.8-4.2,6-5.5,9.6c-1.3,3.6-1.9,7.2-1.9,10.8c0,4.5,0.7,8.7,2.1,12.7c1.4,4,3.3,7.5,5.9,10.4
		c2.5,3,5.6,5.3,9.2,6.9c3.6,1.6,7.6,2.4,12,2.4c3.5,0,6.7-0.6,9.6-1.9c2.9-1.3,5.4-2.9,7.4-4.9c2.1-2,3.7-4.2,4.9-6.5
		c1.2-2.4,2-4.5,2.3-6.4l-1-0.3c-1,3.2-3.2,5.9-6.4,8.1c-3.2,2.2-7,3.3-11.3,3.3c-4,0-7.4-0.7-10.4-2.2c-3-1.5-5.5-3.5-7.5-6
		c-2-2.5-3.5-5.5-4.5-8.8c-1-3.3-1.5-6.8-1.5-10.4c0-0.9,0-1.9,0.1-2.8c0.1-0.9,0.1-1.7,0.1-2.4L178,236"/>
	<path id="XMLID_11_" class="st1" d="M222.6,278.8v-1.4c4-0.3,6.6-0.7,7.9-1.2c1.3-0.6,1.9-1.5,1.9-2.9v-74.2c0-0.7-0.1-1.2-0.2-1.6
		c-0.1-0.3-0.5-0.7-1.1-1.2c-0.8-0.4-1.9-1.1-3.5-2c-1.5-0.9-2.8-1.6-3.9-2v-0.8l18.5-6.1h0.9v88.3c0,0.9,0.2,1.5,0.6,1.9
		c0.4,0.4,1,0.7,1.7,0.9c0.8,0.2,1.8,0.3,3,0.3c1.2,0,2.6,0.2,4.3,0.3v1.4L222.6,278.8"/>
	<path id="XMLID_12_" class="st1" d="M300.1,268.5c-1.3,2.5-3.1,4.4-5.3,6c-2.2,1.5-4.8,2.7-7.7,3.4c-2.9,0.7-5.9,1-9.1,1
		c-3.8,0-7.3-0.3-10.7-1c-3.4-0.7-6.4-1.7-9.3-3v-17h1c0.7,2.1,1.6,4.2,2.6,6.5c1,2.3,2.3,4.4,3.7,6.3c1.5,1.9,3.2,3.5,5.3,4.8
		c2.1,1.3,4.5,1.9,7.4,1.9c4.1,0,7.4-1.2,9.9-3.5c2.5-2.4,3.7-6,3.7-10.9c0-2.7-0.8-4.9-2.5-6.6c-1.7-1.8-4-2.9-6.9-3.5
		c-2.3-0.4-4.6-0.9-6.7-1.4c-2.2-0.5-4.1-1.1-5.8-1.7c-3.3-1.1-5.9-3-7.9-5.8c-2-2.7-3-6.1-3-9.9c0-2.7,0.6-5.1,1.7-7.2
		c1.1-2.2,2.6-4,4.5-5.5c1.9-1.6,4.1-2.7,6.6-3.5c2.5-0.8,5.2-1.2,8-1.2c3.6,0,6.8,0.3,9.5,1c2.8,0.6,5.4,1.4,7.9,2.4l1.5,16l-1,0.3
		c-1.2-2.6-2.4-5-3.6-7.2c-1.2-2.2-2.5-4.1-4-5.7c-1.5-1.6-3.1-2.8-5-3.7c-1.8-0.9-4-1.3-6.4-1.3c-1.5,0-2.9,0.3-4.3,0.8
		c-1.4,0.5-2.7,1.3-3.7,2.3c-1.1,1-2,2.2-2.6,3.7c-0.7,1.5-1,3.2-1,5.2c0,3.2,0.9,5.5,2.7,6.8c1.8,1.4,4.1,2.4,6.8,3.1
		c1.9,0.4,4,0.9,6.2,1.4c2.2,0.5,4.2,0.9,5.8,1.4c3.9,0.9,7.2,2.9,9.9,5.9c2.7,3,4.1,6.7,4.1,11.1
		C302.1,263.2,301.4,266.1,300.1,268.5"/>
	<path id="XMLID_13_" class="st1" d="M85.6,307.8c0,3.6-2.9,6.6-6.6,6.6c-3.6,0-6.6-2.9-6.6-6.6c0-3.6,3-6.6,6.6-6.6
		C82.6,301.2,85.6,304.2,85.6,307.8"/>
	<path id="XMLID_14_" class="st1" d="M128.2,307.8c0,3.6-2.9,6.6-6.6,6.6c-3.6,0-6.6-2.9-6.6-6.6c0-3.6,2.9-6.6,6.6-6.6
		C125.2,301.2,128.2,304.2,128.2,307.8"/>
	<path id="XMLID_15_" class="st1" d="M170.8,307.8c0,3.6-2.9,6.6-6.6,6.6c-3.6,0-6.6-2.9-6.6-6.6c0-3.6,2.9-6.6,6.6-6.6
		S170.8,304.2,170.8,307.8"/>
	<path id="XMLID_16_" class="st1" d="M213.4,307.8c0,3.6-2.9,6.6-6.6,6.6c-3.6,0-6.6-2.9-6.6-6.6c0-3.6,3-6.6,6.6-6.6
		C210.4,301.2,213.4,304.2,213.4,307.8"/>
	<path id="XMLID_17_" class="st1" d="M256,307.8c0,3.6-2.9,6.6-6.6,6.6c-3.6,0-6.6-2.9-6.6-6.6c0-3.6,2.9-6.6,6.6-6.6
		C253,301.2,256,304.2,256,307.8"/>
	<path id="XMLID_18_" class="st1" d="M298.6,307.8c0,3.6-2.9,6.6-6.6,6.6c-3.6,0-6.6-2.9-6.6-6.6c0-3.6,3-6.6,6.6-6.6
		C295.6,301.2,298.6,304.2,298.6,307.8"/>
	<path id="XMLID_19_" class="st1" d="M341.2,307.8c0,3.6-2.9,6.6-6.6,6.6c-3.6,0-6.6-2.9-6.6-6.6c0-3.6,3-6.6,6.6-6.6
		C338.2,301.2,341.2,304.2,341.2,307.8"/>
	<path id="XMLID_20_" class="st1" d="M426.3,307.8c0,3.6-2.9,6.6-6.6,6.6s-6.6-2.9-6.6-6.6c0-3.6,2.9-6.6,6.6-6.6
		S426.3,304.2,426.3,307.8"/>
	<path id="XMLID_21_" class="st1" d="M383.7,307.8c0,3.6-2.9,6.6-6.6,6.6c-3.6,0-6.6-2.9-6.6-6.6c0-3.6,3-6.6,6.6-6.6
		C380.8,301.2,383.7,304.2,383.7,307.8"/>
</g>
</svg>
