<?xml version="1.0" encoding="UTF-8"?>
<svg xmlns="http://www.w3.org/2000/svg" xmlns:xlink="http://www.w3.org/1999/xlink" width="194pt" height="194pt" viewBox="0 0 194 194" version="1.1">
<g id="surface1">
<path style=" stroke:none;fill-rule:evenodd;fill:rgb(100%,100%,100%);fill-opacity:1;" d="M 0.257813 0.675781 L 193.015625 0.675781 L 193.015625 193.433594 L 0.257813 193.433594 L 0.257813 0.675781 "/>
<path style=" stroke:none;fill-rule:evenodd;fill:rgb(41.19873%,41.598511%,42.698669%);fill-opacity:1;" d="M 172.949219 103.695313 L 179.820313 103.695313 L 179.820313 106.316406 L 179.878906 106.316406 C 180.746094 104.207031 182.75 103.367188 184.800781 103.367188 C 188.667969 103.367188 190.082031 105.386719 190.082031 108.277344 L 190.082031 118.757813 L 182.808594 118.757813 L 182.808594 110.070313 C 182.808594 109.203125 182.808594 108.015625 181.53125 108.015625 C 180.222656 108.015625 180.222656 109.203125 180.222656 110.070313 L 180.222656 118.757813 L 172.949219 118.757813 Z M 3.09375 118.757813 L 10.804688 118.757813 L 12.046875 114.402344 L 18.574219 114.402344 L 19.902344 118.757813 L 28.019531 118.757813 L 20.828125 98.597656 L 10.171875 98.597656 Z M 15.355469 102.917969 L 15.414063 102.917969 L 17.609375 109.566406 L 13.128906 109.566406 Z M 45.460938 118.757813 L 38.589844 118.757813 L 38.589844 116.175781 L 38.53125 116.175781 C 37.664063 118.285156 35.65625 119.121094 33.609375 119.089844 C 29.738281 119.089844 28.328125 117.066406 28.328125 114.179688 L 28.328125 103.695313 L 35.601563 103.695313 L 35.601563 112.382813 C 35.601563 113.253906 35.601563 114.441406 36.878906 114.441406 C 38.183594 114.441406 38.183594 113.253906 38.183594 112.382813 L 38.183594 103.695313 L 45.460938 103.695313 Z M 60.84375 110.953125 C 60.84375 116.152344 64.082031 119.09375 70.167969 119.09375 C 76.226563 119.09375 79.523438 116.152344 79.523438 110.953125 C 79.523438 105.898438 76.226563 103.359375 70.167969 103.359375 C 64.082031 103.359375 60.84375 105.898438 60.84375 110.953125 Z M 68.589844 110.953125 C 68.589844 109.15625 68.765625 107.679688 70.167969 107.679688 C 71.574219 107.679688 71.773438 109.15625 71.773438 110.953125 C 71.773438 113.152344 71.574219 114.773438 70.167969 114.773438 C 68.765625 114.773438 68.589844 113.152344 68.589844 110.953125 Z M 81.335938 103.695313 L 88.203125 103.695313 L 88.203125 106.316406 L 88.261719 106.316406 C 89.132813 104.207031 91.136719 103.367188 93.417969 103.367188 C 95.4375 103.367188 97.542969 104.144531 98.121094 105.9375 L 98.179688 105.9375 C 98.671875 104.203125 101.226563 103.367188 103.015625 103.367188 C 108.328125 103.367188 108.328125 106.804688 108.328125 109.722656 L 108.328125 118.757813 L 101.054688 118.757813 L 101.054688 110.070313 C 101.054688 109.203125 101.054688 108.015625 99.746094 108.015625 C 98.46875 108.015625 98.46875 109.203125 98.46875 110.070313 L 98.46875 118.757813 L 91.195313 118.757813 L 91.195313 110.070313 C 91.195313 109.203125 91.195313 108.015625 89.914063 108.015625 C 88.609375 108.015625 88.609375 109.203125 88.609375 110.070313 L 88.609375 118.757813 L 81.335938 118.757813 Z M 120.421875 116.582031 C 119.410156 118.285156 117.558594 119.09375 115.515625 119.09375 C 112.714844 119.09375 109.996094 117.824219 109.996094 114.683594 C 109.996094 110.078125 114.15625 109.160156 117.765625 109.160156 C 118.777344 109.160156 119.929688 109.304688 120.59375 109.363281 C 120.5625 107.398438 118.574219 107.164063 116.757813 107.164063 C 115.023438 107.164063 113.175781 107.722656 111.730469 108.457031 L 111.730469 104.226563 C 113.894531 103.621094 115.195313 103.359375 118.027344 103.359375 C 122.183594 103.359375 127.238281 104.109375 127.238281 109.621094 L 127.238281 118.757813 L 120.476563 118.757813 L 120.476563 116.582031 Z M 120.59375 112.609375 C 120.59375 113.90625 119.84375 115.289063 118.34375 115.289063 C 117.21875 115.289063 116.640625 114.886719 116.640625 113.847656 C 116.640625 112.296875 118.371094 112.148438 119.871094 112.148438 L 120.59375 112.148438 Z M 143.539063 118.757813 L 143.539063 103.726563 L 150.8125 103.726563 L 150.8125 118.757813 Z M 143.539063 101.941406 L 143.539063 98.609375 L 150.8125 98.609375 L 150.8125 101.941406 Z M 152.382813 110.953125 C 152.382813 116.152344 155.621094 119.09375 161.710938 119.09375 C 167.765625 119.09375 171.0625 116.152344 171.0625 110.953125 C 171.0625 105.898438 167.765625 103.359375 161.710938 103.359375 C 155.621094 103.359375 152.382813 105.898438 152.382813 110.953125 Z M 160.132813 110.953125 C 160.132813 109.15625 160.300781 107.679688 161.710938 107.679688 C 163.113281 107.679688 163.3125 109.15625 163.3125 110.953125 C 163.3125 113.152344 163.113281 114.773438 161.710938 114.773438 C 160.300781 114.773438 160.132813 113.152344 160.132813 110.953125 Z M 141.808594 103.675781 L 138.679688 103.675781 L 138.679688 98.601563 L 131.390625 98.601563 L 131.390625 103.675781 L 128.296875 103.675781 L 128.296875 107.90625 L 131.390625 107.90625 L 131.390625 118.757813 L 138.679688 118.757813 L 138.679688 107.90625 L 141.808594 107.90625 Z M 57.445313 98.601563 L 50.15625 98.601563 L 50.15625 103.707031 L 47.058594 103.707031 L 47.058594 107.90625 L 50.15625 107.90625 L 50.15625 118.757813 L 57.445313 118.757813 L 57.445313 107.90625 L 60.574219 107.90625 L 60.574219 103.707031 L 57.445313 103.707031 L 57.445313 98.601563 "/>
<path style=" stroke:none;fill-rule:evenodd;fill:rgb(74.899292%,18.399048%,21.998596%);fill-opacity:1;" d="M 183.195313 94.863281 L 183.195313 75.035156 L 190.179688 75.035156 L 190.179688 94.863281 Z M 66.820313 85.632813 L 66.820313 85.574219 C 69.667969 84.890625 71.574219 83.351563 71.574219 80.308594 C 71.574219 76.496094 68.640625 75.019531 63.890625 75.019531 L 51.589844 75.019531 L 51.589844 94.863281 L 59.214844 94.863281 L 59.214844 88.105469 L 60.914063 88.105469 C 61.851563 88.105469 62.617188 88.21875 63.070313 89.128906 C 63.691406 90.328125 63.777344 93.4375 64.117188 94.863281 L 72.058594 94.863281 C 71.261719 92.929688 71.34375 89.863281 70.179688 87.761719 C 69.46875 86.710938 68.472656 85.914063 66.820313 85.632813 Z M 66.820313 85.632813 L 66.820313 85.574219 Z M 58.875 79.453125 L 60.972656 79.453125 C 62.503906 79.453125 63.949219 79.710938 63.949219 81.503906 C 63.949219 83.496094 62.417969 83.667969 60.859375 83.667969 L 58.875 83.667969 Z M 72.257813 87.179688 C 72.257813 92.296875 75.445313 95.1875 81.433594 95.1875 C 87.394531 95.1875 90.640625 92.296875 90.640625 87.179688 C 90.640625 82.203125 87.394531 79.707031 81.433594 79.707031 C 75.445313 79.707031 72.257813 82.203125 72.257813 87.179688 Z M 79.882813 87.179688 C 79.882813 85.414063 80.050781 83.960938 81.433594 83.960938 C 82.816406 83.960938 83.015625 85.414063 83.015625 87.179688 C 83.015625 89.34375 82.816406 90.9375 81.433594 90.9375 C 80.050781 90.9375 79.882813 89.34375 79.882813 87.179688 Z M 106.246094 94.453125 C 104.652344 94.960938 103.0625 95.1875 100.929688 95.1875 C 94.925781 95.1875 91.738281 92.296875 91.738281 87.179688 C 91.738281 82.203125 94.925781 79.707031 100.929688 79.707031 C 103.0625 79.707031 104.652344 79.90625 106.132813 80.324219 L 106.132813 84.699219 C 105.253906 84.300781 104.199219 83.960938 102.921875 83.960938 C 100.785156 83.960938 99.363281 85.070313 99.363281 87.289063 C 99.363281 89.597656 100.785156 90.9375 102.921875 90.9375 C 104.199219 90.9375 105.253906 90.652344 106.246094 90.054688 Z M 115.230469 86.578125 L 115.289063 86.578125 L 118.800781 80.035156 L 126.617188 80.035156 L 122.484375 86.578125 L 127.398438 94.863281 L 119.324219 94.863281 L 115.289063 86.578125 L 115.230469 86.578125 L 115.230469 94.863281 L 108.070313 94.863281 L 108.070313 75.035156 L 115.230469 75.035156 Z M 135.128906 89.742188 L 135.183594 89.742188 L 136.71875 80.035156 L 145.335938 80.035156 L 146.988281 89.742188 L 147.042969 89.742188 L 148.34375 80.035156 L 154.886719 80.035156 L 151.566406 94.863281 L 142.636719 94.863281 L 140.871094 84.796875 L 140.816406 84.796875 L 138.984375 94.863281 L 129.996094 94.863281 L 126.675781 80.035156 L 133.699219 80.035156 Z M 171.074219 94.339844 C 169.167969 94.933594 166.890625 95.1875 164.375 95.1875 C 158.367188 95.1875 155.1875 92.296875 155.1875 87.167969 C 155.1875 82.210938 158.367188 79.710938 164.375 79.710938 C 170.136719 79.710938 172.15625 83.292969 172.15625 88.277344 L 172.15625 89.15625 L 162.230469 89.15625 C 162.34375 91.015625 164.089844 91.445313 166.203125 91.445313 C 168.171875 91.445313 169.9375 91.101563 171.074219 90.503906 Z M 162.203125 86.03125 C 162.117188 84.871094 162.488281 83.121094 164.148438 83.121094 C 165.777344 83.121094 165.949219 84.902344 165.949219 86.03125 Z M 174.015625 94.863281 L 174.015625 75.035156 L 181.003906 75.035156 L 181.003906 94.863281 L 174.015625 94.863281 "/>
</g>
</svg>
