<?xml version="1.0" encoding="UTF-8"?>
<svg xmlns="http://www.w3.org/2000/svg" xmlns:xlink="http://www.w3.org/1999/xlink" width="556.23pt" height="201.7pt" viewBox="0 0 556.23 201.7" version="1.1">
<defs>
<clipPath id="clip1">
  <path d="M 103 88 L 220 88 L 220 201.699219 L 103 201.699219 Z M 103 88 "/>
</clipPath>
<clipPath id="clip2">
  <path d="M 460 88 L 556.230469 88 L 556.230469 163 L 460 163 Z M 460 88 "/>
</clipPath>
</defs>
<g id="surface1">
<path style=" stroke:none;fill-rule:nonzero;fill:rgb(82.398987%,65.098572%,3.898621%);fill-opacity:1;" d="M 134.316406 88.808594 L 134.757813 7.289063 C 134.757813 0.746094 129.265625 -1.667969 125.585938 1.175781 C 123.21875 2.996094 114.375 11.4375 114.375 11.4375 C 27.269531 92.976563 35.921875 83.625 12.378906 105.546875 C -10.242188 125.3125 -0.398438 166.277344 30.046875 166.277344 C 41.460938 166.289063 54.121094 166.394531 54.121094 166.394531 L 92.113281 128.136719 C 92.113281 128.136719 50.375 128.140625 43.695313 127.914063 C 31.972656 127.488281 31.105469 112.097656 41.476563 103.789063 C 45.210938 100.054688 95.921875 53.171875 95.921875 53.171875 C 95.921875 53.171875 95.929688 133.019531 95.929688 145.347656 C 95.929688 154.527344 93.109375 166.417969 105.347656 166.417969 C 108.746094 159.796875 134.316406 88.808594 134.316406 88.808594 "/>
<g clip-path="url(#clip1)" clip-rule="nonzero">
<path style=" stroke:none;fill-rule:nonzero;fill:rgb(82.398987%,65.098572%,3.898621%);fill-opacity:1;" d="M 159.203125 88.808594 C 155.34375 88.808594 151.304688 90.84375 147.035156 94.699219 C 142.769531 98.566406 140.121094 102.621094 138.707031 106.476563 L 106.421875 194.792969 C 106.421875 195.414063 103.882813 201.699219 103.882813 201.699219 L 118.007813 201.699219 C 122.472656 201.699219 126.523438 200.683594 129.96875 198.246094 C 133.023438 196.21875 135.449219 192.558594 137.285156 187.679688 L 146.222656 162.921875 L 178.101563 162.921875 C 182.761719 162.921875 187.234375 160.6875 191.496094 156.433594 C 194.738281 152.976563 197.171875 149.328125 198.601563 145.253906 L 219.304688 88.808594 Z M 165.855469 148.019531 C 164.242188 152.683594 160.785156 155.113281 155.910156 155.113281 L 149.214844 155.113281 L 169.363281 99.375 C 170.175781 96.9375 171.996094 95.722656 174.230469 95.722656 L 184.789063 95.722656 L 165.855469 148.019531 "/>
</g>
<path style=" stroke:none;fill-rule:nonzero;fill:rgb(82.398987%,65.098572%,3.898621%);fill-opacity:1;" d="M 335.734375 150.273438 C 333.914063 147.429688 332.878906 143.988281 332.878906 139.917969 C 332.878906 137.691406 333.292969 135.65625 333.914063 133.832031 L 346.527344 99.375 C 347.347656 96.933594 348.964844 95.722656 351.402344 95.722656 L 386.71875 95.722656 L 389.167969 88.808594 L 336.179688 88.808594 C 332.929688 88.808594 328.671875 90.429688 323.597656 93.6875 C 317.710938 97.34375 314.054688 101.601563 312.210938 106.472656 L 299.222656 141.8125 C 298.214844 144.433594 297.808594 146.679688 297.808594 148.914063 C 297.808594 153.386719 299.425781 156.828125 302.882813 159.265625 C 306.335938 161.707031 310.804688 162.921875 316.277344 162.921875 L 362.15625 162.921875 L 365.269531 155.144531 L 343.855469 155.144531 C 340.601563 155.144531 337.964844 153.523438 335.734375 150.273438 "/>
<path style=" stroke:none;fill-rule:nonzero;fill:rgb(82.398987%,65.098572%,3.898621%);fill-opacity:1;" d="M 467.5625 100.382813 C 467.5625 92.675781 463.691406 88.808594 455.996094 88.808594 L 431.214844 88.808594 L 454.351563 25.070313 L 440.347656 25.070313 C 435.285156 25.070313 430.402344 26.898438 425.746094 30.339844 C 421.0625 33.800781 417.824219 38.0625 416.191406 42.734375 L 372.550781 162.921875 L 390.207031 162.921875 C 394.671875 162.921875 398.527344 161.699219 401.976563 159.476563 C 405.226563 157.429688 408.0625 152.574219 410.710938 145.257813 L 428.789063 95.722656 C 432.023438 95.722656 434.664063 96.535156 436.695313 98.15625 C 438.523438 99.78125 439.542969 101.601563 439.542969 103.84375 C 439.542969 104.648438 439.328125 105.457031 438.925781 106.472656 L 418.429688 162.921875 L 446.648438 162.921875 L 465.929688 109.941406 C 466.945313 106.882813 467.5625 103.84375 467.5625 100.382813 "/>
<g clip-path="url(#clip2)" clip-rule="nonzero">
<path style=" stroke:none;fill-rule:nonzero;fill:rgb(82.398987%,65.098572%,3.898621%);fill-opacity:1;" d="M 546.492188 88.808594 L 483.960938 88.808594 L 463.257813 145.257813 C 461.625 149.925781 460.816406 153.382813 460.816406 155.613281 C 460.816406 160.476563 464.277344 162.925781 470.960938 162.925781 L 527.613281 162.925781 L 530.441406 155.144531 L 495.125 155.144531 C 494.101563 155.144531 492.652344 152.164063 494.101563 148.019531 C 496.941406 140.226563 499.367188 133.503906 501.527344 127.597656 L 547.511719 127.597656 L 555.222656 106.476563 C 555.828125 104.652344 556.234375 102.421875 556.234375 99.984375 C 556.234375 92.472656 552.992188 88.808594 546.492188 88.808594 M 529.4375 99.375 L 521.730469 120.496094 L 504.101563 120.496094 C 508.089844 109.554688 510.890625 101.875 513.195313 95.722656 L 527.203125 95.722656 C 529.640625 95.722656 530.253906 96.9375 529.4375 99.375 "/>
</g>
<path style=" stroke:none;fill-rule:nonzero;fill:rgb(82.398987%,65.098572%,3.898621%);fill-opacity:1;" d="M 303.367188 97.425781 C 303.367188 91.746094 300.132813 88.921875 293.652344 88.921875 L 237.378906 88.921875 L 234.742188 95.800781 L 261.632813 95.800781 L 261.632813 95.808594 L 269.945313 95.808594 C 270.042969 95.808594 270.761719 95.878906 271 95.933594 C 271.09375 95.949219 271.191406 95.976563 271.273438 96.003906 C 271.527344 96.085938 271.757813 96.203125 271.953125 96.355469 C 272.628906 96.914063 272.675781 97.964844 272.175781 99.480469 L 269.308594 107.335938 L 269.316406 107.335938 C 267.585938 112.117188 265.984375 116.527344 264.515625 120.546875 L 218.644531 120.546875 L 209.636719 145.191406 C 207.605469 150.667969 206.605469 154.710938 206.605469 156.941406 C 206.605469 160.785156 209.023438 162.808594 213.894531 162.808594 L 280.894531 162.808594 L 301.339844 106.527344 C 302.761719 102.890625 303.367188 99.855469 303.367188 97.425781 M 251.886719 155.035156 L 237.925781 155.035156 C 236.089844 155.035156 235.703125 152.613281 236.910156 147.949219 L 244.34375 127.433594 L 262 127.433594 C 257.515625 139.753906 254.386719 148.3125 251.886719 155.035156 "/>
</g>
</svg>
