<svg xmlns="http://www.w3.org/2000/svg" height="800" width="1200" xml:space="preserve" y="0" x="0" id="svg2" version="1.1" viewBox="-149.88 -86.625 1298.96 519.75"><style id="style5640" type="text/css">.st0{fill:#96979b}</style><g transform="translate(-4.8 -6.5)" id="g5645"><path d="M429.1 346.4h-28.9v-98.3h59.4l2.4 27h-32.9v13.7h26.8v25.9h-26.8z" class="st0" id="path3203"/><path d="M513.9 246.4c-34.6 0-51 25.7-51 51 0 26.5 16.9 51 51.4 51 32.5 0 51.4-22.4 51.4-50.4 0-26.8-17.5-51.6-51.8-51.6zm.5 26.9c13.6 0 20.3 13.9 20.3 24.4 0 14-9.3 24.6-20.6 24.6-11.1 0-20.3-9.4-20.3-25 0-11.6 6.6-24 20.6-24z" class="st0" id="path3205"/><path d="M553.4 346.4l30.5-50.6-28.9-47.4 34.7-.2 11.7 22.1 11-22.1h34.3L618.2 296l30.3 50.4h-33.3l-13.8-24.8-14.4 24.8z" class="st0" id="path3207"/></g><g transform="translate(-4.8 -6.5)" id="g5654"><path d="M425.7 179.3c0-13.7 8.7-23.6 19.7-23.6 11.4 0 18.8 9 18.8 9l16.1-21.7s-12.9-14.6-34.7-14.6c-36.2 0-51.9 27.5-51.9 51.6 0 30.6 22.5 50.1 51.8 50.1 24.2 0 37.1-13.8 37.1-13.8l-16-21.4s-8.8 8.4-20.2 8.4c-12.1.1-20.7-9.5-20.7-24z" class="st0" id="path3189"/><path d="M547 228h-60.3v-98.2h60.1l3.1 27h-34.3v11.6h25v23.1h-25v11.6h34.3z" class="st0" id="path3191"/><path d="M558 228v-98.2h25l34.7 47.1v-47.1h28.9V228h-24.2L585 177.1V228z" class="st0" id="path3193"/><path d="M675.9 228v-72.2h-23.1l2.6-26h70.2l2.3 26h-23.1V228z" class="st0" id="path3195"/><path d="M779.6 230.4c-32.7 0-44.4-20.1-44.4-40.1v-60.5h28.9V186c0 12 7 18.9 15.4 18.9 9.7 0 15.4-8 15.4-18.9v-56.2h29.9v53.9c-.1 35-17.7 46.7-45.2 46.7z" class="st0" id="path3197"/><path d="M834.4 129.8V228h28.9v-32.7h5.2l17.2 36 29-6.3-18.7-33.1c10.2-5.8 18.1-13.6 18.1-30.1 0-20.7-15.4-32-36.4-32zm28.8 23.1h8.7c8.2 0 13.5 2.7 13.5 9.8 0 6.3-5.3 10.5-13.5 10.5h-8.7z" class="st0" id="path3199"/><path d="M906.6 129.8l34.7 62.5V228h28v-35.8l34.7-62.5h-32.3l-16.3 34.9-16.3-34.9h-32.5z" class="st0" id="path3201"/></g><g transform="translate(-4.8 -6.5)" id="g5660"><path d="M400 91.2v19.3h74l3-25h-32.7l17.1-15.2c7.5-7 14.2-16.2 14.2-27.2 0-14.1-7.5-32.7-38-32.7-26 0-34.3 11.2-39.5 30.9l27 5.7c1.4-6.3 4.5-13.5 12.4-13.5 5.8 0 8.8 4 8.8 9.6 0 6.6-4.7 12.4-13.1 20z" class="st0" id="path3181"/><path d="M530 110.5h-28.9V48.9s-5.2 6.1-21.2 6.1V32.6c15.3-1.7 23.6-13.9 26.6-20.3H530z" class="st0" id="path3183"/><path d="M547.6 77.6l-12 22.4s15.6 12.6 38.9 12.6c23 0 37.8-12.7 37.8-31.4 0-36.4-44.7-28.2-44.7-41.3 0-3.4 2.7-6.7 11-6.7 10 0 20.3 7.6 20.3 7.6l11.8-21.2s-12-9.4-32.3-9.4c-30.8 0-38.8 21.3-38.8 31.4 0 34.4 44.4 27.8 44.4 40.3 0 4.5-3.4 6.5-10.7 6.5-12.3.1-25.7-10.8-25.7-10.8z" class="st0" id="path3185"/><path d="M635 110.5V38.3h-23.1l2.6-26h70.2l2.3 26h-23.1v72.2z" class="st0" id="path3187"/></g><path d="M173.3 0c-11 0-21.7 1-32.1 2.9l56.9 216.8L306.9 63C275.2 24.5 227.1 0 173.3 0zM72 32.8C28.4 64.2 0 115.4 0 173.2 0 249.1 48.7 313.6 116.6 337l60.4-87zm269.4 98.1L208.5 259.3l20.5 78.1c68.4-23.2 117.5-87.9 117.5-164.1 0-14.7-1.7-28.9-5.1-42.4zM190.2 277.1l-64.9 62.7c15.2 4.4 31.4 6.7 48 6.7 16.4 0 32.2-2.3 47.2-6.5z" id="path3179" fill="#270f6c"/></svg>