<?xml version="1.0" encoding="UTF-8"?>
<svg xmlns="http://www.w3.org/2000/svg" xmlns:xlink="http://www.w3.org/1999/xlink" width="196.7pt" height="53.36pt" viewBox="0 0 196.7 53.36" version="1.1">
<defs>
<clipPath id="clip1">
  <path d="M 0 25 L 31 25 L 31 53.359375 L 0 53.359375 Z M 0 25 "/>
</clipPath>
<clipPath id="clip2">
  <path d="M 190 47 L 196.699219 47 L 196.699219 53.359375 L 190 53.359375 Z M 190 47 "/>
</clipPath>
</defs>
<g id="surface1">
<path style=" stroke:none;fill-rule:nonzero;fill:rgb(13.699341%,12.199402%,12.5%);fill-opacity:1;" d="M 118.6875 41.019531 C 118.328125 41.664063 117.742188 41.660156 117.390625 41.015625 L 109.691406 26.878906 C 109.363281 26.222656 108.695313 25.683594 107.757813 25.683594 L 103.585938 25.683594 C 102.847656 25.683594 102.246094 26.285156 102.246094 27.019531 L 102.246094 51.578125 C 102.246094 52.3125 102.726563 52.816406 103.585938 52.816406 L 106.179688 52.816406 C 106.914063 52.816406 107.445313 52.351563 107.445313 51.640625 C 107.445313 51.300781 107.457031 33.78125 107.484375 33.78125 C 107.511719 33.78125 117.09375 51.636719 117.09375 51.636719 C 117.441406 52.285156 118.292969 52.289063 118.644531 51.640625 C 118.644531 51.640625 128.304688 33.832031 128.332031 33.832031 C 128.363281 33.832031 128.351563 51.128906 128.351563 51.640625 C 128.351563 52.351563 128.921875 52.816406 129.65625 52.816406 L 132.644531 52.816406 C 133.382813 52.816406 133.980469 52.449219 133.980469 51.476563 L 133.980469 27.019531 C 133.980469 26.285156 133.382813 25.683594 132.644531 25.683594 L 128.644531 25.683594 C 127.621094 25.683594 127.007813 26.203125 126.640625 26.84375 Z M 182.898438 25.683594 C 182.160156 25.683594 181.566406 26.167969 181.566406 26.875 C 181.566406 27.214844 181.574219 42.605469 181.574219 42.605469 C 181.574219 43.34375 181.160156 43.511719 180.648438 42.980469 L 164.898438 26.644531 C 164.386719 26.113281 163.640625 25.683594 162.632813 25.683594 L 159.667969 25.683594 C 158.738281 25.683594 158.332031 26.179688 158.332031 26.683594 C 158.332031 27.183594 158.332031 51.332031 158.332031 51.835938 C 158.332031 52.335938 158.808594 52.816406 159.546875 52.816406 L 162.511719 52.816406 C 163.246094 52.816406 163.761719 52.414063 163.761719 51.738281 C 163.761719 51.398438 163.777344 35.167969 163.777344 35.167969 C 163.777344 34.433594 164.191406 34.265625 164.699219 34.796875 L 181.121094 51.867188 C 181.644531 52.390625 182.277344 52.816406 183.40625 52.816406 L 185.632813 52.816406 C 186.371094 52.816406 186.972656 52.214844 186.972656 51.476563 L 186.972656 27.019531 C 186.972656 26.285156 186.371094 25.683594 185.632813 25.683594 Z M 86.171875 37.488281 C 85.347656 37.675781 84.417969 37.714844 84.417969 37.714844 C 83.683594 37.746094 82.480469 37.773438 81.746094 37.773438 L 75.5 37.773438 C 74.765625 37.773438 74.164063 37.171875 74.164063 36.4375 L 74.164063 31.453125 C 74.164063 30.71875 74.765625 30.117188 75.5 30.117188 L 81.746094 30.117188 C 82.480469 30.117188 83.683594 30.140625 84.417969 30.171875 C 84.417969 30.171875 85.347656 30.210938 86.171875 30.402344 C 87 30.589844 87.65625 30.855469 88.132813 31.199219 C 88.613281 31.546875 88.957031 31.949219 89.164063 32.417969 C 89.371094 32.882813 89.472656 33.390625 89.472656 33.941406 C 89.472656 34.492188 89.371094 35.003906 89.164063 35.46875 C 88.957031 35.933594 88.613281 36.339844 88.132813 36.683594 C 87.65625 37.03125 87 37.300781 86.171875 37.488281 Z M 88.710938 42.480469 C 88.289063 41.878906 88.519531 41.214844 89.222656 41.003906 C 89.222656 41.003906 92.027344 40.164063 93.367188 38.960938 C 94.710938 37.753906 95.386719 36.011719 95.386719 33.742188 C 95.386719 32.257813 95.125 31.011719 94.609375 29.996094 C 94.09375 28.984375 93.351563 28.152344 92.386719 27.519531 C 91.421875 26.882813 90.269531 26.414063 88.925781 26.121094 C 87.578125 25.828125 85.765625 25.746094 85.765625 25.746094 C 85.027344 25.710938 83.824219 25.683594 83.09375 25.683594 L 69.621094 25.683594 C 68.886719 25.683594 68.285156 26.285156 68.285156 27.019531 L 68.285156 51.609375 C 68.285156 52.347656 68.886719 52.816406 69.621094 52.816406 L 72.808594 52.816406 C 73.542969 52.816406 74.148438 52.347656 74.148438 51.609375 C 74.148438 51.609375 74.148438 41.828125 74.15625 41.828125 C 74.160156 41.828125 74.164063 41.824219 74.164063 41.816406 C 74.164063 41.808594 80.207031 41.800781 80.207031 41.800781 C 80.941406 41.800781 81.890625 42.292969 82.316406 42.894531 L 88.589844 51.730469 C 89.171875 52.511719 89.726563 52.816406 90.460938 52.816406 L 94.628906 52.816406 C 95.363281 52.816406 95.480469 52.121094 95.226563 51.761719 C 94.972656 51.402344 88.710938 42.480469 88.710938 42.480469 Z M 143.070313 27.070313 C 143.070313 27.3125 143.070313 51.191406 143.070313 51.675781 C 143.070313 52.351563 143.671875 52.816406 144.410156 52.816406 L 147.652344 52.816406 C 148.386719 52.816406 148.988281 52.347656 148.988281 51.609375 L 148.988281 27.019531 C 148.988281 26.285156 148.515625 25.683594 147.777344 25.683594 L 144.410156 25.683594 C 143.671875 25.683594 143.070313 26.136719 143.070313 27.070313 Z M 43.84375 45.125 C 43.109375 45.125 42.761719 44.574219 43.074219 43.910156 L 47.75 33.890625 C 48.0625 33.222656 48.566406 33.226563 48.867188 33.894531 L 53.421875 43.914063 C 53.726563 44.582031 53.375 45.128906 52.640625 45.128906 Z M 51.34375 26.878906 C 51.019531 26.21875 50.148438 25.683594 49.410156 25.683594 L 47.914063 25.683594 C 47.175781 25.683594 46.316406 26.226563 46 26.890625 L 34.128906 51.691406 C 33.796875 52.347656 34.15625 52.816406 34.894531 52.816406 L 37.636719 52.816406 C 38.71875 52.816406 39.214844 52.324219 39.507813 51.71875 C 39.804688 51.117188 40.457031 49.804688 40.582031 49.535156 C 40.75 49.175781 41.273438 48.953125 42.007813 48.953125 L 54.78125 48.960938 C 55.515625 48.960938 55.988281 49.101563 56.207031 49.535156 C 56.347656 49.820313 57.003906 51 57.324219 51.644531 C 57.648438 52.289063 58.191406 52.816406 59.246094 52.816406 L 63.226563 52.816406 C 63.960938 52.816406 64.285156 52.257813 64.019531 51.738281 C 63.753906 51.21875 51.34375 26.878906 51.34375 26.878906 "/>
<g clip-path="url(#clip1)" clip-rule="nonzero">
<path style=" stroke:none;fill-rule:nonzero;fill:rgb(13.699341%,12.199402%,12.5%);fill-opacity:1;" d="M 0 39.226563 C 0 52.472656 13.550781 53.144531 16.269531 53.144531 C 25.261719 53.144531 29.0625 50.714844 29.21875 50.609375 C 29.78125 50.292969 30.46875 49.652344 30.46875 48.449219 L 30.46875 39.304688 C 30.46875 38.460938 29.78125 37.773438 28.9375 37.773438 L 17.640625 37.773438 C 16.796875 37.773438 16.242188 38.460938 16.242188 39.304688 L 16.242188 40.25 C 16.242188 41.09375 16.796875 41.785156 17.640625 41.785156 L 24.175781 41.785156 C 24.804688 41.785156 25.320313 42.296875 25.320313 42.925781 C 25.320313 42.925781 25.3125 46.933594 25.3125 47.1875 C 24.023438 47.714844 18.140625 49.433594 13.417969 48.308594 C 6.5625 46.667969 6.027344 41.011719 6.027344 39.320313 C 6.027344 37.898438 6.457031 30.777344 14.871094 30.058594 C 21.683594 29.472656 26.171875 32.226563 26.214844 32.25 C 27.019531 32.667969 27.847656 32.371094 28.292969 31.523438 C 28.292969 31.515625 29.140625 29.800781 29.140625 29.800781 C 29.496094 29.09375 29.375 28.363281 28.515625 27.777344 C 28.457031 27.746094 23.679688 25.15625 16.269531 25.15625 C 0.457031 25.15625 0 37.785156 0 39.226563 "/>
</g>
<path style=" stroke:none;fill-rule:evenodd;fill:rgb(0%,48.999023%,76.499939%);fill-opacity:1;" d="M 181.398438 18.902344 L 163.652344 18.902344 C 163.003906 18.902344 162.445313 18.578125 162.121094 18.015625 C 161.796875 17.453125 161.796875 16.808594 162.121094 16.242188 L 170.992188 0.882813 C 171.320313 0.320313 171.878906 0 172.527344 0 C 173.179688 0 173.734375 0.320313 174.0625 0.882813 L 182.933594 16.246094 C 183.261719 16.808594 183.261719 17.453125 182.933594 18.015625 C 182.609375 18.578125 182.050781 18.902344 181.398438 18.902344 "/>
<g clip-path="url(#clip2)" clip-rule="nonzero">
<path style=" stroke:none;fill-rule:nonzero;fill:rgb(13.699341%,12.199402%,12.5%);fill-opacity:1;" d="M 193.011719 50.007813 L 193.714844 50.007813 C 194.167969 50.007813 194.460938 49.914063 194.460938 49.441406 C 194.460938 49.03125 194.089844 48.910156 193.714844 48.910156 L 193.011719 48.910156 Z M 192.417969 48.449219 L 193.808594 48.449219 C 194.640625 48.449219 195.050781 48.78125 195.050781 49.46875 C 195.050781 50.050781 194.683594 50.472656 194.117188 50.472656 L 195.144531 52.074219 L 194.519531 52.074219 L 193.507813 50.472656 L 193.011719 50.472656 L 193.011719 52.074219 L 192.417969 52.074219 Z M 193.609375 52.898438 C 195.03125 52.898438 196.105469 51.75 196.105469 50.265625 C 196.105469 48.78125 195.03125 47.632813 193.609375 47.632813 C 192.171875 47.632813 191.097656 48.78125 191.097656 50.265625 C 191.097656 51.75 192.171875 52.898438 193.609375 52.898438 Z M 193.601563 47.171875 C 195.308594 47.171875 196.695313 48.558594 196.695313 50.265625 C 196.695313 51.972656 195.308594 53.359375 193.601563 53.359375 C 191.894531 53.359375 190.507813 51.972656 190.507813 50.265625 C 190.507813 48.558594 191.894531 47.171875 193.601563 47.171875 "/>
</g>
</g>
</svg>
