<?xml version="1.0" encoding="UTF-8"?>
<!DOCTYPE svg PUBLIC "-//W3C//DTD SVG 1.1//EN" "http://www.w3.org/Graphics/SVG/1.1/DTD/svg11.dtd">
<!-- Creator: CorelDRAW -->
<svg xmlns="http://www.w3.org/2000/svg" xml:space="preserve" width="300px" height="300px" style="shape-rendering:geometricPrecision; text-rendering:geometricPrecision; image-rendering:optimizeQuality; fill-rule:evenodd; clip-rule:evenodd"
viewBox="0 0 322.968 310.43"
 xmlns:xlink="http://www.w3.org/1999/xlink">
 <defs>
  <style type="text/css">
   <![CDATA[
    .fil1 {fill:#00949B;fill-rule:nonzero}
    .fil0 {fill:white;fill-rule:nonzero}
   ]]>
  </style>
 </defs>
 <g id="Layer_x0020_1">
  <metadata id="CorelCorpID_0Corel-Layer"/>
  <polygon class="fil0" points="291.793,273.18 310.434,270.425 291.91,145.214 291.793,18.6557 273.184,18.6417 270.425,0 145.213,18.5241 18.655,18.5001 18.6362,37.2501 0,40.0047 18.5236,165.216 18.4102,291.774 37.2449,291.788 40.004,310.43 165.216,291.906 291.774,291.826 "/>
  <polygon class="fil1" points="264.276,8.28762 8.28708,46.1588 46.1581,302.142 302.142,264.271 "/>
  <path class="fil0" d="M270.802 117.212c-15.1146,3.07937 -22.1638,16.9884 -22.1638,16.9884 -4.09621,5.67892 -6.77519,20.4685 7.85442,18.7879 14.6251,-1.68564 22.1726,-11.8097 25.21,-16.758 0.428358,-0.692652 0.819241,-1.45057 1.16781,-2.25565l-2.34996 -15.8586c-2.15631,-1.31824 -5.30633,-1.80344 -9.71847,-0.904052zm0.668625 14.7092c-2.57068,9.49774 -8.68299,14.5125 -10.1657,15.1431 -1.4832,0.63133 -4.28035,1.66233 -3.96478,-4.55307 0.315575,-6.21522 4.52456,-13.4193 6.58728,-15.7124 2.0577,-2.29348 3.57389,-4.0919 6.14458,-4.33665 0,0 3.96926,-0.0380125 1.39857,9.45902z"/>
  <path class="fil0" d="M251.096 115.602c-7.94784,0.541499 -14.5636,7.99535 -17.6428,12.115 -0.032992,0.032992 -0.0753078,0.0563015 -0.122823,0.0658047 -0.0796111,0.00950312 -0.150436,-0.0233095 -0.192931,-0.0796111 -0.00950312,-0.0190062 -0.0233095,-0.032992 -0.0328127,-0.0519982 -0.00448261,-0.0138064 -0.0139857,-0.0328127 -0.0139857,-0.0473363 0,0 -0.00502052,0.00502052 -0.00502052,0.0145236 -1.28974,-2.20383 -3.83765,-4.82185 -8.59316,-4.52958 -2.95206,0.178946 -6.42734,2.48139 -6.71889,3.27212 0,0 -0.593318,0.970215 0.48968,1.16763 1.08282,0.202434 6.59678,0.466191 6.31904,6.23943 0,0 0.0518189,8.3199 -3.09372,19.7335 0,0 -1.79394,3.86544 2.35426,3.76682 4.15269,-0.0986173 11.9646,-1.15382 12.2233,-3.91726 0.259274,-2.76433 0.127127,-2.27914 0.127127,-2.27914 0,0 0.0475156,-10.0012 -0.951388,-16.5417 -0.0043033,-0.164422 0.0285094,-0.296031 0.0570187,-0.385863 3.92228,-7.88723 10.4389,-9.60084 10.4389,-9.60084 2.5004,-0.62613 4.18102,1.00267 4.79334,1.65731 0.612324,0.65464 1.00769,0.390883 1.00769,0.390883 1.71863,-0.560326 3.24881,-3.41377 3.24881,-3.41377 0.753257,-0.984201 3.38526,-8.05614 -3.69169,-7.57596z"/>
  <path class="fil0" d="M211.986 125.758c-7.53867,-2.60368 -15.6231,2.55222 -18.4956,4.66621 -0.0138064,0.00502052 -0.0233095,0.0145236 -0.0372953,0.0145236 -0.122644,0.0184683 -0.230944,-0.061322 -0.263757,-0.178946 -0.936865,-8.56016 -1.92107,-16.758 -2.5004,-19.1877 -1.35124,-5.65992 -0.743933,-12.7414 -8.80509,-11.5502 -2.48587,0.367574 -8.08967,1.29924 -11.2112,3.27732 -0.206917,0.13663 -0.551002,0.583815 0.437682,0.861378 0,0 2.93808,1.05521 4.43599,6.00364 0,0 6.94983,19.6867 8.11316,48.0467 0.13143,3.26782 1.67112,4.02126 1.67112,4.02126 5.18871,3.08869 15.9527,-5.2217 23.482,-13.2924 7.67458,-8.23078 12.5484,-19.442 3.17333,-22.6818zm-16.3999 27.9173c0,0 -0.838247,-8.73409 -1.85526,-18.3582 2.20383,-1.69084 7.08628,-4.79352 9.28061,-1.083 2.82063,4.76931 -1.53072,15.7877 -7.42535,19.4412z"/>
  <path class="fil0" d="M215.843 166.779c0,0 -0.329561,-1.06381 -0.504024,-1.49271 -0.202434,-0.512989 -0.724927,-0.409889 -0.724927,-0.409889 -1.13482,0.169442 -0.76796,1.4789 -0.76796,1.4789 3.62141,15.2272 5.54678,51.4089 -24.174,63.6227 -29.7252,12.2094 -54.6672,-4.38865 -58.6312,-7.09148 -11.1083,-7.58044 -12.8685,-13.8572 -13.0854,-14.8511 0.00502052,-0.0606048 0.0473363,-0.112424 0.113141,-0.127127 2.02488,0.207634 25.9629,2.36897 49.8781,-7.07176 25.0025,-9.86962 41.6621,-29.7448 45.2637,-38.7756 0,0 0.616627,-1.18161 -0.13663,-1.50687 -0.715424,-0.301052 -1.17713,0.560505 -1.17713,0.560505 -0.263219,0.339064 -0.541499,0.691935 -0.833227,1.06399 -10.4199,13.3162 -25.5301,26.8723 -53.3204,34.5471 -30.0788,8.30591 -53.8712,0.0190062 -53.8712,0.0190062 0,0 -0.423875,-0.202434 -0.692114,-0.0848109 -0.263757,0.113141 -0.24475,0.932382 -0.225744,1.23845 0,0 2.14681,30.022 43.5546,41.4779 39.3784,10.9006 85.0754,-10.8721 69.3344,-72.5972z"/>
  <path class="fil0" d="M41.4261 157.47c3.13101,-0.852054 9.08266,-2.45808 13.7211,-3.59738 1.41256,9.7988 3.20201,21.1563 3.2533,21.3915 0,0 1.05001,5.19319 2.31195,6.08308 1.14432,0.810455 1.37006,1.083 6.05098,0.598518 4.6845,-0.48968 8.40955,-1.55421 8.34321,-3.03759 0,0 0.0328127,-0.644419 -0.160119,-1.5915 0,0 -2.30245,-12.6938 -4.45876,-27.3758 2.82996,-0.696418 5.51396,-1.37455 7.71707,-1.90654 2.6087,-0.62613 5.0293,-1.35177 7.44955,-1.86978 1.15813,8.12248 3.06521,20.6241 3.06521,20.6241 0.588297,3.81864 1.45039,7.06746 1.45039,7.06746 0,0 1.20959,3.57389 4.09638,3.31516 2.29743,-0.202972 6.91702,-1.02221 8.49902,-2.30747 1.21945,-0.993704 -0.131609,-2.47709 -0.315755,-3.34815 0,0 -3.74333,-10.8393 -5.89014,-27.5031 10.6602,-1.91156 17.4967,-2.58449 17.4967,-2.58449 0,0 -12.2606,12.5762 -8.28188,21.857 3.97876,9.28581 16.395,6.51197 24.9319,-4.34562 0,0 3.58322,10.4717 15.0108,6.93083 0,0 0.541499,-0.160119 0.583815,-0.551002 0.0475156,-0.390883 -0.324361,-0.824262 -0.772263,-1.06901 0,0 -3.83711,-1.76991 -4.21849,-8.19277 -0.386401,-6.41766 2.12798,-17.2286 2.11902,-17.6385 -0.00950312,-0.409889 0.122106,-2.9994 -3.15504,-2.20365 -3.27732,0.79127 -7.21359,3.25885 -8.07515,4.12471 -0.87608,0.87608 -1.0405,1.66681 -1.48338,3.20201 0,0 -3.61621,11.8848 -10.1517,17.7612 -7.09579,6.37982 -5.38164,-2.30747 -3.35245,-6.66761 0,0 3.98306,-9.24779 13.3442,-16.5462 0,0 2.84394,-2.01968 5.49926,-3.12653 0.814758,-0.339064 1.31394,-1.47836 -0.498286,-1.98257 0,0 -2.14322,-0.414193 -5.37285,-0.24475 0,0 -12.6332,0.48968 -34.3213,5.01998 -0.339064,-3.64041 -0.588297,-7.48685 -0.701438,-11.5079 -0.37636,-13.4903 0.682432,-19.0181 0.682432,-19.0181 0,0 0.311272,-1.87427 -0.833047,-2.52389 0,0 -0.970394,-0.960891 -3.85163,-0.664143 -4.6334,0.479997 -8.38624,2.09553 -10.2788,3.19753 0,0 -0.87106,0.479997 -0.607841,0.880384 0.221441,0.329561 0.696956,0.385863 1.23397,1.38405 0,0 0.842551,1.031 1.17731,6.92186 0,0 2.13731,23.5288 2.17012,23.8066 -2.72614,0.65464 -5.56058,1.37006 -8.49436,2.14681 -2.33974,0.621827 -4.57656,1.21514 -6.72839,1.78515 -0.899569,-6.51717 -1.69514,-13.114 -2.17532,-18.8727l-0.984201 -13.2683c0,0 0.207455,-4.50627 -2.87245,-4.46378 -2.76864,0.0423158 -11.4744,2.44858 -17.073,6.89783 -1.74714,1.38907 0.306072,1.72813 0.588297,1.89327 0,0 1.72365,0.541319 2.29796,3.02737 0,0 2.39174,11.6351 3.87996,21.1977l-0.197952 0.0519982c0,0 -19.5734,5.23622 -29.2261,10.8678l1.30426 8.79111c3.49805,0.202255 8.7721,-0.531996 16.2539,-2.81615zm-6.62977 -7.60447c0,0 8.08967,-4.176 18.7405,-6.78469l0.127127 -0.0190062c0.10812,0.767243 0.211938,1.51118 0.301052,2.21781 0.11332,0.89939 0.24475,1.88305 0.38138,2.92409 -9.04536,2.35893 -15.3076,3.88463 -18.8391,4.38363 0,0 -3.26262,0.73443 -3.37146,-0.400386 -0.0986173,-1.01217 1.66681,-1.76095 2.66052,-2.32145z"/>
  <path class="fil0" d="M158.958 152.164c-2.68383,-0.428716 -4.25184,-0.758278 -7.88723,-1.71415 -3.63952,-0.950671 -4.5624,-3.38544 -4.5624,-3.38544 -3.07937,-8.64497 8.00916,-17.4311 8.00916,-17.4311 8.17878,-6.91684 14.6016,-8.32994 14.6016,-8.32994 6.63426,-1.38835 8.05184,5.74993 8.05184,5.74993 0,0 0.296569,1.77924 0.235247,2.48085 0,0 0.0891142,0.249771 -0.263757,0.296569 -4.48727,0.612324 -7.96254,1.9546 -7.96254,1.9546 -10.7685,4.36964 -11.4041,9.45023 -11.4041,9.45023 -0.358071,1.74642 0.0941347,4.45876 2.71682,5.50876 2.53321,1.01217 12.365,3.31014 12.365,3.31014 6.18689,1.50239 6.74722,4.60489 6.74722,4.60489 2.76433,7.19978 -6.28551,16.5602 -6.28551,16.5602 -8.7721,9.57287 -13.6225,11.833 -19.6772,13.2974 -6.05546,1.4599 -10.816,-5.90933 -10.816,-5.90933 -0.475694,-0.682432 -2.02022,-2.30245 -1.87857,-3.45627 0.135913,-1.14862 1.65731,-0.724748 1.83123,-0.578794 0.423696,0.357533 1.31878,0.687094 1.31878,0.687094 4.66119,1.9589 9.26626,-1.19112 9.26626,-1.19112 6.92634,-5.07108 11.2207,-11.3668 11.4421,-11.7432 0.216241,-0.377077 2.98488,-4.71821 1.38907,-7.15227 -1.5915,-2.43908 -7.50585,-3.0046 -7.50585,-3.0046l0.268777 -0.00448261z"/>
  <path class="fil1" d="M304.84 284.603c0,-4.70423 3.54538,-8.24961 8.09415,-8.24961 4.49229,0 8.03767,3.54538 8.03767,8.24961 0,4.78384 -3.54538,8.30143 -8.03767,8.30143 -4.54877,0 -8.09415,-3.51759 -8.09415,-8.30143zm8.09415 9.95874c5.41015,0 10.034,-4.20504 10.034,-9.95874 0,-5.70241 -4.6239,-9.90692 -10.034,-9.90692 -5.46663,0 -10.0905,4.2045 -10.0905,9.90692 0,5.75369 4.6239,9.95874 10.0905,9.95874zm-2.10449 -9.168l1.99619 0 3.02307 4.96296 1.94438 0 -3.25832 -5.04275c1.68134,-0.211938 2.96677,-1.10631 2.96677,-3.1545 0,-2.26067 -1.33725,-3.25885 -4.04528,-3.25885l-4.36014 0 0 11.4561 1.73333 0 0 -4.96296zm0 -1.47334l0 -3.54592 2.36825 0c1.20564,0 2.49538,0.263757 2.49538,1.68134 0,1.76095 -1.31322,1.86458 -2.78764,1.86458l-2.07598 0z"/>
 </g>
</svg>
